<svg xmlns="http://www.w3.org/2000/svg" xmlns:v="https://svgstorm.com"
viewBox = "0 0 1500 1500"
width="1500"
height="1500">
<g fill="None" fill-opacity="0.0" stroke="#FEFEFE" stroke-opacity="1.00" stroke-width="0.3"><path d="
M 0.00 1500.00 
L 1500.00 1500.00
L 1500.00 0.00
L 0.00 0.00
L 0.00 1500.00
M 1026.00 630.00 
C 1016.02 623.22 1002.41 623.95 994.30 633.30 C 986.19 642.65 981.06 653.16 967.00 651.00
C 971.99 644.66 976.89 638.29 982.25 632.25 C 987.60 626.21 992.38 619.77 997.77 613.77 C 1003.16 607.77 1008.44 601.76 1013.77 595.77 C 1019.10 589.78 1025.16 584.37 1030.25 578.25 C 1035.33 572.13 1041.80 567.15 1047.25 561.25 C 1052.69 555.35 1058.78 550.07 1064.75 544.75 C 1070.72 539.43 1076.55 533.97 1082.75 528.75 C 1088.96 523.53 1095.11 518.63 1101.75 513.75 C 1108.40 508.87 1114.31 503.91 1121.70 499.70 C 1129.09 495.48 1135.46 489.87 1144.08 487.08 C 1152.69 484.28 1157.10 476.36 1168.01 477.01 C 1178.92 477.66 1168.92 489.79 1161.30 492.30 C 1153.69 494.82 1148.71 502.87 1141.92 506.92 C 1135.12 510.96 1130.41 518.38 1123.92 522.92 C 1117.42 527.46 1112.97 534.61 1106.75 539.75 C 1100.53 544.89 1095.99 551.65 1090.25 557.25 C 1084.50 562.84 1079.22 568.89 1073.75 574.75 C 1068.28 580.61 1063.05 586.70 1057.75 592.75 C 1052.45 598.81 1047.16 604.66 1041.75 610.75 C 1036.35 616.85 1031.59 623.95 1026.00 630.00
M 678.00 509.00 
C 674.00 509.00 670.00 509.00 666.00 509.00
C 654.55 509.00 640.90 509.40 630.00 511.00 C 619.10 512.60 608.69 515.10 598.33 517.33 C 587.97 519.56 578.21 523.58 568.32 526.32 C 558.43 529.06 551.25 534.66 541.77 537.77 C 532.29 540.88 525.99 550.07 515.98 546.02 C 505.96 541.98 492.36 541.67 481.00 542.00
C 492.86 534.40 504.10 529.21 517.23 523.23 C 530.36 517.25 543.83 513.60 558.02 509.02 C 572.21 504.45 587.28 501.25 602.67 498.67 C 618.06 496.09 636.68 494.22 653.00 494.00 C 669.32 493.78 690.11 493.71 705.07 496.93 C 720.03 500.15 732.72 504.29 745.23 511.77 C 757.74 519.25 765.52 526.46 773.30 538.70 C 781.09 550.93 783.54 570.11 781.67 584.67 C 779.80 599.23 775.27 614.22 768.70 626.69 C 762.12 639.17 757.00 653.91 742.33 655.33 C 727.65 656.75 720.27 675.68 706.00 666.00
C 724.99 634.61 736.41 609.93 744.00 573.00 C 751.59 536.06 717.38 501.51 678.00 509.00
M 698.00 549.00 
C 691.01 558.24 679.02 565.45 670.25 575.25 C 661.47 585.05 651.87 593.53 643.75 603.75 C 635.63 613.98 627.03 623.69 619.25 634.25 C 611.46 644.80 603.82 655.61 596.70 666.70 C 589.57 677.78 582.57 689.52 576.00 701.00
C 579.79 701.17 599.96 691.62 596.22 698.22 C 592.48 704.83 577.99 704.59 572.00 707.00
C 568.85 715.70 561.54 727.21 558.69 735.69 C 555.84 744.18 546.89 762.10 557.23 767.77 C 567.57 773.44 579.30 759.42 587.00 756.00
C 582.24 769.34 550.48 785.11 541.25 766.75 C 532.02 748.40 546.33 726.32 553.00 710.00
C 540.86 708.97 529.18 711.37 517.00 710.00 C 504.82 708.62 493.54 710.73 481.00 709.00 C 468.46 707.27 463.58 713.49 458.25 723.25 C 452.91 733.00 451.41 738.12 445.08 747.08 C 438.76 756.04 441.65 762.67 431.75 770.75 C 421.85 778.83 419.74 762.38 426.92 754.92 C 434.11 747.47 434.14 738.59 439.92 730.92 C 445.71 723.26 448.24 715.51 454.00 708.00
C 433.18 706.23 412.73 709.89 399.00 726.00
C 403.26 713.56 413.61 706.95 425.07 701.07 C 436.53 695.20 458.71 701.66 465.77 689.77 C 472.83 677.88 478.72 669.33 485.77 657.77 C 492.83 646.21 498.20 637.22 505.30 625.31 C 512.41 613.39 517.50 602.54 520.00 588.00 C 522.50 573.46 511.27 561.74 496.00 562.00 C 480.73 562.26 463.59 563.39 450.32 568.32 C 437.06 573.26 426.77 578.00 415.92 585.92 C 405.07 593.83 397.72 600.97 389.08 611.08 C 380.45 621.19 373.96 629.90 368.23 642.23 C 362.50 654.56 358.59 670.97 362.93 685.07 C 367.26 699.17 386.57 702.24 399.02 697.02 C 411.48 691.80 419.17 683.48 425.92 671.92 C 432.68 660.37 435.78 644.02 428.00 632.00
C 442.09 637.77 437.76 660.86 431.23 672.23 C 424.70 683.60 417.29 694.51 404.92 700.92 C 392.55 707.34 373.87 708.10 361.75 699.25 C 349.64 690.39 345.25 673.32 347.00 659.00 C 348.75 644.68 354.33 630.94 362.30 619.30 C 370.28 607.67 378.25 599.94 389.08 591.08 C 399.91 582.22 409.91 575.60 423.02 570.03 C 436.14 564.45 450.13 558.94 465.02 557.02 C 479.92 555.11 500.76 555.23 514.68 560.32 C 528.60 565.41 538.10 579.57 536.00 594.00 C 533.90 608.43 524.95 619.05 517.75 630.75 C 510.54 642.44 503.48 652.81 496.23 664.23 C 488.98 675.65 481.03 686.10 475.00 698.00
C 488.81 696.20 505.09 702.14 518.07 701.93 C 531.06 701.71 552.11 707.73 559.92 697.92 C 567.74 688.12 571.45 678.04 578.31 668.31 C 585.16 658.57 591.13 649.29 597.92 639.92 C 604.71 630.55 611.26 622.47 618.75 613.75 C 626.24 605.03 632.78 596.39 641.25 588.25 C 649.71 580.11 657.31 572.41 666.70 565.70 C 676.08 558.99 686.12 550.39 698.00 549.00
M 478.00 578.00 
C 471.33 583.12 465.12 587.84 459.25 594.25 C 453.38 600.65 446.26 603.08 441.25 611.25 C 436.23 619.42 422.77 616.17 417.25 623.25 C 411.72 630.33 415.96 642.49 409.70 648.70 C 403.44 654.91 399.31 662.97 395.25 669.25 C 391.18 675.53 384.91 690.99 377.25 682.75 C 369.59 674.51 377.30 662.06 378.78 653.78 C 380.26 645.49 386.81 638.14 390.92 630.92 C 395.03 623.69 401.97 618.08 407.75 611.75 C 413.54 605.42 419.56 600.28 426.70 595.70 C 433.83 591.11 441.36 586.52 449.68 583.68 C 458.00 580.84 469.32 575.62 478.00 578.00
M 1009.00 665.00 
C 1013.63 667.62 1022.42 664.18 1028.00 665.00 C 1033.58 665.82 1042.18 665.22 1048.00 665.00
C 1054.19 664.76 1065.13 665.17 1071.00 664.00 C 1076.87 662.83 1077.25 653.16 1082.25 650.25 C 1087.24 647.34 1087.53 639.28 1095.03 639.03 C 1102.52 638.77 1105.20 647.79 1102.25 651.25 C 1099.29 654.70 1091.79 663.79 1093.00 665.00
C 1097.28 667.50 1105.90 664.06 1111.00 665.00 C 1116.10 665.94 1123.67 665.00 1129.00 665.00
C 1136.50 665.00 1145.33 664.17 1152.00 666.00
C 1140.89 671.70 1124.61 670.14 1113.00 673.00 C 1101.39 675.86 1083.49 673.62 1075.25 682.25 C 1067.01 690.87 1061.22 700.44 1056.70 710.70 C 1052.17 720.95 1041.24 732.53 1045.00 745.00 C 1048.76 757.47 1070.99 750.93 1080.03 747.03 C 1089.06 743.12 1100.83 735.78 1108.75 728.75 C 1116.67 721.73 1124.98 712.16 1134.00 707.00
C 1130.28 717.15 1121.71 724.51 1113.25 732.25 C 1104.78 739.99 1096.05 745.08 1085.31 750.31 C 1074.56 755.53 1060.75 759.62 1047.78 757.22 C 1034.81 754.82 1031.96 736.85 1037.00 726.00
C 1026.41 734.07 1019.92 740.51 1007.92 746.92 C 995.93 753.34 984.02 757.89 969.00 758.00 C 953.98 758.11 946.11 740.47 953.00 727.00
C 939.81 738.48 928.00 747.25 912.77 755.77 C 897.54 764.29 868.47 758.90 871.00 736.00
C 857.67 746.44 843.09 760.89 824.99 759.99 C 806.90 759.10 796.25 739.25 790.00 725.00
C 782.30 733.35 776.96 746.13 772.00 757.00
C 754.58 754.52 763.88 735.73 769.00 726.00
C 762.11 732.63 756.65 737.43 748.92 742.92 C 741.19 748.41 734.16 753.17 724.92 756.92 C 715.69 760.68 704.96 761.41 695.77 755.23 C 686.58 749.05 685.81 737.30 688.93 727.93 C 692.05 718.55 696.88 711.19 702.75 703.75 C 708.62 696.31 713.68 690.60 720.75 684.75 C 727.81 678.89 735.64 673.12 743.70 669.70 C 751.75 666.27 767.08 665.65 769.92 675.08 C 772.77 684.51 770.20 696.67 758.78 699.78 C 747.35 702.88 749.08 685.07 756.00 679.00
C 745.47 679.97 738.37 687.01 729.92 692.92 C 721.47 698.83 716.19 705.90 710.70 714.70 C 705.20 723.49 697.80 730.73 699.00 743.00 C 700.20 755.27 717.35 756.02 726.08 751.08 C 734.80 746.13 743.62 741.73 751.23 735.23 C 758.84 728.73 765.49 723.32 771.77 715.77 C 778.05 708.22 785.20 701.27 789.75 692.75 C 794.31 684.23 800.87 676.99 805.75 668.75 C 810.63 660.52 817.66 652.68 822.75 644.75 C 827.85 636.83 835.71 629.47 841.25 622.25 C 846.79 615.02 868.51 610.98 857.08 626.08 C 845.65 641.18 831.46 656.40 821.00 672.00
C 828.36 669.25 835.59 665.52 843.07 663.07 C 850.56 660.63 861.73 658.30 868.74 662.26 C 875.75 666.21 881.69 672.76 881.00 681.00 C 880.31 689.24 875.69 695.48 869.30 700.30 C 862.92 705.12 857.48 708.88 849.77 711.77 C 842.06 714.66 831.98 717.36 823.00 716.00 C 814.02 714.64 803.47 710.79 806.78 721.22 C 810.08 731.66 810.70 734.95 816.25 742.75 C 821.80 750.56 830.20 752.67 838.02 750.02 C 845.85 747.37 851.92 743.79 858.08 739.08 C 864.24 734.37 870.30 730.27 873.97 723.97 C 877.65 717.68 880.71 710.28 885.75 704.75 C 890.80 699.22 894.42 693.34 900.25 688.25 C 906.08 683.16 911.07 679.09 917.75 674.75 C 924.42 670.40 932.72 667.71 941.02 667.02 C 949.33 666.34 957.33 675.68 954.67 683.67 C 952.01 691.66 948.31 696.93 941.77 701.77 C 935.23 706.61 930.68 711.08 922.92 713.92 C 915.17 716.77 910.43 723.03 900.98 722.98 C 891.53 722.92 884.43 726.50 884.02 737.02 C 883.61 747.55 888.61 753.60 898.00 754.00 C 907.39 754.40 913.58 749.65 920.70 745.70 C 927.82 741.75 932.00 736.86 938.25 732.25 C 944.50 727.63 948.55 722.61 954.25 717.25 C 959.94 711.89 962.58 704.74 965.92 697.92 C 969.27 691.10 973.50 684.17 976.00 677.00
C 962.18 686.27 957.55 661.55 971.01 664.01 C 984.47 666.47 991.18 661.06 996.77 651.77 C 1002.36 642.48 1009.91 635.87 1018.25 642.75 C 1026.59 649.64 1009.01 659.14 1009.00 665.00
M 705.00 681.00 
C 699.83 688.58 690.60 690.25 683.00 694.00
C 685.09 702.11 678.83 709.91 674.70 716.70 C 670.56 723.49 664.39 729.08 659.25 735.25 C 654.11 741.42 648.77 747.65 641.75 751.75 C 634.74 755.86 623.71 759.96 615.92 755.08 C 608.14 750.19 605.85 739.08 607.98 730.98 C 610.10 722.87 614.28 714.71 618.77 707.77 C 623.26 700.83 628.04 694.52 633.25 688.25 C 638.46 681.98 643.10 676.84 649.25 671.25 C 655.40 665.65 662.20 659.61 671.02 659.02 C 679.85 658.44 689.90 666.80 686.00 678.00 C 682.10 689.20 698.05 684.78 705.00 681.00
M 536.00 689.00 
C 530.04 691.82 516.02 685.09 522.26 678.26 C 528.49 671.42 535.06 684.92 536.00 689.00
M 371.00 718.00 
C 355.37 756.97 347.98 829.09 403.00 839.00
C 397.63 850.92 387.24 854.74 376.78 849.22 C 366.31 843.71 358.92 840.28 350.75 831.25 C 342.58 822.22 337.33 815.34 333.03 803.98 C 328.72 792.61 325.27 780.99 325.00 768.00 C 324.73 755.01 325.21 739.22 327.93 726.93 C 330.65 714.63 332.45 703.32 338.00 692.00
C 344.61 704.30 356.55 716.32 371.00 718.00
M 911.00 736.00 
C 907.94 736.90 905.32 739.01 902.00 739.00
C 903.57 736.23 908.83 734.66 911.00 736.00
M 780.00 848.00 
C 795.66 848.00 811.35 848.31 827.00 848.00
C 839.34 847.75 842.06 832.52 848.77 823.77 C 855.48 815.02 859.50 802.90 866.31 794.31 C 873.11 785.71 875.98 769.24 889.00 773.00 C 902.03 776.76 914.40 769.37 926.00 765.00
C 911.35 791.51 893.79 817.00 880.00 844.00
C 887.94 844.77 899.47 837.76 906.68 837.68 C 913.88 837.60 922.98 823.56 928.74 829.26 C 934.51 834.96 920.62 843.24 914.77 845.77 C 908.92 848.30 898.05 852.83 890.98 854.98 C 883.90 857.12 870.47 857.37 867.23 865.23 C 863.98 873.09 859.54 879.39 856.08 887.08 C 852.62 894.76 848.94 901.54 845.23 909.23 C 841.52 916.92 839.20 924.68 835.68 932.68 C 832.15 940.68 829.84 948.41 827.07 957.07 C 824.31 965.73 822.81 977.46 823.00 987.00 C 823.19 996.54 826.51 1004.46 836.03 1006.98 C 845.54 1009.49 854.61 1005.35 863.22 1003.22 C 871.84 1001.10 877.27 994.90 885.08 992.08 C 892.89 989.27 895.79 979.81 903.25 977.25 C 910.71 974.69 903.39 992.12 896.30 994.30 C 889.21 996.49 884.39 1005.13 876.77 1007.77 C 869.15 1010.41 862.04 1015.56 853.93 1017.93 C 845.81 1020.29 835.91 1024.02 826.98 1023.98 C 818.04 1023.93 810.14 1020.64 803.75 1014.25 C 797.37 1007.86 793.28 1001.67 791.02 992.98 C 788.77 984.28 787.09 972.65 788.33 963.33 C 789.57 954.01 791.78 944.75 793.98 935.98 C 796.18 927.20 799.77 919.95 802.77 911.77 C 805.77 903.59 809.02 896.51 812.77 888.77 C 816.52 881.03 819.40 873.35 824.00 866.00
C 811.97 866.17 800.24 867.63 788.00 867.00
C 779.51 867.82 769.42 867.81 761.00 867.00
C 745.98 867.00 730.80 866.66 716.00 866.00 C 701.20 865.34 685.61 864.74 671.00 864.00 C 656.39 863.26 640.11 864.18 626.00 863.00 C 611.89 861.82 609.17 876.90 602.25 886.25 C 595.33 895.59 591.15 906.42 585.08 916.08 C 579.00 925.73 573.84 935.44 568.23 945.23 C 562.62 955.02 557.30 966.29 552.08 976.08 C 546.86 985.87 541.01 997.93 536.23 1007.23 C 531.45 1016.53 513.63 1026.88 506.70 1016.30 C 499.76 1005.73 511.76 991.76 515.77 981.77 C 519.78 971.78 526.73 960.65 531.77 950.77 C 536.81 940.89 542.75 931.08 548.25 921.25 C 553.76 911.43 559.69 901.18 565.31 891.31 C 570.92 881.43 577.71 872.10 583.00 862.00
C 571.39 861.40 558.10 862.40 547.00 863.00 C 535.90 863.60 521.96 863.51 511.99 865.99 C 502.02 868.48 493.12 870.73 485.30 876.30 C 477.49 881.87 469.54 885.40 465.70 894.70 C 461.85 903.99 447.18 908.10 451.77 897.77 C 456.36 887.44 462.65 884.84 468.75 876.75 C 474.86 868.67 480.77 865.26 488.08 859.08 C 495.39 852.90 502.54 848.24 511.68 844.68 C 520.82 841.12 530.78 838.48 541.22 837.22 C 551.66 835.96 565.93 834.27 577.00 835.00 C 588.07 835.73 601.32 836.74 605.77 826.77 C 610.22 816.80 616.45 812.75 620.77 803.77 C 625.09 794.79 630.94 789.81 635.25 781.25 C 639.57 772.69 644.65 765.47 652.75 760.75 C 660.85 756.02 666.34 749.06 672.00 742.00
C 675.56 747.73 675.01 756.99 682.00 761.00
C 667.19 786.50 649.63 810.80 634.00 836.00
C 682.96 838.79 730.64 846.74 780.00 848.00
M 419.00 856.00 
C 421.69 850.64 424.32 845.36 427.00 840.00
C 471.72 837.30 506.49 798.54 524.00 760.00
C 530.49 769.17 529.63 780.25 522.70 788.70 C 515.76 797.14 511.96 805.74 504.25 813.25 C 496.54 820.75 491.28 827.38 482.75 833.75 C 474.23 840.13 466.11 845.61 455.77 849.77 C 445.43 853.94 430.74 856.07 419.00 856.00
M 421.00 835.00 
C 405.59 874.72 382.37 915.79 388.00 960.00
C 372.53 958.88 373.85 940.54 376.98 928.98 C 380.10 917.41 376.07 902.23 369.00 893.00
C 362.08 902.14 357.14 912.80 351.70 922.70 C 346.25 932.59 341.78 945.75 332.00 951.00
C 332.29 925.67 353.35 907.86 366.00 888.00
C 361.30 884.10 355.55 878.01 348.78 881.78 C 342.01 885.55 344.04 895.42 342.00 901.00
C 336.46 895.11 335.77 879.62 344.08 875.08 C 352.39 870.54 364.15 878.83 368.00 886.00
C 377.61 878.37 383.85 867.17 393.25 859.25 C 402.65 851.32 409.38 838.04 421.00 835.00 Z"/>
</g>
<g fill="None" fill-opacity="0.0" stroke="#000000" stroke-opacity="1.00" stroke-width="0.3"><path d="
M 1026.00 630.00 
C 1031.59 623.95 1036.35 616.85 1041.75 610.75 C 1047.16 604.66 1052.45 598.81 1057.75 592.75 C 1063.05 586.70 1068.28 580.61 1073.75 574.75 C 1079.22 568.89 1084.50 562.84 1090.25 557.25 C 1095.99 551.65 1100.53 544.89 1106.75 539.75 C 1112.97 534.61 1117.42 527.46 1123.92 522.92 C 1130.41 518.38 1135.12 510.96 1141.92 506.92 C 1148.71 502.87 1153.69 494.82 1161.30 492.30 C 1168.92 489.79 1178.92 477.66 1168.01 477.01 C 1157.10 476.36 1152.69 484.28 1144.08 487.08 C 1135.46 489.87 1129.09 495.48 1121.70 499.70 C 1114.31 503.91 1108.40 508.87 1101.75 513.75 C 1095.11 518.63 1088.96 523.53 1082.75 528.75 C 1076.55 533.97 1070.72 539.43 1064.75 544.75 C 1058.78 550.07 1052.69 555.35 1047.25 561.25 C 1041.80 567.15 1035.33 572.13 1030.25 578.25 C 1025.16 584.37 1019.10 589.78 1013.77 595.77 C 1008.44 601.76 1003.16 607.77 997.77 613.77 C 992.38 619.77 987.60 626.21 982.25 632.25 C 976.89 638.29 971.99 644.66 967.00 651.00
C 981.06 653.16 986.19 642.65 994.30 633.30 C 1002.41 623.95 1016.02 623.22 1026.00 630.00 Z"/>
</g>
<g fill="None" fill-opacity="0.0" stroke="#000000" stroke-opacity="1.00" stroke-width="0.3"><path d="
M 666.00 509.00 
C 669.77 508.63 674.29 508.64 678.00 509.00
C 717.38 501.51 751.59 536.06 744.00 573.00 C 736.41 609.93 724.99 634.61 706.00 666.00
C 720.27 675.68 727.65 656.75 742.33 655.33 C 757.00 653.91 762.12 639.17 768.70 626.69 C 775.27 614.22 779.80 599.23 781.67 584.67 C 783.54 570.11 781.09 550.93 773.30 538.70 C 765.52 526.46 757.74 519.25 745.23 511.77 C 732.72 504.29 720.03 500.15 705.07 496.93 C 690.11 493.71 669.32 493.78 653.00 494.00 C 636.68 494.22 618.06 496.09 602.67 498.67 C 587.28 501.25 572.21 504.45 558.02 509.02 C 543.83 513.60 530.36 517.25 517.23 523.23 C 504.10 529.21 492.86 534.40 481.00 542.00
C 492.36 541.67 505.96 541.98 515.98 546.02 C 525.99 550.07 532.29 540.88 541.77 537.77 C 551.25 534.66 558.43 529.06 568.32 526.32 C 578.21 523.58 587.97 519.56 598.33 517.33 C 608.69 515.10 619.10 512.60 630.00 511.00 C 640.90 509.40 654.55 509.00 666.00 509.00 Z"/>
</g>
<g fill="None" fill-opacity="0.0" stroke="#727272" stroke-opacity="1.00" stroke-width="0.3"><path d="
M 666.00 509.00 
C 670.00 509.00 674.00 509.00 678.00 509.00
C 674.29 508.64 669.77 508.63 666.00 509.00 Z"/>
</g>
<g fill="None" fill-opacity="0.0" stroke="#000000" stroke-opacity="1.00" stroke-width="0.3"><path d="
M 698.00 549.00 
C 686.12 550.39 676.08 558.99 666.70 565.70 C 657.31 572.41 649.71 580.11 641.25 588.25 C 632.78 596.39 626.24 605.03 618.75 613.75 C 611.26 622.47 604.71 630.55 597.92 639.92 C 591.13 649.29 585.16 658.57 578.31 668.31 C 571.45 678.04 567.74 688.12 559.92 697.92 C 552.11 707.73 531.06 701.71 518.07 701.93 C 505.09 702.14 488.81 696.20 475.00 698.00
C 481.03 686.10 488.98 675.65 496.23 664.23 C 503.48 652.81 510.54 642.44 517.75 630.75 C 524.95 619.05 533.90 608.43 536.00 594.00 C 538.10 579.57 528.60 565.41 514.68 560.32 C 500.76 555.23 479.92 555.11 465.02 557.02 C 450.13 558.94 436.14 564.45 423.02 570.03 C 409.91 575.60 399.91 582.22 389.08 591.08 C 378.25 599.94 370.28 607.67 362.30 619.30 C 354.33 630.94 348.75 644.68 347.00 659.00 C 345.25 673.32 349.64 690.39 361.75 699.25 C 373.87 708.10 392.55 707.34 404.92 700.92 C 417.29 694.51 424.70 683.60 431.23 672.23 C 437.76 660.86 442.09 637.77 428.00 632.00
C 435.78 644.02 432.68 660.37 425.92 671.92 C 419.17 683.48 411.48 691.80 399.02 697.02 C 386.57 702.24 367.26 699.17 362.93 685.07 C 358.59 670.97 362.50 654.56 368.23 642.23 C 373.96 629.90 380.45 621.19 389.08 611.08 C 397.72 600.97 405.07 593.83 415.92 585.92 C 426.77 578.00 437.06 573.26 450.32 568.32 C 463.59 563.39 480.73 562.26 496.00 562.00 C 511.27 561.74 522.50 573.46 520.00 588.00 C 517.50 602.54 512.41 613.39 505.30 625.31 C 498.20 637.22 492.83 646.21 485.77 657.77 C 478.72 669.33 472.83 677.88 465.77 689.77 C 458.71 701.66 436.53 695.20 425.07 701.07 C 413.61 706.95 403.26 713.56 399.00 726.00
C 412.73 709.89 433.18 706.23 454.00 708.00
C 448.24 715.51 445.71 723.26 439.92 730.92 C 434.14 738.59 434.11 747.47 426.92 754.92 C 419.74 762.38 421.85 778.83 431.75 770.75 C 441.65 762.67 438.76 756.04 445.08 747.08 C 451.41 738.12 452.91 733.00 458.25 723.25 C 463.58 713.49 468.46 707.27 481.00 709.00 C 493.54 710.73 504.82 708.62 517.00 710.00 C 529.18 711.37 540.86 708.97 553.00 710.00
C 546.33 726.32 532.02 748.40 541.25 766.75 C 550.48 785.11 582.24 769.34 587.00 756.00
C 579.30 759.42 567.57 773.44 557.23 767.77 C 546.89 762.10 555.84 744.18 558.69 735.69 C 561.54 727.21 568.85 715.70 572.00 707.00
C 577.99 704.59 592.48 704.83 596.22 698.22 C 599.96 691.62 579.79 701.17 576.00 701.00
C 582.57 689.52 589.57 677.78 596.70 666.70 C 603.82 655.61 611.46 644.80 619.25 634.25 C 627.03 623.69 635.63 613.98 643.75 603.75 C 651.87 593.53 661.47 585.05 670.25 575.25 C 679.02 565.45 691.01 558.24 698.00 549.00 Z"/>
</g>
<g fill="None" fill-opacity="0.0" stroke="#000000" stroke-opacity="1.00" stroke-width="0.3"><path d="
M 478.00 578.00 
C 469.32 575.62 458.00 580.84 449.68 583.68 C 441.36 586.52 433.83 591.11 426.70 595.70 C 419.56 600.28 413.54 605.42 407.75 611.75 C 401.97 618.08 395.03 623.69 390.92 630.92 C 386.81 638.14 380.26 645.49 378.78 653.78 C 377.30 662.06 369.59 674.51 377.25 682.75 C 384.91 690.99 391.18 675.53 395.25 669.25 C 399.31 662.97 403.44 654.91 409.70 648.70 C 415.96 642.49 411.72 630.33 417.25 623.25 C 422.77 616.17 436.23 619.42 441.25 611.25 C 446.26 603.08 453.38 600.65 459.25 594.25 C 465.12 587.84 471.33 583.12 478.00 578.00 Z"/>
</g>
<g fill="None" fill-opacity="0.0" stroke="#000000" stroke-opacity="1.00" stroke-width="0.3"><path d="
M 1129.00 665.00 
C 1124.40 665.45 1116.12 667.18 1111.00 666.00 C 1105.88 664.82 1096.59 668.59 1093.00 665.00
C 1091.79 663.79 1099.29 654.70 1102.25 651.25 C 1105.20 647.79 1102.52 638.77 1095.03 639.03 C 1087.53 639.28 1087.24 647.34 1082.25 650.25 C 1077.25 653.16 1076.87 662.83 1071.00 664.00 C 1065.13 665.17 1054.19 664.76 1048.00 665.00
C 1043.12 665.70 1034.40 667.20 1029.00 666.00 C 1023.60 664.80 1012.79 668.79 1009.00 665.00
C 1009.01 659.14 1026.59 649.64 1018.25 642.75 C 1009.91 635.87 1002.36 642.48 996.77 651.77 C 991.18 661.06 984.47 666.47 971.01 664.01 C 957.55 661.55 962.18 686.27 976.00 677.00
C 973.50 684.17 969.27 691.10 965.92 697.92 C 962.58 704.74 959.94 711.89 954.25 717.25 C 948.55 722.61 944.50 727.63 938.25 732.25 C 932.00 736.86 927.82 741.75 920.70 745.70 C 913.58 749.65 907.39 754.40 898.00 754.00 C 888.61 753.60 883.61 747.55 884.02 737.02 C 884.43 726.50 891.53 722.92 900.98 722.98 C 910.43 723.03 915.17 716.77 922.92 713.92 C 930.68 711.08 935.23 706.61 941.77 701.77 C 948.31 696.93 952.01 691.66 954.67 683.67 C 957.33 675.68 949.33 666.34 941.02 667.02 C 932.72 667.71 924.42 670.40 917.75 674.75 C 911.07 679.09 906.08 683.16 900.25 688.25 C 894.42 693.34 890.80 699.22 885.75 704.75 C 880.71 710.28 877.65 717.68 873.97 723.97 C 870.30 730.27 864.24 734.37 858.08 739.08 C 851.92 743.79 845.85 747.37 838.02 750.02 C 830.20 752.67 821.80 750.56 816.25 742.75 C 810.70 734.95 810.08 731.66 806.78 721.22 C 803.47 710.79 814.02 714.64 823.00 716.00 C 831.98 717.36 842.06 714.66 849.77 711.77 C 857.48 708.88 862.92 705.12 869.30 700.30 C 875.69 695.48 880.31 689.24 881.00 681.00 C 881.69 672.76 875.75 666.21 868.74 662.26 C 861.73 658.30 850.56 660.63 843.07 663.07 C 835.59 665.52 828.36 669.25 821.00 672.00
C 831.46 656.40 845.65 641.18 857.08 626.08 C 868.51 610.98 846.79 615.02 841.25 622.25 C 835.71 629.47 827.85 636.83 822.75 644.75 C 817.66 652.68 810.63 660.52 805.75 668.75 C 800.87 676.99 794.31 684.23 789.75 692.75 C 785.20 701.27 778.05 708.22 771.77 715.77 C 765.49 723.32 758.84 728.73 751.23 735.23 C 743.62 741.73 734.80 746.13 726.08 751.08 C 717.35 756.02 700.20 755.27 699.00 743.00 C 697.80 730.73 705.20 723.49 710.70 714.70 C 716.19 705.90 721.47 698.83 729.92 692.92 C 738.37 687.01 745.47 679.97 756.00 679.00
C 749.08 685.07 747.35 702.88 758.78 699.78 C 770.20 696.67 772.77 684.51 769.92 675.08 C 767.08 665.65 751.75 666.27 743.70 669.70 C 735.64 673.12 727.81 678.89 720.75 684.75 C 713.68 690.60 708.62 696.31 702.75 703.75 C 696.88 711.19 692.05 718.55 688.93 727.93 C 685.81 737.30 686.58 749.05 695.77 755.23 C 704.96 761.41 715.69 760.68 724.92 756.92 C 734.16 753.17 741.19 748.41 748.92 742.92 C 756.65 737.43 762.11 732.63 769.00 726.00
C 763.88 735.73 754.58 754.52 772.00 757.00
C 776.96 746.13 782.30 733.35 790.00 725.00
C 796.25 739.25 806.90 759.10 824.99 759.99 C 843.09 760.89 857.67 746.44 871.00 736.00
C 868.47 758.90 897.54 764.29 912.77 755.77 C 928.00 747.25 939.81 738.48 953.00 727.00
C 946.11 740.47 953.98 758.11 969.00 758.00 C 984.02 757.89 995.93 753.34 1007.92 746.92 C 1019.92 740.51 1026.41 734.07 1037.00 726.00
C 1031.96 736.85 1034.81 754.82 1047.78 757.22 C 1060.75 759.62 1074.56 755.53 1085.31 750.31 C 1096.05 745.08 1104.78 739.99 1113.25 732.25 C 1121.71 724.51 1130.28 717.15 1134.00 707.00
C 1124.98 712.16 1116.67 721.73 1108.75 728.75 C 1100.83 735.78 1089.06 743.12 1080.03 747.03 C 1070.99 750.93 1048.76 757.47 1045.00 745.00 C 1041.24 732.53 1052.17 720.95 1056.70 710.70 C 1061.22 700.44 1067.01 690.87 1075.25 682.25 C 1083.49 673.62 1101.39 675.86 1113.00 673.00 C 1124.61 670.14 1140.89 671.70 1152.00 666.00
C 1145.33 664.17 1136.50 665.00 1129.00 665.00
M 797.00 708.00 
C 801.20 696.39 807.04 690.84 817.23 683.23 C 827.42 675.62 834.46 673.88 847.22 668.22 C 859.99 662.57 873.73 673.59 863.08 685.08 C 852.43 696.57 847.56 695.97 835.32 702.32 C 823.09 708.67 810.75 709.75 797.00 708.00
M 1045.00 671.00 
C 1045.87 678.09 1054.45 679.26 1060.00 677.00
C 1055.13 688.29 1049.81 698.12 1044.23 709.23 C 1038.65 720.34 1029.03 724.03 1019.92 732.92 C 1010.80 741.81 999.65 743.45 987.93 749.93 C 976.20 756.40 955.91 748.39 961.99 733.99 C 968.07 719.60 970.72 712.68 978.25 701.25 C 985.79 689.83 988.30 679.77 1002.02 677.02 C 1015.75 674.28 1031.10 673.54 1045.00 671.00
M 893.00 717.00 
C 901.97 701.08 917.26 688.02 932.23 678.23 C 947.20 668.44 950.56 681.96 943.08 690.08 C 935.60 698.20 931.04 702.95 922.30 708.30 C 913.57 713.65 903.12 718.67 893.00 717.00 Z"/>
</g>
<g fill="None" fill-opacity="0.0" stroke="#000000" stroke-opacity="1.00" stroke-width="0.3"><path d="
M 705.00 681.00 
C 698.05 684.78 682.10 689.20 686.00 678.00 C 689.90 666.80 679.85 658.44 671.02 659.02 C 662.20 659.61 655.40 665.65 649.25 671.25 C 643.10 676.84 638.46 681.98 633.25 688.25 C 628.04 694.52 623.26 700.83 618.77 707.77 C 614.28 714.71 610.10 722.87 607.98 730.98 C 605.85 739.08 608.14 750.19 615.92 755.08 C 623.71 759.96 634.74 755.86 641.75 751.75 C 648.77 747.65 654.11 741.42 659.25 735.25 C 664.39 729.08 670.56 723.49 674.70 716.70 C 678.83 709.91 685.09 702.11 683.00 694.00
C 690.60 690.25 699.83 688.58 705.00 681.00
M 666.00 682.00 
C 669.01 683.21 671.24 690.39 674.75 693.25 C 678.27 696.10 674.91 703.19 671.70 707.70 C 668.49 712.21 668.49 714.05 663.23 720.23 C 657.97 726.41 650.50 735.91 643.75 740.75 C 637.00 745.60 636.93 746.12 629.99 747.99 C 623.06 749.86 619.55 743.39 620.01 737.99 C 620.46 732.60 622.73 728.00 625.31 723.31 C 627.88 718.61 629.76 714.66 633.30 710.30 C 636.84 705.95 637.47 703.67 642.25 699.25 C 647.03 694.82 657.57 678.62 666.00 682.00 Z"/>
</g>
<g fill="None" fill-opacity="0.0" stroke="#7B7B7B" stroke-opacity="1.00" stroke-width="0.3"><path d="
M 1048.00 665.00 
C 1042.18 665.22 1033.58 665.82 1028.00 665.00 C 1022.42 664.18 1013.63 667.62 1009.00 665.00
C 1012.79 668.79 1023.60 664.80 1029.00 666.00 C 1034.40 667.20 1043.12 665.70 1048.00 665.00 Z"/>
</g>
<g fill="None" fill-opacity="0.0" stroke="#7D7D7D" stroke-opacity="1.00" stroke-width="0.3"><path d="
M 1129.00 665.00 
C 1123.67 665.00 1116.10 665.94 1111.00 665.00 C 1105.90 664.06 1097.28 667.50 1093.00 665.00
C 1096.59 668.59 1105.88 664.82 1111.00 666.00 C 1116.12 667.18 1124.40 665.45 1129.00 665.00 Z"/>
</g>
<g fill="None" fill-opacity="0.0" stroke="#FAFAFA" stroke-opacity="1.00" stroke-width="0.3"><path d="
M 797.00 708.00 
C 810.75 709.75 823.09 708.67 835.32 702.32 C 847.56 695.97 852.43 696.57 863.08 685.08 C 873.73 673.59 859.99 662.57 847.22 668.22 C 834.46 673.88 827.42 675.62 817.23 683.23 C 807.04 690.84 801.20 696.39 797.00 708.00 Z"/>
</g>
<g fill="None" fill-opacity="0.0" stroke="#FCFCFC" stroke-opacity="1.00" stroke-width="0.3"><path d="
M 1045.00 671.00 
C 1031.10 673.54 1015.75 674.28 1002.02 677.02 C 988.30 679.77 985.79 689.83 978.25 701.25 C 970.72 712.68 968.07 719.60 961.99 733.99 C 955.91 748.39 976.20 756.40 987.93 749.93 C 999.65 743.45 1010.80 741.81 1019.92 732.92 C 1029.03 724.03 1038.65 720.34 1044.23 709.23 C 1049.81 698.12 1055.13 688.29 1060.00 677.00
C 1054.45 679.26 1045.87 678.09 1045.00 671.00 Z"/>
</g>
<g fill="None" fill-opacity="0.0" stroke="#F9F9F9" stroke-opacity="1.00" stroke-width="0.3"><path d="
M 893.00 717.00 
C 903.12 718.67 913.57 713.65 922.30 708.30 C 931.04 702.95 935.60 698.20 943.08 690.08 C 950.56 681.96 947.20 668.44 932.23 678.23 C 917.26 688.02 901.97 701.08 893.00 717.00 Z"/>
</g>
<g fill="None" fill-opacity="0.0" stroke="#000000" stroke-opacity="1.00" stroke-width="0.3"><path d="
M 536.00 689.00 
C 535.06 684.92 528.49 671.42 522.26 678.26 C 516.02 685.09 530.04 691.82 536.00 689.00 Z"/>
</g>
<g fill="None" fill-opacity="0.0" stroke="#FBFBFB" stroke-opacity="1.00" stroke-width="0.3"><path d="
M 666.00 682.00 
C 657.57 678.62 647.03 694.82 642.25 699.25 C 637.47 703.67 636.84 705.95 633.30 710.30 C 629.76 714.66 627.88 718.61 625.31 723.31 C 622.73 728.00 620.46 732.60 620.01 737.99 C 619.55 743.39 623.06 749.86 629.99 747.99 C 636.93 746.12 637.00 745.60 643.75 740.75 C 650.50 735.91 657.97 726.41 663.23 720.23 C 668.49 714.05 668.49 712.21 671.70 707.70 C 674.91 703.19 678.27 696.10 674.75 693.25 C 671.24 690.39 669.01 683.21 666.00 682.00 Z"/>
</g>
<g fill="None" fill-opacity="0.0" stroke="#000000" stroke-opacity="1.00" stroke-width="0.3"><path d="
M 371.00 718.00 
C 356.55 716.32 344.61 704.30 338.00 692.00
C 332.45 703.32 330.65 714.63 327.93 726.93 C 325.21 739.22 324.73 755.01 325.00 768.00 C 325.27 780.99 328.72 792.61 333.03 803.98 C 337.33 815.34 342.58 822.22 350.75 831.25 C 358.92 840.28 366.31 843.71 376.78 849.22 C 387.24 854.74 397.63 850.92 403.00 839.00
C 347.98 829.09 355.37 756.97 371.00 718.00 Z"/>
</g>
<g fill="None" fill-opacity="0.0" stroke="#272727" stroke-opacity="1.00" stroke-width="0.3"><path d="
M 911.00 736.00 
C 908.83 734.66 903.57 736.23 902.00 739.00
C 905.32 739.01 907.94 736.90 911.00 736.00 Z"/>
</g>
<g fill="None" fill-opacity="0.0" stroke="#000000" stroke-opacity="1.00" stroke-width="0.3"><path d="
M 761.00 867.00 
C 770.00 867.00 779.00 867.00 788.00 867.00
C 800.24 867.63 811.97 866.17 824.00 866.00
C 819.40 873.35 816.52 881.03 812.77 888.77 C 809.02 896.51 805.77 903.59 802.77 911.77 C 799.77 919.95 796.18 927.20 793.98 935.98 C 791.78 944.75 789.57 954.01 788.33 963.33 C 787.09 972.65 788.77 984.28 791.02 992.98 C 793.28 1001.67 797.37 1007.86 803.75 1014.25 C 810.14 1020.64 818.04 1023.93 826.98 1023.98 C 835.91 1024.02 845.81 1020.29 853.93 1017.93 C 862.04 1015.56 869.15 1010.41 876.77 1007.77 C 884.39 1005.13 889.21 996.49 896.30 994.30 C 903.39 992.12 910.71 974.69 903.25 977.25 C 895.79 979.81 892.89 989.27 885.08 992.08 C 877.27 994.90 871.84 1001.10 863.22 1003.22 C 854.61 1005.35 845.54 1009.49 836.03 1006.98 C 826.51 1004.46 823.19 996.54 823.00 987.00 C 822.81 977.46 824.31 965.73 827.07 957.07 C 829.84 948.41 832.15 940.68 835.68 932.68 C 839.20 924.68 841.52 916.92 845.23 909.23 C 848.94 901.54 852.62 894.76 856.08 887.08 C 859.54 879.39 863.98 873.09 867.23 865.23 C 870.47 857.37 883.90 857.12 890.98 854.98 C 898.05 852.83 908.92 848.30 914.77 845.77 C 920.62 843.24 934.51 834.96 928.74 829.26 C 922.98 823.56 913.88 837.60 906.68 837.68 C 899.47 837.76 887.94 844.77 880.00 844.00
C 893.79 817.00 911.35 791.51 926.00 765.00
C 914.40 769.37 902.03 776.76 889.00 773.00 C 875.98 769.24 873.11 785.71 866.31 794.31 C 859.50 802.90 855.48 815.02 848.77 823.77 C 842.06 832.52 839.34 847.75 827.00 848.00
C 812.35 849.77 794.58 849.41 780.00 848.00
C 730.64 846.74 682.96 838.79 634.00 836.00
C 649.63 810.80 667.19 786.50 682.00 761.00
C 675.01 756.99 675.56 747.73 672.00 742.00
C 666.34 749.06 660.85 756.02 652.75 760.75 C 644.65 765.47 639.57 772.69 635.25 781.25 C 630.94 789.81 625.09 794.79 620.77 803.77 C 616.45 812.75 610.22 816.80 605.77 826.77 C 601.32 836.74 588.07 835.73 577.00 835.00 C 565.93 834.27 551.66 835.96 541.22 837.22 C 530.78 838.48 520.82 841.12 511.68 844.68 C 502.54 848.24 495.39 852.90 488.08 859.08 C 480.77 865.26 474.86 868.67 468.75 876.75 C 462.65 884.84 456.36 887.44 451.77 897.77 C 447.18 908.10 461.85 903.99 465.70 894.70 C 469.54 885.40 477.49 881.87 485.30 876.30 C 493.12 870.73 502.02 868.48 511.99 865.99 C 521.96 863.51 535.90 863.60 547.00 863.00 C 558.10 862.40 571.39 861.40 583.00 862.00
C 577.71 872.10 570.92 881.43 565.31 891.31 C 559.69 901.18 553.76 911.43 548.25 921.25 C 542.75 931.08 536.81 940.89 531.77 950.77 C 526.73 960.65 519.78 971.78 515.77 981.77 C 511.76 991.76 499.76 1005.73 506.70 1016.30 C 513.63 1026.88 531.45 1016.53 536.23 1007.23 C 541.01 997.93 546.86 985.87 552.08 976.08 C 557.30 966.29 562.62 955.02 568.23 945.23 C 573.84 935.44 579.00 925.73 585.08 916.08 C 591.15 906.42 595.33 895.59 602.25 886.25 C 609.17 876.90 611.89 861.82 626.00 863.00 C 640.11 864.18 656.39 863.26 671.00 864.00 C 685.61 864.74 701.20 865.34 716.00 866.00 C 730.80 866.66 745.98 867.00 761.00 867.00 Z"/>
</g>
<g fill="None" fill-opacity="0.0" stroke="#000000" stroke-opacity="1.00" stroke-width="0.3"><path d="
M 419.00 856.00 
C 430.74 856.07 445.43 853.94 455.77 849.77 C 466.11 845.61 474.23 840.13 482.75 833.75 C 491.28 827.38 496.54 820.75 504.25 813.25 C 511.96 805.74 515.76 797.14 522.70 788.70 C 529.63 780.25 530.49 769.17 524.00 760.00
C 506.49 798.54 471.72 837.30 427.00 840.00
C 424.32 845.36 421.69 850.64 419.00 856.00 Z"/>
</g>
<g fill="None" fill-opacity="0.0" stroke="#000000" stroke-opacity="1.00" stroke-width="0.3"><path d="
M 421.00 835.00 
C 409.38 838.04 402.65 851.32 393.25 859.25 C 383.85 867.17 377.61 878.37 368.00 886.00
C 364.15 878.83 352.39 870.54 344.08 875.08 C 335.77 879.62 336.46 895.11 342.00 901.00
C 344.04 895.42 342.01 885.55 348.78 881.78 C 355.55 878.01 361.30 884.10 366.00 888.00
C 353.35 907.86 332.29 925.67 332.00 951.00
C 341.78 945.75 346.25 932.59 351.70 922.70 C 357.14 912.80 362.08 902.14 369.00 893.00
C 376.07 902.23 380.10 917.41 376.98 928.98 C 373.85 940.54 372.53 958.88 388.00 960.00
C 382.37 915.79 405.59 874.72 421.00 835.00
M 401.00 859.00 
C 394.13 875.76 386.30 892.32 382.00 910.00
C 375.82 902.59 369.02 888.93 378.25 881.25 C 387.48 873.56 390.64 864.46 401.00 859.00 Z"/>
</g>
<g fill="None" fill-opacity="0.0" stroke="#8E8E8E" stroke-opacity="1.00" stroke-width="0.3"><path d="
M 827.00 848.00 
C 811.35 848.31 795.66 848.00 780.00 848.00
C 794.58 849.41 812.35 849.77 827.00 848.00 Z"/>
</g>
<g fill="None" fill-opacity="0.0" stroke="#F7F7F7" stroke-opacity="1.00" stroke-width="0.3"><path d="
M 401.00 859.00 
C 390.64 864.46 387.48 873.56 378.25 881.25 C 369.02 888.93 375.82 902.59 382.00 910.00
C 386.30 892.32 394.13 875.76 401.00 859.00 Z"/>
</g>
<g fill="None" fill-opacity="0.0" stroke="#909090" stroke-opacity="1.00" stroke-width="0.3"><path d="
M 788.00 867.00 
C 779.00 867.00 770.00 867.00 761.00 867.00
C 769.42 867.81 779.51 867.82 788.00 867.00 Z"/>
</g>
<g fill="#FEFEFE" fill-opacity="1.00" stroke="None">
<path d="
M 0.00 1500.00 
L 1500.00 1500.00
L 1500.00 0.00
L 0.00 0.00
L 0.00 1500.00
M 1026.00 630.00 
C 1016.02 623.22 1002.41 623.95 994.30 633.30 C 986.19 642.65 981.06 653.16 967.00 651.00
C 971.99 644.66 976.89 638.29 982.25 632.25 C 987.60 626.21 992.38 619.77 997.77 613.77 C 1003.16 607.77 1008.44 601.76 1013.77 595.77 C 1019.10 589.78 1025.16 584.37 1030.25 578.25 C 1035.33 572.13 1041.80 567.15 1047.25 561.25 C 1052.69 555.35 1058.78 550.07 1064.75 544.75 C 1070.72 539.43 1076.55 533.97 1082.75 528.75 C 1088.96 523.53 1095.11 518.63 1101.75 513.75 C 1108.40 508.87 1114.31 503.91 1121.70 499.70 C 1129.09 495.48 1135.46 489.87 1144.08 487.08 C 1152.69 484.28 1157.10 476.36 1168.01 477.01 C 1178.92 477.66 1168.92 489.79 1161.30 492.30 C 1153.69 494.82 1148.71 502.87 1141.92 506.92 C 1135.12 510.96 1130.41 518.38 1123.92 522.92 C 1117.42 527.46 1112.97 534.61 1106.75 539.75 C 1100.53 544.89 1095.99 551.65 1090.25 557.25 C 1084.50 562.84 1079.22 568.89 1073.75 574.75 C 1068.28 580.61 1063.05 586.70 1057.75 592.75 C 1052.45 598.81 1047.16 604.66 1041.75 610.75 C 1036.35 616.85 1031.59 623.95 1026.00 630.00
M 678.00 509.00 
C 674.00 509.00 670.00 509.00 666.00 509.00
C 654.55 509.00 640.90 509.40 630.00 511.00 C 619.10 512.60 608.69 515.10 598.33 517.33 C 587.97 519.56 578.21 523.58 568.32 526.32 C 558.43 529.06 551.25 534.66 541.77 537.77 C 532.29 540.88 525.99 550.07 515.98 546.02 C 505.96 541.98 492.36 541.67 481.00 542.00
C 492.86 534.40 504.10 529.21 517.23 523.23 C 530.36 517.25 543.83 513.60 558.02 509.02 C 572.21 504.45 587.28 501.25 602.67 498.67 C 618.06 496.09 636.68 494.22 653.00 494.00 C 669.32 493.78 690.11 493.71 705.07 496.93 C 720.03 500.15 732.72 504.29 745.23 511.77 C 757.74 519.25 765.52 526.46 773.30 538.70 C 781.09 550.93 783.54 570.11 781.67 584.67 C 779.80 599.23 775.27 614.22 768.70 626.69 C 762.12 639.17 757.00 653.91 742.33 655.33 C 727.65 656.75 720.27 675.68 706.00 666.00
C 724.99 634.61 736.41 609.93 744.00 573.00 C 751.59 536.06 717.38 501.51 678.00 509.00
M 698.00 549.00 
C 691.01 558.24 679.02 565.45 670.25 575.25 C 661.47 585.05 651.87 593.53 643.75 603.75 C 635.63 613.98 627.03 623.69 619.25 634.25 C 611.46 644.80 603.82 655.61 596.70 666.70 C 589.57 677.78 582.57 689.52 576.00 701.00
C 579.79 701.17 599.96 691.62 596.22 698.22 C 592.48 704.83 577.99 704.59 572.00 707.00
C 568.85 715.70 561.54 727.21 558.69 735.69 C 555.84 744.18 546.89 762.10 557.23 767.77 C 567.57 773.44 579.30 759.42 587.00 756.00
C 582.24 769.34 550.48 785.11 541.25 766.75 C 532.02 748.40 546.33 726.32 553.00 710.00
C 540.86 708.97 529.18 711.37 517.00 710.00 C 504.82 708.62 493.54 710.73 481.00 709.00 C 468.46 707.27 463.58 713.49 458.25 723.25 C 452.91 733.00 451.41 738.12 445.08 747.08 C 438.76 756.04 441.65 762.67 431.75 770.75 C 421.85 778.83 419.74 762.38 426.92 754.92 C 434.11 747.47 434.14 738.59 439.92 730.92 C 445.71 723.26 448.24 715.51 454.00 708.00
C 433.18 706.23 412.73 709.89 399.00 726.00
C 403.26 713.56 413.61 706.95 425.07 701.07 C 436.53 695.20 458.71 701.66 465.77 689.77 C 472.83 677.88 478.72 669.33 485.77 657.77 C 492.83 646.21 498.20 637.22 505.30 625.31 C 512.41 613.39 517.50 602.54 520.00 588.00 C 522.50 573.46 511.27 561.74 496.00 562.00 C 480.73 562.26 463.59 563.39 450.32 568.32 C 437.06 573.26 426.77 578.00 415.92 585.92 C 405.07 593.83 397.72 600.97 389.08 611.08 C 380.45 621.19 373.96 629.90 368.23 642.23 C 362.50 654.56 358.59 670.97 362.93 685.07 C 367.26 699.17 386.57 702.24 399.02 697.02 C 411.48 691.80 419.17 683.48 425.92 671.92 C 432.68 660.37 435.78 644.02 428.00 632.00
C 442.09 637.77 437.76 660.86 431.23 672.23 C 424.70 683.60 417.29 694.51 404.92 700.92 C 392.55 707.34 373.87 708.10 361.75 699.25 C 349.64 690.39 345.25 673.32 347.00 659.00 C 348.75 644.68 354.33 630.94 362.30 619.30 C 370.28 607.67 378.25 599.94 389.08 591.08 C 399.91 582.22 409.91 575.60 423.02 570.03 C 436.14 564.45 450.13 558.94 465.02 557.02 C 479.92 555.11 500.76 555.23 514.68 560.32 C 528.60 565.41 538.10 579.57 536.00 594.00 C 533.90 608.43 524.95 619.05 517.75 630.75 C 510.54 642.44 503.48 652.81 496.23 664.23 C 488.98 675.65 481.03 686.10 475.00 698.00
C 488.81 696.20 505.09 702.14 518.07 701.93 C 531.06 701.71 552.11 707.73 559.92 697.92 C 567.74 688.12 571.45 678.04 578.31 668.31 C 585.16 658.57 591.13 649.29 597.92 639.92 C 604.71 630.55 611.26 622.47 618.75 613.75 C 626.24 605.03 632.78 596.39 641.25 588.25 C 649.71 580.11 657.31 572.41 666.70 565.70 C 676.08 558.99 686.12 550.39 698.00 549.00
M 478.00 578.00 
C 471.33 583.12 465.12 587.84 459.25 594.25 C 453.38 600.65 446.26 603.08 441.25 611.25 C 436.23 619.42 422.77 616.17 417.25 623.25 C 411.72 630.33 415.96 642.49 409.70 648.70 C 403.44 654.91 399.31 662.97 395.25 669.25 C 391.18 675.53 384.91 690.99 377.25 682.75 C 369.59 674.51 377.30 662.06 378.78 653.78 C 380.26 645.49 386.81 638.14 390.92 630.92 C 395.03 623.69 401.97 618.08 407.75 611.75 C 413.54 605.42 419.56 600.28 426.70 595.70 C 433.83 591.11 441.36 586.52 449.68 583.68 C 458.00 580.84 469.32 575.62 478.00 578.00
M 1009.00 665.00 
C 1013.63 667.62 1022.42 664.18 1028.00 665.00 C 1033.58 665.82 1042.18 665.22 1048.00 665.00
C 1054.19 664.76 1065.13 665.17 1071.00 664.00 C 1076.87 662.83 1077.25 653.16 1082.25 650.25 C 1087.24 647.34 1087.53 639.28 1095.03 639.03 C 1102.52 638.77 1105.20 647.79 1102.25 651.25 C 1099.29 654.70 1091.79 663.79 1093.00 665.00
C 1097.28 667.50 1105.90 664.06 1111.00 665.00 C 1116.10 665.94 1123.67 665.00 1129.00 665.00
C 1136.50 665.00 1145.33 664.17 1152.00 666.00
C 1140.89 671.70 1124.61 670.14 1113.00 673.00 C 1101.39 675.86 1083.49 673.62 1075.25 682.25 C 1067.01 690.87 1061.22 700.44 1056.70 710.70 C 1052.17 720.95 1041.24 732.53 1045.00 745.00 C 1048.76 757.47 1070.99 750.93 1080.03 747.03 C 1089.06 743.12 1100.83 735.78 1108.75 728.75 C 1116.67 721.73 1124.98 712.16 1134.00 707.00
C 1130.28 717.15 1121.71 724.51 1113.25 732.25 C 1104.78 739.99 1096.05 745.08 1085.31 750.31 C 1074.56 755.53 1060.75 759.62 1047.78 757.22 C 1034.81 754.82 1031.96 736.85 1037.00 726.00
C 1026.41 734.07 1019.92 740.51 1007.92 746.92 C 995.93 753.34 984.02 757.89 969.00 758.00 C 953.98 758.11 946.11 740.47 953.00 727.00
C 939.81 738.48 928.00 747.25 912.77 755.77 C 897.54 764.29 868.47 758.90 871.00 736.00
C 857.67 746.44 843.09 760.89 824.99 759.99 C 806.90 759.10 796.25 739.25 790.00 725.00
C 782.30 733.35 776.96 746.13 772.00 757.00
C 754.58 754.52 763.88 735.73 769.00 726.00
C 762.11 732.63 756.65 737.43 748.92 742.92 C 741.19 748.41 734.16 753.17 724.92 756.92 C 715.69 760.68 704.96 761.41 695.77 755.23 C 686.58 749.05 685.81 737.30 688.93 727.93 C 692.05 718.55 696.88 711.19 702.75 703.75 C 708.62 696.31 713.68 690.60 720.75 684.75 C 727.81 678.89 735.64 673.12 743.70 669.70 C 751.75 666.27 767.08 665.65 769.92 675.08 C 772.77 684.51 770.20 696.67 758.78 699.78 C 747.35 702.88 749.08 685.07 756.00 679.00
C 745.47 679.97 738.37 687.01 729.92 692.92 C 721.47 698.83 716.19 705.90 710.70 714.70 C 705.20 723.49 697.80 730.73 699.00 743.00 C 700.20 755.27 717.35 756.02 726.08 751.08 C 734.80 746.13 743.62 741.73 751.23 735.23 C 758.84 728.73 765.49 723.32 771.77 715.77 C 778.05 708.22 785.20 701.27 789.75 692.75 C 794.31 684.23 800.87 676.99 805.75 668.75 C 810.63 660.52 817.66 652.68 822.75 644.75 C 827.85 636.83 835.71 629.47 841.25 622.25 C 846.79 615.02 868.51 610.98 857.08 626.08 C 845.65 641.18 831.46 656.40 821.00 672.00
C 828.36 669.25 835.59 665.52 843.07 663.07 C 850.56 660.63 861.73 658.30 868.74 662.26 C 875.75 666.21 881.69 672.76 881.00 681.00 C 880.31 689.24 875.69 695.48 869.30 700.30 C 862.92 705.12 857.48 708.88 849.77 711.77 C 842.06 714.66 831.98 717.36 823.00 716.00 C 814.02 714.64 803.47 710.79 806.78 721.22 C 810.08 731.66 810.70 734.95 816.25 742.75 C 821.80 750.56 830.20 752.67 838.02 750.02 C 845.85 747.37 851.92 743.79 858.08 739.08 C 864.24 734.37 870.30 730.27 873.97 723.97 C 877.65 717.68 880.71 710.28 885.75 704.75 C 890.80 699.22 894.42 693.34 900.25 688.25 C 906.08 683.16 911.07 679.09 917.75 674.75 C 924.42 670.40 932.72 667.71 941.02 667.02 C 949.33 666.34 957.33 675.68 954.67 683.67 C 952.01 691.66 948.31 696.93 941.77 701.77 C 935.23 706.61 930.68 711.08 922.92 713.92 C 915.17 716.77 910.43 723.03 900.98 722.98 C 891.53 722.92 884.43 726.50 884.02 737.02 C 883.61 747.55 888.61 753.60 898.00 754.00 C 907.39 754.40 913.58 749.65 920.70 745.70 C 927.82 741.75 932.00 736.86 938.25 732.25 C 944.50 727.63 948.55 722.61 954.25 717.25 C 959.94 711.89 962.58 704.74 965.92 697.92 C 969.27 691.10 973.50 684.17 976.00 677.00
C 962.18 686.27 957.55 661.55 971.01 664.01 C 984.47 666.47 991.18 661.06 996.77 651.77 C 1002.36 642.48 1009.91 635.87 1018.25 642.75 C 1026.59 649.64 1009.01 659.14 1009.00 665.00
M 705.00 681.00 
C 699.83 688.58 690.60 690.25 683.00 694.00
C 685.09 702.11 678.83 709.91 674.70 716.70 C 670.56 723.49 664.39 729.08 659.25 735.25 C 654.11 741.42 648.77 747.65 641.75 751.75 C 634.74 755.86 623.71 759.96 615.92 755.08 C 608.14 750.19 605.85 739.08 607.98 730.98 C 610.10 722.87 614.28 714.71 618.77 707.77 C 623.26 700.83 628.04 694.52 633.25 688.25 C 638.46 681.98 643.10 676.84 649.25 671.25 C 655.40 665.65 662.20 659.61 671.02 659.02 C 679.85 658.44 689.90 666.80 686.00 678.00 C 682.10 689.20 698.05 684.78 705.00 681.00
M 536.00 689.00 
C 530.04 691.82 516.02 685.09 522.26 678.26 C 528.49 671.42 535.06 684.92 536.00 689.00
M 371.00 718.00 
C 355.37 756.97 347.98 829.09 403.00 839.00
C 397.63 850.92 387.24 854.74 376.78 849.22 C 366.31 843.71 358.92 840.28 350.75 831.25 C 342.58 822.22 337.33 815.34 333.03 803.98 C 328.72 792.61 325.27 780.99 325.00 768.00 C 324.73 755.01 325.21 739.22 327.93 726.93 C 330.65 714.63 332.45 703.32 338.00 692.00
C 344.61 704.30 356.55 716.32 371.00 718.00
M 911.00 736.00 
C 907.94 736.90 905.32 739.01 902.00 739.00
C 903.57 736.23 908.83 734.66 911.00 736.00
M 780.00 848.00 
C 795.66 848.00 811.35 848.31 827.00 848.00
C 839.34 847.75 842.06 832.52 848.77 823.77 C 855.48 815.02 859.50 802.90 866.31 794.31 C 873.11 785.71 875.98 769.24 889.00 773.00 C 902.03 776.76 914.40 769.37 926.00 765.00
C 911.35 791.51 893.79 817.00 880.00 844.00
C 887.94 844.77 899.47 837.76 906.68 837.68 C 913.88 837.60 922.98 823.56 928.74 829.26 C 934.51 834.96 920.62 843.24 914.77 845.77 C 908.92 848.30 898.05 852.83 890.98 854.98 C 883.90 857.12 870.47 857.37 867.23 865.23 C 863.98 873.09 859.54 879.39 856.08 887.08 C 852.62 894.76 848.94 901.54 845.23 909.23 C 841.52 916.92 839.20 924.68 835.68 932.68 C 832.15 940.68 829.84 948.41 827.07 957.07 C 824.31 965.73 822.81 977.46 823.00 987.00 C 823.19 996.54 826.51 1004.46 836.03 1006.98 C 845.54 1009.49 854.61 1005.35 863.22 1003.22 C 871.84 1001.10 877.27 994.90 885.08 992.08 C 892.89 989.27 895.79 979.81 903.25 977.25 C 910.71 974.69 903.39 992.12 896.30 994.30 C 889.21 996.49 884.39 1005.13 876.77 1007.77 C 869.15 1010.41 862.04 1015.56 853.93 1017.93 C 845.81 1020.29 835.91 1024.02 826.98 1023.98 C 818.04 1023.93 810.14 1020.64 803.75 1014.25 C 797.37 1007.86 793.28 1001.67 791.02 992.98 C 788.77 984.28 787.09 972.65 788.33 963.33 C 789.57 954.01 791.78 944.75 793.98 935.98 C 796.18 927.20 799.77 919.95 802.77 911.77 C 805.77 903.59 809.02 896.51 812.77 888.77 C 816.52 881.03 819.40 873.35 824.00 866.00
C 811.97 866.17 800.24 867.63 788.00 867.00
C 779.51 867.82 769.42 867.81 761.00 867.00
C 745.98 867.00 730.80 866.66 716.00 866.00 C 701.20 865.34 685.61 864.74 671.00 864.00 C 656.39 863.26 640.11 864.18 626.00 863.00 C 611.89 861.82 609.17 876.90 602.25 886.25 C 595.33 895.59 591.15 906.42 585.08 916.08 C 579.00 925.73 573.84 935.44 568.23 945.23 C 562.62 955.02 557.30 966.29 552.08 976.08 C 546.86 985.87 541.01 997.93 536.23 1007.23 C 531.45 1016.53 513.63 1026.88 506.70 1016.30 C 499.76 1005.73 511.76 991.76 515.77 981.77 C 519.78 971.78 526.73 960.65 531.77 950.77 C 536.81 940.89 542.75 931.08 548.25 921.25 C 553.76 911.43 559.69 901.18 565.31 891.31 C 570.92 881.43 577.71 872.10 583.00 862.00
C 571.39 861.40 558.10 862.40 547.00 863.00 C 535.90 863.60 521.96 863.51 511.99 865.99 C 502.02 868.48 493.12 870.73 485.30 876.30 C 477.49 881.87 469.54 885.40 465.70 894.70 C 461.85 903.99 447.18 908.10 451.77 897.77 C 456.36 887.44 462.65 884.84 468.75 876.75 C 474.86 868.67 480.77 865.26 488.08 859.08 C 495.39 852.90 502.54 848.24 511.68 844.68 C 520.82 841.12 530.78 838.48 541.22 837.22 C 551.66 835.96 565.93 834.27 577.00 835.00 C 588.07 835.73 601.32 836.74 605.77 826.77 C 610.22 816.80 616.45 812.75 620.77 803.77 C 625.09 794.79 630.94 789.81 635.25 781.25 C 639.57 772.69 644.65 765.47 652.75 760.75 C 660.85 756.02 666.34 749.06 672.00 742.00
C 675.56 747.73 675.01 756.99 682.00 761.00
C 667.19 786.50 649.63 810.80 634.00 836.00
C 682.96 838.79 730.64 846.74 780.00 848.00
M 419.00 856.00 
C 421.69 850.64 424.32 845.36 427.00 840.00
C 471.72 837.30 506.49 798.54 524.00 760.00
C 530.49 769.17 529.63 780.25 522.70 788.70 C 515.76 797.14 511.96 805.74 504.25 813.25 C 496.54 820.75 491.28 827.38 482.75 833.75 C 474.23 840.13 466.11 845.61 455.77 849.77 C 445.43 853.94 430.74 856.07 419.00 856.00
M 421.00 835.00 
C 405.59 874.72 382.37 915.79 388.00 960.00
C 372.53 958.88 373.85 940.54 376.98 928.98 C 380.10 917.41 376.07 902.23 369.00 893.00
C 362.08 902.14 357.14 912.80 351.70 922.70 C 346.25 932.59 341.78 945.75 332.00 951.00
C 332.29 925.67 353.35 907.86 366.00 888.00
C 361.30 884.10 355.55 878.01 348.78 881.78 C 342.01 885.55 344.04 895.42 342.00 901.00
C 336.46 895.11 335.77 879.62 344.08 875.08 C 352.39 870.54 364.15 878.83 368.00 886.00
C 377.61 878.37 383.85 867.17 393.25 859.25 C 402.65 851.32 409.38 838.04 421.00 835.00 Z"/>
</g>
<g fill="#000000" fill-opacity="1.00" stroke="None">
<path d="
M 1026.00 630.00 
C 1031.59 623.95 1036.35 616.85 1041.75 610.75 C 1047.16 604.66 1052.45 598.81 1057.75 592.75 C 1063.05 586.70 1068.28 580.61 1073.75 574.75 C 1079.22 568.89 1084.50 562.84 1090.25 557.25 C 1095.99 551.65 1100.53 544.89 1106.75 539.75 C 1112.97 534.61 1117.42 527.46 1123.92 522.92 C 1130.41 518.38 1135.12 510.96 1141.92 506.92 C 1148.71 502.87 1153.69 494.82 1161.30 492.30 C 1168.92 489.79 1178.92 477.66 1168.01 477.01 C 1157.10 476.36 1152.69 484.28 1144.08 487.08 C 1135.46 489.87 1129.09 495.48 1121.70 499.70 C 1114.31 503.91 1108.40 508.87 1101.75 513.75 C 1095.11 518.63 1088.96 523.53 1082.75 528.75 C 1076.55 533.97 1070.72 539.43 1064.75 544.75 C 1058.78 550.07 1052.69 555.35 1047.25 561.25 C 1041.80 567.15 1035.33 572.13 1030.25 578.25 C 1025.16 584.37 1019.10 589.78 1013.77 595.77 C 1008.44 601.76 1003.16 607.77 997.77 613.77 C 992.38 619.77 987.60 626.21 982.25 632.25 C 976.89 638.29 971.99 644.66 967.00 651.00
C 981.06 653.16 986.19 642.65 994.30 633.30 C 1002.41 623.95 1016.02 623.22 1026.00 630.00 Z"/>
</g>
<g fill="#000000" fill-opacity="1.00" stroke="None">
<path d="
M 666.00 509.00 
C 669.77 508.63 674.29 508.64 678.00 509.00
C 717.38 501.51 751.59 536.06 744.00 573.00 C 736.41 609.93 724.99 634.61 706.00 666.00
C 720.27 675.68 727.65 656.75 742.33 655.33 C 757.00 653.91 762.12 639.17 768.70 626.69 C 775.27 614.22 779.80 599.23 781.67 584.67 C 783.54 570.11 781.09 550.93 773.30 538.70 C 765.52 526.46 757.74 519.25 745.23 511.77 C 732.72 504.29 720.03 500.15 705.07 496.93 C 690.11 493.71 669.32 493.78 653.00 494.00 C 636.68 494.22 618.06 496.09 602.67 498.67 C 587.28 501.25 572.21 504.45 558.02 509.02 C 543.83 513.60 530.36 517.25 517.23 523.23 C 504.10 529.21 492.86 534.40 481.00 542.00
C 492.36 541.67 505.96 541.98 515.98 546.02 C 525.99 550.07 532.29 540.88 541.77 537.77 C 551.25 534.66 558.43 529.06 568.32 526.32 C 578.21 523.58 587.97 519.56 598.33 517.33 C 608.69 515.10 619.10 512.60 630.00 511.00 C 640.90 509.40 654.55 509.00 666.00 509.00 Z"/>
</g>
<g fill="#727272" fill-opacity="1.00" stroke="None">
<path d="
M 666.00 509.00 
C 670.00 509.00 674.00 509.00 678.00 509.00
C 674.29 508.64 669.77 508.63 666.00 509.00 Z"/>
</g>
<g fill="#000000" fill-opacity="1.00" stroke="None">
<path d="
M 698.00 549.00 
C 686.12 550.39 676.08 558.99 666.70 565.70 C 657.31 572.41 649.71 580.11 641.25 588.25 C 632.78 596.39 626.24 605.03 618.75 613.75 C 611.26 622.47 604.71 630.55 597.92 639.92 C 591.13 649.29 585.16 658.57 578.31 668.31 C 571.45 678.04 567.74 688.12 559.92 697.92 C 552.11 707.73 531.06 701.71 518.07 701.93 C 505.09 702.14 488.81 696.20 475.00 698.00
C 481.03 686.10 488.98 675.65 496.23 664.23 C 503.48 652.81 510.54 642.44 517.75 630.75 C 524.95 619.05 533.90 608.43 536.00 594.00 C 538.10 579.57 528.60 565.41 514.68 560.32 C 500.76 555.23 479.92 555.11 465.02 557.02 C 450.13 558.94 436.14 564.45 423.02 570.03 C 409.91 575.60 399.91 582.22 389.08 591.08 C 378.25 599.94 370.28 607.67 362.30 619.30 C 354.33 630.94 348.75 644.68 347.00 659.00 C 345.25 673.32 349.64 690.39 361.75 699.25 C 373.87 708.10 392.55 707.34 404.92 700.92 C 417.29 694.51 424.70 683.60 431.23 672.23 C 437.76 660.86 442.09 637.77 428.00 632.00
C 435.78 644.02 432.68 660.37 425.92 671.92 C 419.17 683.48 411.48 691.80 399.02 697.02 C 386.57 702.24 367.26 699.17 362.93 685.07 C 358.59 670.97 362.50 654.56 368.23 642.23 C 373.96 629.90 380.45 621.19 389.08 611.08 C 397.72 600.97 405.07 593.83 415.92 585.92 C 426.77 578.00 437.06 573.26 450.32 568.32 C 463.59 563.39 480.73 562.26 496.00 562.00 C 511.27 561.74 522.50 573.46 520.00 588.00 C 517.50 602.54 512.41 613.39 505.30 625.31 C 498.20 637.22 492.83 646.21 485.77 657.77 C 478.72 669.33 472.83 677.88 465.77 689.77 C 458.71 701.66 436.53 695.20 425.07 701.07 C 413.61 706.95 403.26 713.56 399.00 726.00
C 412.73 709.89 433.18 706.23 454.00 708.00
C 448.24 715.51 445.71 723.26 439.92 730.92 C 434.14 738.59 434.11 747.47 426.92 754.92 C 419.74 762.38 421.85 778.83 431.75 770.75 C 441.65 762.67 438.76 756.04 445.08 747.08 C 451.41 738.12 452.91 733.00 458.25 723.25 C 463.58 713.49 468.46 707.27 481.00 709.00 C 493.54 710.73 504.82 708.62 517.00 710.00 C 529.18 711.37 540.86 708.97 553.00 710.00
C 546.33 726.32 532.02 748.40 541.25 766.75 C 550.48 785.11 582.24 769.34 587.00 756.00
C 579.30 759.42 567.57 773.44 557.23 767.77 C 546.89 762.10 555.84 744.18 558.69 735.69 C 561.54 727.21 568.85 715.70 572.00 707.00
C 577.99 704.59 592.48 704.83 596.22 698.22 C 599.96 691.62 579.79 701.17 576.00 701.00
C 582.57 689.52 589.57 677.78 596.70 666.70 C 603.82 655.61 611.46 644.80 619.25 634.25 C 627.03 623.69 635.63 613.98 643.75 603.75 C 651.87 593.53 661.47 585.05 670.25 575.25 C 679.02 565.45 691.01 558.24 698.00 549.00 Z"/>
</g>
<g fill="#000000" fill-opacity="1.00" stroke="None">
<path d="
M 478.00 578.00 
C 469.32 575.62 458.00 580.84 449.68 583.68 C 441.36 586.52 433.83 591.11 426.70 595.70 C 419.56 600.28 413.54 605.42 407.75 611.75 C 401.97 618.08 395.03 623.69 390.92 630.92 C 386.81 638.14 380.26 645.49 378.78 653.78 C 377.30 662.06 369.59 674.51 377.25 682.75 C 384.91 690.99 391.18 675.53 395.25 669.25 C 399.31 662.97 403.44 654.91 409.70 648.70 C 415.96 642.49 411.72 630.33 417.25 623.25 C 422.77 616.17 436.23 619.42 441.25 611.25 C 446.26 603.08 453.38 600.65 459.25 594.25 C 465.12 587.84 471.33 583.12 478.00 578.00 Z"/>
</g>
<g fill="#000000" fill-opacity="1.00" stroke="None">
<path d="
M 1129.00 665.00 
C 1124.40 665.45 1116.12 667.18 1111.00 666.00 C 1105.88 664.82 1096.59 668.59 1093.00 665.00
C 1091.79 663.79 1099.29 654.70 1102.25 651.25 C 1105.20 647.79 1102.52 638.77 1095.03 639.03 C 1087.53 639.28 1087.24 647.34 1082.25 650.25 C 1077.25 653.16 1076.87 662.83 1071.00 664.00 C 1065.13 665.17 1054.19 664.76 1048.00 665.00
C 1043.12 665.70 1034.40 667.20 1029.00 666.00 C 1023.60 664.80 1012.79 668.79 1009.00 665.00
C 1009.01 659.14 1026.59 649.64 1018.25 642.75 C 1009.91 635.87 1002.36 642.48 996.77 651.77 C 991.18 661.06 984.47 666.47 971.01 664.01 C 957.55 661.55 962.18 686.27 976.00 677.00
C 973.50 684.17 969.27 691.10 965.92 697.92 C 962.58 704.74 959.94 711.89 954.25 717.25 C 948.55 722.61 944.50 727.63 938.25 732.25 C 932.00 736.86 927.82 741.75 920.70 745.70 C 913.58 749.65 907.39 754.40 898.00 754.00 C 888.61 753.60 883.61 747.55 884.02 737.02 C 884.43 726.50 891.53 722.92 900.98 722.98 C 910.43 723.03 915.17 716.77 922.92 713.92 C 930.68 711.08 935.23 706.61 941.77 701.77 C 948.31 696.93 952.01 691.66 954.67 683.67 C 957.33 675.68 949.33 666.34 941.02 667.02 C 932.72 667.71 924.42 670.40 917.75 674.75 C 911.07 679.09 906.08 683.16 900.25 688.25 C 894.42 693.34 890.80 699.22 885.75 704.75 C 880.71 710.28 877.65 717.68 873.97 723.97 C 870.30 730.27 864.24 734.37 858.08 739.08 C 851.92 743.79 845.85 747.37 838.02 750.02 C 830.20 752.67 821.80 750.56 816.25 742.75 C 810.70 734.95 810.08 731.66 806.78 721.22 C 803.47 710.79 814.02 714.64 823.00 716.00 C 831.98 717.36 842.06 714.66 849.77 711.77 C 857.48 708.88 862.92 705.12 869.30 700.30 C 875.69 695.48 880.31 689.24 881.00 681.00 C 881.69 672.76 875.75 666.21 868.74 662.26 C 861.73 658.30 850.56 660.63 843.07 663.07 C 835.59 665.52 828.36 669.25 821.00 672.00
C 831.46 656.40 845.65 641.18 857.08 626.08 C 868.51 610.98 846.79 615.02 841.25 622.25 C 835.71 629.47 827.85 636.83 822.75 644.75 C 817.66 652.68 810.63 660.52 805.75 668.75 C 800.87 676.99 794.31 684.23 789.75 692.75 C 785.20 701.27 778.05 708.22 771.77 715.77 C 765.49 723.32 758.84 728.73 751.23 735.23 C 743.62 741.73 734.80 746.13 726.08 751.08 C 717.35 756.02 700.20 755.27 699.00 743.00 C 697.80 730.73 705.20 723.49 710.70 714.70 C 716.19 705.90 721.47 698.83 729.92 692.92 C 738.37 687.01 745.47 679.97 756.00 679.00
C 749.08 685.07 747.35 702.88 758.78 699.78 C 770.20 696.67 772.77 684.51 769.92 675.08 C 767.08 665.65 751.75 666.27 743.70 669.70 C 735.64 673.12 727.81 678.89 720.75 684.75 C 713.68 690.60 708.62 696.31 702.75 703.75 C 696.88 711.19 692.05 718.55 688.93 727.93 C 685.81 737.30 686.58 749.05 695.77 755.23 C 704.96 761.41 715.69 760.68 724.92 756.92 C 734.16 753.17 741.19 748.41 748.92 742.92 C 756.65 737.43 762.11 732.63 769.00 726.00
C 763.88 735.73 754.58 754.52 772.00 757.00
C 776.96 746.13 782.30 733.35 790.00 725.00
C 796.25 739.25 806.90 759.10 824.99 759.99 C 843.09 760.89 857.67 746.44 871.00 736.00
C 868.47 758.90 897.54 764.29 912.77 755.77 C 928.00 747.25 939.81 738.48 953.00 727.00
C 946.11 740.47 953.98 758.11 969.00 758.00 C 984.02 757.89 995.93 753.34 1007.92 746.92 C 1019.92 740.51 1026.41 734.07 1037.00 726.00
C 1031.96 736.85 1034.81 754.82 1047.78 757.22 C 1060.75 759.62 1074.56 755.53 1085.31 750.31 C 1096.05 745.08 1104.78 739.99 1113.25 732.25 C 1121.71 724.51 1130.28 717.15 1134.00 707.00
C 1124.98 712.16 1116.67 721.73 1108.75 728.75 C 1100.83 735.78 1089.06 743.12 1080.03 747.03 C 1070.99 750.93 1048.76 757.47 1045.00 745.00 C 1041.24 732.53 1052.17 720.95 1056.70 710.70 C 1061.22 700.44 1067.01 690.87 1075.25 682.25 C 1083.49 673.62 1101.39 675.86 1113.00 673.00 C 1124.61 670.14 1140.89 671.70 1152.00 666.00
C 1145.33 664.17 1136.50 665.00 1129.00 665.00
M 797.00 708.00 
C 801.20 696.39 807.04 690.84 817.23 683.23 C 827.42 675.62 834.46 673.88 847.22 668.22 C 859.99 662.57 873.73 673.59 863.08 685.08 C 852.43 696.57 847.56 695.97 835.32 702.32 C 823.09 708.67 810.75 709.75 797.00 708.00
M 1045.00 671.00 
C 1045.87 678.09 1054.45 679.26 1060.00 677.00
C 1055.13 688.29 1049.81 698.12 1044.23 709.23 C 1038.65 720.34 1029.03 724.03 1019.92 732.92 C 1010.80 741.81 999.65 743.45 987.93 749.93 C 976.20 756.40 955.91 748.39 961.99 733.99 C 968.07 719.60 970.72 712.68 978.25 701.25 C 985.79 689.83 988.30 679.77 1002.02 677.02 C 1015.75 674.28 1031.10 673.54 1045.00 671.00
M 893.00 717.00 
C 901.97 701.08 917.26 688.02 932.23 678.23 C 947.20 668.44 950.56 681.96 943.08 690.08 C 935.60 698.20 931.04 702.95 922.30 708.30 C 913.57 713.65 903.12 718.67 893.00 717.00 Z"/>
</g>
<g fill="#000000" fill-opacity="1.00" stroke="None">
<path d="
M 705.00 681.00 
C 698.05 684.78 682.10 689.20 686.00 678.00 C 689.90 666.80 679.85 658.44 671.02 659.02 C 662.20 659.61 655.40 665.65 649.25 671.25 C 643.10 676.84 638.46 681.98 633.25 688.25 C 628.04 694.52 623.26 700.83 618.77 707.77 C 614.28 714.71 610.10 722.87 607.98 730.98 C 605.85 739.08 608.14 750.19 615.92 755.08 C 623.71 759.96 634.74 755.86 641.75 751.75 C 648.77 747.65 654.11 741.42 659.25 735.25 C 664.39 729.08 670.56 723.49 674.70 716.70 C 678.83 709.91 685.09 702.11 683.00 694.00
C 690.60 690.25 699.83 688.58 705.00 681.00
M 666.00 682.00 
C 669.01 683.21 671.24 690.39 674.75 693.25 C 678.27 696.10 674.91 703.19 671.70 707.70 C 668.49 712.21 668.49 714.05 663.23 720.23 C 657.97 726.41 650.50 735.91 643.75 740.75 C 637.00 745.60 636.93 746.12 629.99 747.99 C 623.06 749.86 619.55 743.39 620.01 737.99 C 620.46 732.60 622.73 728.00 625.31 723.31 C 627.88 718.61 629.76 714.66 633.30 710.30 C 636.84 705.95 637.47 703.67 642.25 699.25 C 647.03 694.82 657.57 678.62 666.00 682.00 Z"/>
</g>
<g fill="#7B7B7B" fill-opacity="1.00" stroke="None">
<path d="
M 1048.00 665.00 
C 1042.18 665.22 1033.58 665.82 1028.00 665.00 C 1022.42 664.18 1013.63 667.62 1009.00 665.00
C 1012.79 668.79 1023.60 664.80 1029.00 666.00 C 1034.40 667.20 1043.12 665.70 1048.00 665.00 Z"/>
</g>
<g fill="#7D7D7D" fill-opacity="1.00" stroke="None">
<path d="
M 1129.00 665.00 
C 1123.67 665.00 1116.10 665.94 1111.00 665.00 C 1105.90 664.06 1097.28 667.50 1093.00 665.00
C 1096.59 668.59 1105.88 664.82 1111.00 666.00 C 1116.12 667.18 1124.40 665.45 1129.00 665.00 Z"/>
</g>
<g fill="#FAFAFA" fill-opacity="1.00" stroke="None">
<path d="
M 797.00 708.00 
C 810.75 709.75 823.09 708.67 835.32 702.32 C 847.56 695.97 852.43 696.57 863.08 685.08 C 873.73 673.59 859.99 662.57 847.22 668.22 C 834.46 673.88 827.42 675.62 817.23 683.23 C 807.04 690.84 801.20 696.39 797.00 708.00 Z"/>
</g>
<g fill="#FCFCFC" fill-opacity="1.00" stroke="None">
<path d="
M 1045.00 671.00 
C 1031.10 673.54 1015.75 674.28 1002.02 677.02 C 988.30 679.77 985.79 689.83 978.25 701.25 C 970.72 712.68 968.07 719.60 961.99 733.99 C 955.91 748.39 976.20 756.40 987.93 749.93 C 999.65 743.45 1010.80 741.81 1019.92 732.92 C 1029.03 724.03 1038.65 720.34 1044.23 709.23 C 1049.81 698.12 1055.13 688.29 1060.00 677.00
C 1054.45 679.26 1045.87 678.09 1045.00 671.00 Z"/>
</g>
<g fill="#F9F9F9" fill-opacity="1.00" stroke="None">
<path d="
M 893.00 717.00 
C 903.12 718.67 913.57 713.65 922.30 708.30 C 931.04 702.95 935.60 698.20 943.08 690.08 C 950.56 681.96 947.20 668.44 932.23 678.23 C 917.26 688.02 901.97 701.08 893.00 717.00 Z"/>
</g>
<g fill="#000000" fill-opacity="1.00" stroke="None">
<path d="
M 536.00 689.00 
C 535.06 684.92 528.49 671.42 522.26 678.26 C 516.02 685.09 530.04 691.82 536.00 689.00 Z"/>
</g>
<g fill="#FBFBFB" fill-opacity="1.00" stroke="None">
<path d="
M 666.00 682.00 
C 657.57 678.62 647.03 694.82 642.25 699.25 C 637.47 703.67 636.84 705.95 633.30 710.30 C 629.76 714.66 627.88 718.61 625.31 723.31 C 622.73 728.00 620.46 732.60 620.01 737.99 C 619.55 743.39 623.06 749.86 629.99 747.99 C 636.93 746.12 637.00 745.60 643.75 740.75 C 650.50 735.91 657.97 726.41 663.23 720.23 C 668.49 714.05 668.49 712.21 671.70 707.70 C 674.91 703.19 678.27 696.10 674.75 693.25 C 671.24 690.39 669.01 683.21 666.00 682.00 Z"/>
</g>
<g fill="#000000" fill-opacity="1.00" stroke="None">
<path d="
M 371.00 718.00 
C 356.55 716.32 344.61 704.30 338.00 692.00
C 332.45 703.32 330.65 714.63 327.93 726.93 C 325.21 739.22 324.73 755.01 325.00 768.00 C 325.27 780.99 328.72 792.61 333.03 803.98 C 337.33 815.34 342.58 822.22 350.75 831.25 C 358.92 840.28 366.31 843.71 376.78 849.22 C 387.24 854.74 397.63 850.92 403.00 839.00
C 347.98 829.09 355.37 756.97 371.00 718.00 Z"/>
</g>
<g fill="#272727" fill-opacity="1.00" stroke="None">
<path d="
M 911.00 736.00 
C 908.83 734.66 903.57 736.23 902.00 739.00
C 905.32 739.01 907.94 736.90 911.00 736.00 Z"/>
</g>
<g fill="#000000" fill-opacity="1.00" stroke="None">
<path d="
M 761.00 867.00 
C 770.00 867.00 779.00 867.00 788.00 867.00
C 800.24 867.63 811.97 866.17 824.00 866.00
C 819.40 873.35 816.52 881.03 812.77 888.77 C 809.02 896.51 805.77 903.59 802.77 911.77 C 799.77 919.95 796.18 927.20 793.98 935.98 C 791.78 944.75 789.57 954.01 788.33 963.33 C 787.09 972.65 788.77 984.28 791.02 992.98 C 793.28 1001.67 797.37 1007.86 803.75 1014.25 C 810.14 1020.64 818.04 1023.93 826.98 1023.98 C 835.91 1024.02 845.81 1020.29 853.93 1017.93 C 862.04 1015.56 869.15 1010.41 876.77 1007.77 C 884.39 1005.13 889.21 996.49 896.30 994.30 C 903.39 992.12 910.71 974.69 903.25 977.25 C 895.79 979.81 892.89 989.27 885.08 992.08 C 877.27 994.90 871.84 1001.10 863.22 1003.22 C 854.61 1005.35 845.54 1009.49 836.03 1006.98 C 826.51 1004.46 823.19 996.54 823.00 987.00 C 822.81 977.46 824.31 965.73 827.07 957.07 C 829.84 948.41 832.15 940.68 835.68 932.68 C 839.20 924.68 841.52 916.92 845.23 909.23 C 848.94 901.54 852.62 894.76 856.08 887.08 C 859.54 879.39 863.98 873.09 867.23 865.23 C 870.47 857.37 883.90 857.12 890.98 854.98 C 898.05 852.83 908.92 848.30 914.77 845.77 C 920.62 843.24 934.51 834.96 928.74 829.26 C 922.98 823.56 913.88 837.60 906.68 837.68 C 899.47 837.76 887.94 844.77 880.00 844.00
C 893.79 817.00 911.35 791.51 926.00 765.00
C 914.40 769.37 902.03 776.76 889.00 773.00 C 875.98 769.24 873.11 785.71 866.31 794.31 C 859.50 802.90 855.48 815.02 848.77 823.77 C 842.06 832.52 839.34 847.75 827.00 848.00
C 812.35 849.77 794.58 849.41 780.00 848.00
C 730.64 846.74 682.96 838.79 634.00 836.00
C 649.63 810.80 667.19 786.50 682.00 761.00
C 675.01 756.99 675.56 747.73 672.00 742.00
C 666.34 749.06 660.85 756.02 652.75 760.75 C 644.65 765.47 639.57 772.69 635.25 781.25 C 630.94 789.81 625.09 794.79 620.77 803.77 C 616.45 812.75 610.22 816.80 605.77 826.77 C 601.32 836.74 588.07 835.73 577.00 835.00 C 565.93 834.27 551.66 835.96 541.22 837.22 C 530.78 838.48 520.82 841.12 511.68 844.68 C 502.54 848.24 495.39 852.90 488.08 859.08 C 480.77 865.26 474.86 868.67 468.75 876.75 C 462.65 884.84 456.36 887.44 451.77 897.77 C 447.18 908.10 461.85 903.99 465.70 894.70 C 469.54 885.40 477.49 881.87 485.30 876.30 C 493.12 870.73 502.02 868.48 511.99 865.99 C 521.96 863.51 535.90 863.60 547.00 863.00 C 558.10 862.40 571.39 861.40 583.00 862.00
C 577.71 872.10 570.92 881.43 565.31 891.31 C 559.69 901.18 553.76 911.43 548.25 921.25 C 542.75 931.08 536.81 940.89 531.77 950.77 C 526.73 960.65 519.78 971.78 515.77 981.77 C 511.76 991.76 499.76 1005.73 506.70 1016.30 C 513.63 1026.88 531.45 1016.53 536.23 1007.23 C 541.01 997.93 546.86 985.87 552.08 976.08 C 557.30 966.29 562.62 955.02 568.23 945.23 C 573.84 935.44 579.00 925.73 585.08 916.08 C 591.15 906.42 595.33 895.59 602.25 886.25 C 609.17 876.90 611.89 861.82 626.00 863.00 C 640.11 864.18 656.39 863.26 671.00 864.00 C 685.61 864.74 701.20 865.34 716.00 866.00 C 730.80 866.66 745.98 867.00 761.00 867.00 Z"/>
</g>
<g fill="#000000" fill-opacity="1.00" stroke="None">
<path d="
M 419.00 856.00 
C 430.74 856.07 445.43 853.94 455.77 849.77 C 466.11 845.61 474.23 840.13 482.75 833.75 C 491.28 827.38 496.54 820.75 504.25 813.25 C 511.96 805.74 515.76 797.14 522.70 788.70 C 529.63 780.25 530.49 769.17 524.00 760.00
C 506.49 798.54 471.72 837.30 427.00 840.00
C 424.32 845.36 421.69 850.64 419.00 856.00 Z"/>
</g>
<g fill="#000000" fill-opacity="1.00" stroke="None">
<path d="
M 421.00 835.00 
C 409.38 838.04 402.65 851.32 393.25 859.25 C 383.85 867.17 377.61 878.37 368.00 886.00
C 364.15 878.83 352.39 870.54 344.08 875.08 C 335.77 879.62 336.46 895.11 342.00 901.00
C 344.04 895.42 342.01 885.55 348.78 881.78 C 355.55 878.01 361.30 884.10 366.00 888.00
C 353.35 907.86 332.29 925.67 332.00 951.00
C 341.78 945.75 346.25 932.59 351.70 922.70 C 357.14 912.80 362.08 902.14 369.00 893.00
C 376.07 902.23 380.10 917.41 376.98 928.98 C 373.85 940.54 372.53 958.88 388.00 960.00
C 382.37 915.79 405.59 874.72 421.00 835.00
M 401.00 859.00 
C 394.13 875.76 386.30 892.32 382.00 910.00
C 375.82 902.59 369.02 888.93 378.25 881.25 C 387.48 873.56 390.64 864.46 401.00 859.00 Z"/>
</g>
<g fill="#8E8E8E" fill-opacity="1.00" stroke="None">
<path d="
M 827.00 848.00 
C 811.35 848.31 795.66 848.00 780.00 848.00
C 794.58 849.41 812.35 849.77 827.00 848.00 Z"/>
</g>
<g fill="#F7F7F7" fill-opacity="1.00" stroke="None">
<path d="
M 401.00 859.00 
C 390.64 864.46 387.48 873.56 378.25 881.25 C 369.02 888.93 375.82 902.59 382.00 910.00
C 386.30 892.32 394.13 875.76 401.00 859.00 Z"/>
</g>
<g fill="#909090" fill-opacity="1.00" stroke="None">
<path d="
M 788.00 867.00 
C 779.00 867.00 770.00 867.00 761.00 867.00
C 769.42 867.81 779.51 867.82 788.00 867.00 Z"/>
</g>
</svg>