<svg xmlns="http://www.w3.org/2000/svg" xmlns:v="https://svgstorm.com"
viewBox = "0 0 1500 1500"
width="1500"
height="1500">
<g fill="None" fill-opacity="0.0" stroke="#000000" stroke-opacity="0.00" stroke-width="0.3"><path d="
M 0.00 1500.00 
L 1500.00 1500.00
L 1500.00 0.00
L 0.00 0.00
L 0.00 1500.00
M 980.00 649.00 
C 976.88 650.31 972.78 650.09 969.00 650.00
C 969.11 649.00 968.53 647.27 970.00 647.00
C 972.67 640.25 980.11 636.59 983.19 630.75 C 986.28 624.91 993.24 620.96 997.25 615.25 C 1001.26 609.53 1006.46 604.58 1011.23 599.23 C 1016.00 593.88 1020.93 588.30 1026.25 583.25 C 1031.57 578.20 1037.88 571.42 1043.25 566.25 C 1048.62 561.08 1055.02 554.21 1060.25 549.25 C 1065.48 544.29 1070.27 539.77 1075.75 535.74 C 1081.24 531.70 1086.68 524.54 1092.30 520.30 C 1097.92 516.06 1103.69 512.54 1109.08 509.08 C 1114.47 505.62 1120.89 498.87 1126.92 495.92 C 1132.94 492.96 1138.72 488.03 1146.70 485.70 C 1154.67 483.36 1160.55 475.30 1169.03 476.03 C 1177.50 476.75 1170.09 488.94 1163.75 489.80 C 1157.42 490.66 1152.52 499.50 1147.23 502.57 C 1141.94 505.64 1136.39 510.30 1131.25 515.25 C 1126.10 520.20 1120.48 525.01 1115.25 530.25 C 1110.02 535.48 1102.89 541.75 1098.25 547.25 C 1093.60 552.75 1088.26 558.50 1082.75 563.75 C 1077.24 569.01 1074.51 574.39 1069.61 579.75 C 1064.70 585.11 1058.94 590.09 1054.41 595.75 C 1049.88 601.42 1044.77 606.54 1040.25 612.25 C 1035.74 617.97 1029.45 624.21 1026.00 630.00
C 1018.86 622.05 1006.14 623.45 998.25 629.25 C 990.36 635.06 986.93 642.75 980.00 649.00
M 687.00 494.00 
C 708.85 497.88 731.08 501.62 750.23 514.77 C 769.38 527.92 778.44 542.04 782.00 564.00
C 782.98 570.03 782.97 577.04 782.00 583.00
C 778.26 606.11 767.62 632.69 754.00 653.00
C 741.08 652.29 726.66 660.93 717.00 669.00
C 713.39 667.90 710.85 663.84 707.00 666.00
C 716.75 646.66 730.57 627.52 737.30 605.30 C 744.03 583.08 753.64 553.47 739.08 531.92 C 724.52 510.37 698.25 507.07 671.00 507.00 C 643.75 506.94 615.01 512.30 592.30 518.64 C 569.59 524.98 546.46 532.33 525.00 547.00
C 510.29 542.14 497.51 540.93 482.00 541.00
C 496.09 532.57 512.69 526.23 530.69 518.69 C 548.70 511.16 561.88 507.49 582.75 502.41 C 603.63 497.33 622.73 496.27 645.00 494.00
C 656.98 491.43 675.06 491.88 687.00 494.00
M 545.00 709.00 
C 537.36 710.64 526.57 710.62 519.00 709.00
C 511.72 707.44 504.86 709.07 497.00 709.00 C 489.14 708.93 484.17 706.01 475.78 707.78 C 467.39 709.54 466.50 708.24 462.25 716.25 C 457.99 724.26 452.29 734.28 447.87 741.92 C 443.45 749.56 437.49 763.64 432.24 770.59 C 427.00 777.54 420.46 768.93 423.71 764.71 C 426.95 760.48 429.96 752.89 431.77 748.77 C 433.58 744.65 436.78 739.91 438.77 735.77 C 440.76 731.63 444.57 726.64 445.59 723.25 C 446.62 719.87 456.32 711.74 454.00 708.00
C 449.02 707.75 443.98 708.34 439.00 708.00
C 430.20 707.40 423.34 708.89 416.75 711.19 C 410.15 713.49 406.01 722.48 399.00 725.00
C 406.78 710.47 426.00 696.45 443.00 697.00
C 447.94 696.20 456.97 697.76 462.00 696.00
C 471.20 691.09 471.64 678.15 477.59 672.25 C 483.53 666.35 487.59 655.11 492.92 647.92 C 498.24 640.72 501.35 632.14 506.71 624.70 C 512.08 617.25 517.12 605.61 519.12 598.10 C 521.11 590.59 524.82 576.00 517.25 568.75 C 509.67 561.51 499.24 560.57 488.11 561.11 C 476.98 561.65 464.88 563.23 456.08 566.13 C 447.28 569.03 436.72 572.56 428.25 577.39 C 419.77 582.23 413.02 588.10 405.23 594.57 C 397.44 601.04 389.93 608.58 384.87 615.92 C 379.81 623.26 371.88 632.80 368.23 642.23 C 364.58 651.66 360.90 663.45 361.00 674.00 C 361.10 684.55 366.11 694.52 377.08 697.06 C 388.05 699.61 399.28 699.09 408.08 693.07 C 416.89 687.05 420.94 680.21 426.71 672.70 C 432.49 665.18 433.83 652.16 434.00 641.00
C 430.36 638.83 430.90 635.47 429.00 632.00
C 436.68 631.10 439.11 646.62 438.00 655.00 C 436.89 663.38 433.26 669.33 428.75 676.75 C 424.23 684.17 420.04 688.89 413.25 694.39 C 406.45 699.89 403.78 701.82 394.10 704.12 C 384.42 706.42 372.97 704.02 366.70 700.29 C 360.43 696.56 353.04 688.00 350.79 680.77 C 348.54 673.54 347.24 662.45 348.78 653.78 C 350.33 645.10 353.51 638.17 356.77 630.77 C 360.03 623.36 362.71 620.21 368.25 613.25 C 373.79 606.29 378.36 600.09 385.25 594.81 C 392.15 589.54 396.93 584.66 403.75 580.74 C 410.57 576.81 415.16 573.44 422.75 570.60 C 430.33 567.76 437.98 562.92 446.67 561.67 C 455.37 560.42 466.89 555.94 476.00 556.00
C 482.99 554.50 492.08 554.76 499.00 556.00
C 510.04 557.97 523.04 561.14 531.75 572.25 C 540.46 583.36 535.98 596.22 531.41 607.75 C 526.83 619.28 518.51 628.48 513.09 638.10 C 507.68 647.72 498.48 658.73 492.75 668.75 C 487.01 678.76 479.39 686.85 476.00 698.00
C 490.02 696.27 505.11 701.10 517.89 701.11 C 530.68 701.12 553.71 708.69 561.71 696.71 C 569.70 684.72 572.03 678.77 578.92 668.92 C 585.81 659.06 593.45 647.44 599.24 639.23 C 605.02 631.02 611.70 623.12 618.75 614.75 C 625.80 606.39 631.61 598.57 640.75 589.75 C 649.89 580.93 658.04 572.06 666.75 565.75 C 675.46 559.45 685.01 553.05 697.00 548.00
C 694.26 556.52 684.88 559.47 677.75 566.75 C 670.62 574.03 662.77 581.95 657.20 589.25 C 651.63 596.55 642.77 602.93 637.25 610.25 C 631.73 617.57 628.35 622.95 622.81 630.25 C 617.26 637.55 612.60 642.48 606.76 650.77 C 600.93 659.06 596.10 667.82 591.81 675.25 C 587.51 682.67 580.20 692.80 576.00 700.00
C 582.11 699.30 590.88 699.61 595.00 693.00
C 600.89 695.56 593.14 700.16 588.77 701.77 C 584.40 703.38 578.28 706.46 574.00 705.00
C 564.38 724.07 552.67 740.61 553.00 764.00
C 564.87 773.84 575.81 763.52 588.00 756.00
C 578.79 770.15 547.90 784.30 541.81 762.75 C 535.71 741.21 545.59 728.97 555.00 709.00
C 551.89 709.04 547.54 706.34 545.00 709.00
M 479.00 577.00 
C 463.87 588.04 447.69 602.69 435.00 618.00
C 421.70 612.42 409.45 628.83 416.00 642.00
C 408.21 647.51 404.34 657.22 398.25 664.25 C 392.16 671.27 391.81 685.37 379.00 684.00
C 372.92 666.81 381.82 643.92 391.39 630.25 C 400.97 616.57 414.51 604.35 428.25 595.20 C 441.98 586.05 461.37 576.99 479.00 577.00
M 834.00 715.00 
C 830.29 715.55 826.66 715.59 823.00 715.00
C 817.24 714.07 812.90 713.98 807.00 711.00
C 805.68 722.67 809.12 734.58 818.75 745.25 C 828.39 755.92 843.82 748.27 852.77 742.43 C 861.72 736.59 873.69 728.16 878.77 716.77 C 883.86 705.39 890.33 698.34 901.25 688.25 C 912.16 678.16 917.75 673.48 930.10 668.10 C 942.44 662.72 961.19 673.46 953.29 686.30 C 945.39 699.14 940.78 703.41 928.30 710.30 C 915.83 717.19 904.00 724.15 888.00 723.00
C 880.56 736.05 884.15 752.71 898.01 753.01 C 911.87 753.30 921.43 745.95 931.92 736.92 C 942.41 727.88 949.69 723.68 958.25 713.25 C 966.80 702.82 970.02 688.59 977.00 678.00
C 972.29 675.39 966.47 679.31 963.70 673.30 C 960.93 667.30 967.64 664.87 972.00 664.00
C 976.38 662.81 983.72 661.98 988.00 664.00
C 992.61 662.38 995.07 653.20 998.75 650.75 C 1002.43 648.30 1006.63 640.16 1010.00 638.00
C 1012.95 640.54 1020.09 640.81 1021.00 646.00
C 1018.88 652.44 1011.81 657.65 1009.00 664.00
C 1022.38 668.39 1041.68 665.51 1055.00 664.00
C 1059.89 662.99 1068.27 664.45 1073.00 662.00
C 1080.76 656.12 1084.69 644.08 1094.00 638.00
C 1096.68 638.67 1099.78 642.64 1103.00 641.00
C 1108.29 649.13 1097.74 655.05 1093.00 662.00
C 1092.88 662.63 1094.02 664.42 1095.00 665.00
C 1102.49 668.13 1118.37 666.64 1126.00 665.00
C 1130.49 664.04 1135.85 664.00 1141.00 664.00
C 1144.21 664.00 1151.57 662.24 1151.00 667.00
C 1139.51 668.49 1125.61 669.79 1113.90 672.90 C 1102.20 676.02 1085.58 671.32 1076.25 679.25 C 1066.91 687.18 1065.46 696.92 1058.61 707.75 C 1051.75 718.58 1047.65 724.87 1045.66 738.68 C 1043.67 752.48 1063.12 752.65 1073.30 748.29 C 1083.49 743.93 1098.13 739.71 1105.92 730.92 C 1113.71 722.13 1125.61 717.61 1133.00 706.00
C 1131.34 715.91 1119.59 725.78 1111.23 733.57 C 1102.87 741.36 1093.21 745.42 1085.25 749.39 C 1077.28 753.36 1061.68 758.62 1049.00 757.00 C 1036.32 755.38 1032.07 737.31 1038.00 727.00
C 1028.88 728.19 1024.39 736.80 1015.75 741.75 C 1007.12 746.71 998.17 752.11 988.26 754.60 C 978.35 757.08 963.55 759.76 954.00 751.00
C 952.23 742.73 950.78 734.57 953.00 727.00
C 939.71 736.38 932.01 743.82 917.30 752.30 C 902.60 760.79 881.54 762.81 872.00 745.00
C 875.07 740.90 869.56 738.69 872.00 735.00
C 857.81 744.57 843.58 761.03 824.00 759.00 C 804.42 756.97 796.71 734.49 790.00 723.00
C 782.50 733.47 778.55 744.74 771.00 757.00
C 755.72 751.65 766.42 734.99 770.00 724.00
C 757.35 737.42 748.36 742.58 734.75 751.20 C 721.14 759.81 697.45 764.04 688.00 745.00
C 688.19 733.19 689.12 725.74 694.77 716.77 C 700.42 707.80 701.35 704.66 708.09 697.08 C 714.83 689.51 722.22 684.64 729.25 678.25 C 736.27 671.85 741.51 671.74 749.70 667.69 C 757.88 663.64 774.97 672.36 772.00 682.00 C 769.03 691.65 769.13 696.79 757.99 698.99 C 746.85 701.19 751.49 681.75 758.00 679.00
C 747.88 677.90 742.64 683.08 733.25 689.39 C 723.85 695.71 714.47 708.28 709.41 715.75 C 704.36 723.23 693.40 741.47 702.30 749.70 C 711.21 757.92 726.74 752.13 735.70 746.69 C 744.66 741.26 752.70 734.64 761.25 727.25 C 769.79 719.86 780.86 707.86 786.30 699.30 C 791.74 690.74 800.44 678.70 806.75 668.75 C 813.06 658.81 818.74 651.14 825.24 642.23 C 831.74 633.32 840.00 624.36 848.00 615.00
C 853.30 617.13 858.18 613.94 862.00 618.00
C 855.43 628.45 848.19 635.95 841.29 645.30 C 834.39 654.66 824.54 662.31 821.00 673.00
C 834.91 667.84 850.02 656.09 867.08 660.07 C 884.13 664.05 883.95 689.57 871.75 697.75 C 859.56 705.93 848.22 714.00 834.00 715.00
M 687.00 686.00 
C 692.37 683.77 697.28 684.63 703.00 682.00
C 697.28 688.48 690.19 690.17 683.00 693.00
C 684.60 709.00 671.85 719.37 661.25 732.25 C 650.65 745.12 637.76 759.13 618.00 756.00
C 611.43 750.42 605.83 738.91 608.34 730.32 C 610.85 721.74 614.66 716.05 619.13 708.08 C 623.60 700.11 628.36 695.44 633.75 688.75 C 639.15 682.06 643.07 676.07 650.75 670.74 C 658.44 665.40 664.44 657.80 676.02 659.98 C 687.61 662.15 685.40 676.38 687.00 686.00
M 536.00 688.00 
C 528.75 689.49 524.72 686.29 521.00 683.00
C 522.29 669.33 536.48 680.20 536.00 688.00
M 371.00 718.00 
C 362.74 740.02 357.89 768.63 361.02 794.03 C 364.15 819.42 381.36 834.28 403.00 838.00
C 400.97 843.67 394.13 846.84 391.00 852.00
C 360.60 846.52 338.91 821.45 330.41 793.25 C 321.91 765.05 328.14 718.96 338.00 692.00
C 346.26 703.56 354.66 714.49 371.00 718.00
M 835.00 1022.00 
C 830.74 1022.63 826.28 1023.26 822.00 1022.00
C 789.89 1012.52 784.68 973.90 793.26 943.25 C 801.85 912.60 811.54 889.95 825.00 866.00
C 814.86 863.29 803.73 865.98 793.00 866.00
C 782.58 868.23 766.35 868.22 756.00 866.00
C 744.81 863.60 731.99 864.55 720.00 864.00 C 708.01 863.45 694.44 863.00 682.00 863.00
C 676.60 863.52 670.42 864.16 665.00 863.00
C 653.71 860.58 636.52 863.09 625.00 861.00 C 613.48 858.91 609.70 875.32 604.25 882.25 C 598.79 889.17 596.43 897.50 590.70 905.70 C 584.97 913.89 582.33 920.90 576.75 929.75 C 571.16 938.59 567.79 947.05 562.70 955.70 C 557.60 964.34 554.16 972.63 548.70 982.70 C 543.23 992.76 540.60 1001.97 532.75 1010.75 C 524.90 1019.53 514.08 1022.01 506.00 1015.00
C 506.54 998.56 515.34 984.07 520.13 974.08 C 524.92 964.09 533.95 949.33 540.77 936.77 C 547.59 924.21 555.32 910.40 563.30 897.30 C 571.28 884.20 576.74 872.63 585.00 861.00
C 575.60 856.97 566.90 862.71 558.00 862.00 C 549.10 861.29 538.90 861.79 531.33 862.67 C 523.76 863.55 516.05 863.87 509.78 865.22 C 503.50 866.56 499.81 869.32 492.77 871.77 C 485.73 874.22 480.05 879.39 475.23 884.23 C 470.41 889.07 467.47 889.60 464.61 896.75 C 461.74 903.91 447.94 906.51 452.11 898.11 C 456.28 889.71 458.44 891.76 463.75 883.75 C 469.06 875.75 469.92 877.57 477.75 868.75 C 485.59 859.93 500.46 850.09 509.25 845.81 C 518.04 841.53 517.71 842.18 526.23 840.21 C 534.75 838.25 540.24 837.13 548.67 836.67 C 557.11 836.20 564.40 833.88 573.22 834.78 C 582.05 835.68 593.75 834.23 602.00 835.00
C 614.81 811.61 633.48 789.68 644.00 766.00
C 656.17 762.14 662.74 750.50 674.00 742.00
C 671.97 750.66 684.52 759.78 679.81 766.25 C 675.09 772.71 668.70 781.93 664.81 789.25 C 660.91 796.56 653.26 803.83 649.25 811.25 C 645.24 818.68 639.27 827.32 634.00 835.00
C 649.53 837.40 667.13 838.27 682.67 839.67 C 698.21 841.07 713.00 842.97 729.03 844.98 C 745.05 846.98 760.28 846.17 778.01 847.99 C 795.74 849.81 817.96 849.15 835.00 848.00
C 850.01 821.79 864.48 797.92 882.00 771.00
C 896.81 778.16 912.87 771.14 926.00 765.00
C 909.21 792.08 895.44 817.22 879.00 843.00
C 894.81 842.09 912.52 838.64 925.00 827.00
C 930.10 827.56 929.35 831.21 930.00 835.00
C 910.71 849.55 891.59 855.42 871.00 858.00
C 863.43 870.80 855.44 889.38 848.79 903.23 C 842.14 917.08 834.83 931.37 830.94 947.08 C 827.04 962.80 818.37 976.11 824.26 994.75 C 830.15 1013.38 854.62 1007.37 867.07 1002.07 C 879.53 996.77 893.77 987.57 905.00 976.00
C 911.43 984.01 896.43 994.39 890.70 998.70 C 884.97 1003.00 874.39 1007.57 865.31 1012.31 C 856.22 1017.04 844.64 1020.44 835.00 1022.00
M 526.00 760.00 
C 526.61 765.36 527.11 770.59 531.00 773.00
C 520.89 794.01 507.69 811.11 488.25 828.25 C 468.80 845.39 445.25 854.84 421.00 856.00
C 424.24 848.15 423.93 844.23 429.00 839.00
C 474.74 836.98 505.30 797.49 526.00 760.00
M 422.00 835.00 
C 415.22 848.94 407.95 863.75 403.41 876.75 C 398.87 889.75 395.88 899.46 392.79 912.23 C 389.69 925.00 382.62 943.02 389.00 958.00
C 385.88 961.06 383.36 956.82 381.00 958.00
C 375.76 951.24 376.44 941.35 377.71 934.71 C 378.97 928.06 379.37 914.44 377.88 910.10 C 376.40 905.76 374.79 889.82 368.11 894.11 C 361.42 898.40 361.12 907.72 356.23 913.23 C 351.34 918.75 349.92 929.25 345.30 934.30 C 340.68 939.35 340.18 947.79 333.00 951.00
C 331.40 938.73 340.14 926.28 346.77 915.77 C 353.40 905.26 358.35 898.03 368.00 889.00
C 363.11 882.40 359.00 877.47 351.10 880.12 C 343.20 882.77 344.51 893.93 342.00 900.00
C 338.39 893.42 337.38 878.85 346.23 874.23 C 355.08 869.61 362.42 879.32 369.00 886.00
C 383.62 869.36 404.83 849.91 417.00 834.00
C 418.68 835.87 420.30 833.48 422.00 835.00 Z"/>
</g>
<g fill="None" fill-opacity="0.0" stroke="#000000" stroke-opacity="0.99" stroke-width="0.3"><path d="
M 970.00 647.00 
C 970.40 649.85 977.36 649.68 980.00 649.00
C 986.93 642.75 990.36 635.06 998.25 629.25 C 1006.14 623.45 1018.86 622.05 1026.00 630.00
C 1029.45 624.21 1035.74 617.97 1040.25 612.25 C 1044.77 606.54 1049.88 601.42 1054.41 595.75 C 1058.94 590.09 1064.70 585.11 1069.61 579.75 C 1074.51 574.39 1077.24 569.01 1082.75 563.75 C 1088.26 558.50 1093.60 552.75 1098.25 547.25 C 1102.89 541.75 1110.02 535.48 1115.25 530.25 C 1120.48 525.01 1126.10 520.20 1131.25 515.25 C 1136.39 510.30 1141.94 505.64 1147.23 502.57 C 1152.52 499.50 1157.42 490.66 1163.75 489.80 C 1170.09 488.94 1177.50 476.75 1169.03 476.03 C 1160.55 475.30 1154.67 483.36 1146.70 485.70 C 1138.72 488.03 1132.94 492.96 1126.92 495.92 C 1120.89 498.87 1114.47 505.62 1109.08 509.08 C 1103.69 512.54 1097.92 516.06 1092.30 520.30 C 1086.68 524.54 1081.24 531.70 1075.75 535.74 C 1070.27 539.77 1065.48 544.29 1060.25 549.25 C 1055.02 554.21 1048.62 561.08 1043.25 566.25 C 1037.88 571.42 1031.57 578.20 1026.25 583.25 C 1020.93 588.30 1016.00 593.88 1011.23 599.23 C 1006.46 604.58 1001.26 609.53 997.25 615.25 C 993.24 620.96 986.28 624.91 983.19 630.75 C 980.11 636.59 972.67 640.25 970.00 647.00 Z"/>
</g>
<g fill="None" fill-opacity="0.0" stroke="#3A3A3A" stroke-opacity="0.48" stroke-width="0.3"><path d="
M 645.00 494.00 
C 658.40 492.70 673.55 493.21 687.00 494.00
C 675.06 491.88 656.98 491.43 645.00 494.00 Z"/>
</g>
<g fill="None" fill-opacity="0.0" stroke="#000000" stroke-opacity="0.98" stroke-width="0.3"><path d="
M 782.00 583.00 
C 782.27 576.75 782.27 570.25 782.00 564.00
C 778.44 542.04 769.38 527.92 750.23 514.77 C 731.08 501.62 708.85 497.88 687.00 494.00
C 673.55 493.21 658.40 492.70 645.00 494.00
C 622.73 496.27 603.63 497.33 582.75 502.41 C 561.88 507.49 548.70 511.16 530.69 518.69 C 512.69 526.23 496.09 532.57 482.00 541.00
C 497.51 540.93 510.29 542.14 525.00 547.00
C 546.46 532.33 569.59 524.98 592.30 518.64 C 615.01 512.30 643.75 506.94 671.00 507.00 C 698.25 507.07 724.52 510.37 739.08 531.92 C 753.64 553.47 744.03 583.08 737.30 605.30 C 730.57 627.52 716.75 646.66 707.00 666.00
C 710.85 663.84 713.39 667.90 717.00 669.00
C 726.66 660.93 741.08 652.29 754.00 653.00
C 767.62 632.69 778.26 606.11 782.00 583.00 Z"/>
</g>
<g fill="None" fill-opacity="0.0" stroke="#000000" stroke-opacity="0.96" stroke-width="0.3"><path d="
M 499.00 556.00 
C 491.61 555.61 483.36 555.29 476.00 556.00
C 466.89 555.94 455.37 560.42 446.67 561.67 C 437.98 562.92 430.33 567.76 422.75 570.60 C 415.16 573.44 410.57 576.81 403.75 580.74 C 396.93 584.66 392.15 589.54 385.25 594.81 C 378.36 600.09 373.79 606.29 368.25 613.25 C 362.71 620.21 360.03 623.36 356.77 630.77 C 353.51 638.17 350.33 645.10 348.78 653.78 C 347.24 662.45 348.54 673.54 350.79 680.77 C 353.04 688.00 360.43 696.56 366.70 700.29 C 372.97 704.02 384.42 706.42 394.10 704.12 C 403.78 701.82 406.45 699.89 413.25 694.39 C 420.04 688.89 424.23 684.17 428.75 676.75 C 433.26 669.33 436.89 663.38 438.00 655.00 C 439.11 646.62 436.68 631.10 429.00 632.00
C 430.90 635.47 430.36 638.83 434.00 641.00
C 433.83 652.16 432.49 665.18 426.71 672.70 C 420.94 680.21 416.89 687.05 408.08 693.07 C 399.28 699.09 388.05 699.61 377.08 697.06 C 366.11 694.52 361.10 684.55 361.00 674.00 C 360.90 663.45 364.58 651.66 368.23 642.23 C 371.88 632.80 379.81 623.26 384.87 615.92 C 389.93 608.58 397.44 601.04 405.23 594.57 C 413.02 588.10 419.77 582.23 428.25 577.39 C 436.72 572.56 447.28 569.03 456.08 566.13 C 464.88 563.23 476.98 561.65 488.11 561.11 C 499.24 560.57 509.67 561.51 517.25 568.75 C 524.82 576.00 521.11 590.59 519.12 598.10 C 517.12 605.61 512.08 617.25 506.71 624.70 C 501.35 632.14 498.24 640.72 492.92 647.92 C 487.59 655.11 483.53 666.35 477.59 672.25 C 471.64 678.15 471.20 691.09 462.00 696.00
C 457.22 698.55 448.72 696.76 443.00 697.00
C 426.00 696.45 406.78 710.47 399.00 725.00
C 406.01 722.48 410.15 713.49 416.75 711.19 C 423.34 708.89 430.20 707.40 439.00 708.00
C 441.61 707.92 451.93 704.66 454.00 708.00
C 456.32 711.74 446.62 719.87 445.59 723.25 C 444.57 726.64 440.76 731.63 438.77 735.77 C 436.78 739.91 433.58 744.65 431.77 748.77 C 429.96 752.89 426.95 760.48 423.71 764.71 C 420.46 768.93 427.00 777.54 432.24 770.59 C 437.49 763.64 443.45 749.56 447.87 741.92 C 452.29 734.28 457.99 724.26 462.25 716.25 C 466.50 708.24 467.39 709.54 475.78 707.78 C 484.17 706.01 489.14 708.93 497.00 709.00 C 504.86 709.07 511.72 707.44 519.00 709.00
C 527.13 709.79 536.87 709.79 545.00 709.00
C 547.54 706.34 551.89 709.04 555.00 709.00
C 545.59 728.97 535.71 741.21 541.81 762.75 C 547.90 784.30 578.79 770.15 588.00 756.00
C 575.81 763.52 564.87 773.84 553.00 764.00
C 552.67 740.61 564.38 724.07 574.00 705.00
C 578.28 706.46 584.40 703.38 588.77 701.77 C 593.14 700.16 600.89 695.56 595.00 693.00
C 590.88 699.61 582.11 699.30 576.00 700.00
C 580.20 692.80 587.51 682.67 591.81 675.25 C 596.10 667.82 600.93 659.06 606.76 650.77 C 612.60 642.48 617.26 637.55 622.81 630.25 C 628.35 622.95 631.73 617.57 637.25 610.25 C 642.77 602.93 651.63 596.55 657.20 589.25 C 662.77 581.95 670.62 574.03 677.75 566.75 C 684.88 559.47 694.26 556.52 697.00 548.00
C 685.01 553.05 675.46 559.45 666.75 565.75 C 658.04 572.06 649.89 580.93 640.75 589.75 C 631.61 598.57 625.80 606.39 618.75 614.75 C 611.70 623.12 605.02 631.02 599.24 639.23 C 593.45 647.44 585.81 659.06 578.92 668.92 C 572.03 678.77 569.70 684.72 561.71 696.71 C 553.71 708.69 530.68 701.12 517.89 701.11 C 505.11 701.10 490.02 696.27 476.00 698.00
C 479.39 686.85 487.01 678.76 492.75 668.75 C 498.48 658.73 507.68 647.72 513.09 638.10 C 518.51 628.48 526.83 619.28 531.41 607.75 C 535.98 596.22 540.46 583.36 531.75 572.25 C 523.04 561.14 510.04 557.97 499.00 556.00 Z"/>
</g>
<g fill="None" fill-opacity="0.0" stroke="#626262" stroke-opacity="0.46" stroke-width="0.3"><path d="
M 476.00 556.00 
C 483.36 555.29 491.61 555.61 499.00 556.00
C 492.08 554.76 482.99 554.50 476.00 556.00 Z"/>
</g>
<g fill="None" fill-opacity="0.0" stroke="#444444" stroke-opacity="0.45" stroke-width="0.3"><path d="
M 782.00 583.00 
C 782.97 577.04 782.98 570.03 782.00 564.00
C 782.27 570.25 782.27 576.75 782.00 583.00 Z"/>
</g>
<g fill="None" fill-opacity="0.0" stroke="#000000" stroke-opacity="0.98" stroke-width="0.3"><path d="
M 479.00 577.00 
C 461.37 576.99 441.98 586.05 428.25 595.20 C 414.51 604.35 400.97 616.57 391.39 630.25 C 381.82 643.92 372.92 666.81 379.00 684.00
C 391.81 685.37 392.16 671.27 398.25 664.25 C 404.34 657.22 408.21 647.51 416.00 642.00
C 409.45 628.83 421.70 612.42 435.00 618.00
C 447.69 602.69 463.87 588.04 479.00 577.00 Z"/>
</g>
<g fill="None" fill-opacity="0.0" stroke="#000000" stroke-opacity="0.96" stroke-width="0.3"><path d="
M 1141.00 664.00 
C 1136.74 664.41 1130.85 664.53 1126.00 665.00
C 1118.37 666.64 1102.49 668.13 1095.00 665.00
C 1092.35 663.89 1091.95 665.26 1093.00 662.00
C 1097.74 655.05 1108.29 649.13 1103.00 641.00
C 1099.78 642.64 1096.68 638.67 1094.00 638.00
C 1084.69 644.08 1080.76 656.12 1073.00 662.00
C 1068.29 665.57 1061.12 663.54 1055.00 664.00
C 1041.68 665.51 1022.38 668.39 1009.00 664.00
C 1011.81 657.65 1018.88 652.44 1021.00 646.00
C 1020.09 640.81 1012.95 640.54 1010.00 638.00
C 1006.63 640.16 1002.43 648.30 998.75 650.75 C 995.07 653.20 992.61 662.38 988.00 664.00
C 983.41 665.61 976.85 663.31 972.00 664.00
C 967.64 664.87 960.93 667.30 963.70 673.30 C 966.47 679.31 972.29 675.39 977.00 678.00
C 970.02 688.59 966.80 702.82 958.25 713.25 C 949.69 723.68 942.41 727.88 931.92 736.92 C 921.43 745.95 911.87 753.30 898.01 753.01 C 884.15 752.71 880.56 736.05 888.00 723.00
C 904.00 724.15 915.83 717.19 928.30 710.30 C 940.78 703.41 945.39 699.14 953.29 686.30 C 961.19 673.46 942.44 662.72 930.10 668.10 C 917.75 673.48 912.16 678.16 901.25 688.25 C 890.33 698.34 883.86 705.39 878.77 716.77 C 873.69 728.16 861.72 736.59 852.77 742.43 C 843.82 748.27 828.39 755.92 818.75 745.25 C 809.12 734.58 805.68 722.67 807.00 711.00
C 812.90 713.98 817.24 714.07 823.00 715.00
C 826.63 715.16 830.37 715.11 834.00 715.00
C 848.22 714.00 859.56 705.93 871.75 697.75 C 883.95 689.57 884.13 664.05 867.08 660.07 C 850.02 656.09 834.91 667.84 821.00 673.00
C 824.54 662.31 834.39 654.66 841.29 645.30 C 848.19 635.95 855.43 628.45 862.00 618.00
C 858.18 613.94 853.30 617.13 848.00 615.00
C 840.00 624.36 831.74 633.32 825.24 642.23 C 818.74 651.14 813.06 658.81 806.75 668.75 C 800.44 678.70 791.74 690.74 786.30 699.30 C 780.86 707.86 769.79 719.86 761.25 727.25 C 752.70 734.64 744.66 741.26 735.70 746.69 C 726.74 752.13 711.21 757.92 702.30 749.70 C 693.40 741.47 704.36 723.23 709.41 715.75 C 714.47 708.28 723.85 695.71 733.25 689.39 C 742.64 683.08 747.88 677.90 758.00 679.00
C 751.49 681.75 746.85 701.19 757.99 698.99 C 769.13 696.79 769.03 691.65 772.00 682.00 C 774.97 672.36 757.88 663.64 749.70 667.69 C 741.51 671.74 736.27 671.85 729.25 678.25 C 722.22 684.64 714.83 689.51 708.09 697.08 C 701.35 704.66 700.42 707.80 694.77 716.77 C 689.12 725.74 688.19 733.19 688.00 745.00
C 697.45 764.04 721.14 759.81 734.75 751.20 C 748.36 742.58 757.35 737.42 770.00 724.00
C 766.42 734.99 755.72 751.65 771.00 757.00
C 778.55 744.74 782.50 733.47 790.00 723.00
C 796.71 734.49 804.42 756.97 824.00 759.00 C 843.58 761.03 857.81 744.57 872.00 735.00
C 869.56 738.69 875.07 740.90 872.00 745.00
C 881.54 762.81 902.60 760.79 917.30 752.30 C 932.01 743.82 939.71 736.38 953.00 727.00
C 950.78 734.57 952.23 742.73 954.00 751.00
C 963.55 759.76 978.35 757.08 988.26 754.60 C 998.17 752.11 1007.12 746.71 1015.75 741.75 C 1024.39 736.80 1028.88 728.19 1038.00 727.00
C 1032.07 737.31 1036.32 755.38 1049.00 757.00 C 1061.68 758.62 1077.28 753.36 1085.25 749.39 C 1093.21 745.42 1102.87 741.36 1111.23 733.57 C 1119.59 725.78 1131.34 715.91 1133.00 706.00
C 1125.61 717.61 1113.71 722.13 1105.92 730.92 C 1098.13 739.71 1083.49 743.93 1073.30 748.29 C 1063.12 752.65 1043.67 752.48 1045.66 738.68 C 1047.65 724.87 1051.75 718.58 1058.61 707.75 C 1065.46 696.92 1066.91 687.18 1076.25 679.25 C 1085.58 671.32 1102.20 676.02 1113.90 672.90 C 1125.61 669.79 1139.51 668.49 1151.00 667.00
C 1151.57 662.24 1144.21 664.00 1141.00 664.00
M 798.00 707.00 
C 799.09 698.03 808.01 689.95 813.75 684.75 C 819.50 679.56 832.17 673.45 839.23 670.79 C 846.29 668.12 860.43 660.88 867.75 669.25 C 875.07 677.62 860.92 687.22 855.23 692.24 C 849.54 697.25 839.56 699.97 831.25 703.40 C 822.95 706.83 809.00 711.39 798.00 707.00
M 1047.00 671.00 
C 1045.03 677.92 1056.70 676.28 1061.00 678.00
C 1056.81 688.66 1049.26 695.81 1046.87 703.92 C 1044.49 712.03 1036.31 719.44 1027.75 725.80 C 1019.20 732.16 1012.55 741.24 1001.77 744.77 C 990.99 748.30 986.10 751.35 972.33 751.33 C 958.56 751.31 960.60 735.51 964.64 727.30 C 968.68 719.09 972.01 710.54 977.19 701.75 C 982.37 692.95 988.43 684.53 996.00 676.00
C 1013.80 676.48 1028.70 670.44 1047.00 671.00
M 949.00 676.00 
C 948.33 689.51 937.12 698.28 927.23 705.24 C 917.34 712.19 907.18 717.31 893.00 717.00
C 898.66 706.47 906.32 697.22 916.30 689.30 C 926.29 681.38 935.93 670.97 949.00 676.00 Z"/>
</g>
<g fill="None" fill-opacity="0.0" stroke="#3D3D3D" stroke-opacity="0.46" stroke-width="0.3"><path d="
M 980.00 649.00 
C 977.36 649.68 970.40 649.85 970.00 647.00
C 968.53 647.27 969.11 649.00 969.00 650.00
C 972.78 650.09 976.88 650.31 980.00 649.00 Z"/>
</g>
<g fill="None" fill-opacity="0.0" stroke="#000000" stroke-opacity="0.96" stroke-width="0.3"><path d="
M 687.00 686.00 
C 685.40 676.38 687.61 662.15 676.02 659.98 C 664.44 657.80 658.44 665.40 650.75 670.74 C 643.07 676.07 639.15 682.06 633.75 688.75 C 628.36 695.44 623.60 700.11 619.13 708.08 C 614.66 716.05 610.85 721.74 608.34 730.32 C 605.83 738.91 611.43 750.42 618.00 756.00
C 637.76 759.13 650.65 745.12 661.25 732.25 C 671.85 719.37 684.60 709.00 683.00 693.00
C 690.19 690.17 697.28 688.48 703.00 682.00
C 697.28 684.63 692.37 683.77 687.00 686.00
M 666.00 680.00 
C 670.88 686.71 681.41 696.97 674.08 706.08 C 666.74 715.18 664.04 721.25 655.25 730.25 C 646.45 739.25 640.02 745.92 629.32 747.34 C 618.62 748.75 618.82 732.93 624.32 724.32 C 629.82 715.72 635.27 705.62 642.75 697.75 C 650.23 689.89 656.37 683.22 666.00 680.00 Z"/>
</g>
<g fill="None" fill-opacity="0.0" stroke="#B1B1B1" stroke-opacity="0.45" stroke-width="0.3"><path d="
M 1055.00 664.00 
C 1061.12 663.54 1068.29 665.57 1073.00 662.00
C 1068.27 664.45 1059.89 662.99 1055.00 664.00 Z"/>
</g>
<g fill="None" fill-opacity="0.0" stroke="#B2B2B2" stroke-opacity="0.40" stroke-width="0.3"><path d="
M 1095.00 665.00 
C 1094.02 664.42 1092.88 662.63 1093.00 662.00
C 1091.95 665.26 1092.35 663.89 1095.00 665.00 Z"/>
</g>
<g fill="None" fill-opacity="0.0" stroke="#AEAEAE" stroke-opacity="0.47" stroke-width="0.3"><path d="
M 972.00 664.00 
C 976.85 663.31 983.41 665.61 988.00 664.00
C 983.72 661.98 976.38 662.81 972.00 664.00 Z"/>
</g>
<g fill="None" fill-opacity="0.0" stroke="#999999" stroke-opacity="0.47" stroke-width="0.3"><path d="
M 1126.00 665.00 
C 1130.85 664.53 1136.74 664.41 1141.00 664.00
C 1135.85 664.00 1130.49 664.04 1126.00 665.00 Z"/>
</g>
<g fill="None" fill-opacity="0.0" stroke="#000000" stroke-opacity="0.02" stroke-width="0.3"><path d="
M 798.00 707.00 
C 809.00 711.39 822.95 706.83 831.25 703.40 C 839.56 699.97 849.54 697.25 855.23 692.24 C 860.92 687.22 875.07 677.62 867.75 669.25 C 860.43 660.88 846.29 668.12 839.23 670.79 C 832.17 673.45 819.50 679.56 813.75 684.75 C 808.01 689.95 799.09 698.03 798.00 707.00 Z"/>
</g>
<g fill="None" fill-opacity="0.0" stroke="#000000" stroke-opacity="0.01" stroke-width="0.3"><path d="
M 1047.00 671.00 
C 1028.70 670.44 1013.80 676.48 996.00 676.00
C 988.43 684.53 982.37 692.95 977.19 701.75 C 972.01 710.54 968.68 719.09 964.64 727.30 C 960.60 735.51 958.56 751.31 972.33 751.33 C 986.10 751.35 990.99 748.30 1001.77 744.77 C 1012.55 741.24 1019.20 732.16 1027.75 725.80 C 1036.31 719.44 1044.49 712.03 1046.87 703.92 C 1049.26 695.81 1056.81 688.66 1061.00 678.00
C 1056.70 676.28 1045.03 677.92 1047.00 671.00 Z"/>
</g>
<g fill="None" fill-opacity="0.0" stroke="#000000" stroke-opacity="0.02" stroke-width="0.3"><path d="
M 949.00 676.00 
C 935.93 670.97 926.29 681.38 916.30 689.30 C 906.32 697.22 898.66 706.47 893.00 717.00
C 907.18 717.31 917.34 712.19 927.23 705.24 C 937.12 698.28 948.33 689.51 949.00 676.00 Z"/>
</g>
<g fill="None" fill-opacity="0.0" stroke="#020202" stroke-opacity="0.88" stroke-width="0.3"><path d="
M 536.00 688.00 
C 536.48 680.20 522.29 669.33 521.00 683.00
C 524.72 686.29 528.75 689.49 536.00 688.00 Z"/>
</g>
<g fill="None" fill-opacity="0.0" stroke="#000000" stroke-opacity="0.01" stroke-width="0.3"><path d="
M 666.00 680.00 
C 656.37 683.22 650.23 689.89 642.75 697.75 C 635.27 705.62 629.82 715.72 624.32 724.32 C 618.82 732.93 618.62 748.75 629.32 747.34 C 640.02 745.92 646.45 739.25 655.25 730.25 C 664.04 721.25 666.74 715.18 674.08 706.08 C 681.41 696.97 670.88 686.71 666.00 680.00 Z"/>
</g>
<g fill="None" fill-opacity="0.0" stroke="#000000" stroke-opacity="0.98" stroke-width="0.3"><path d="
M 371.00 718.00 
C 354.66 714.49 346.26 703.56 338.00 692.00
C 328.14 718.96 321.91 765.05 330.41 793.25 C 338.91 821.45 360.60 846.52 391.00 852.00
C 394.13 846.84 400.97 843.67 403.00 838.00
C 381.36 834.28 364.15 819.42 361.02 794.03 C 357.89 768.63 362.74 740.02 371.00 718.00 Z"/>
</g>
<g fill="None" fill-opacity="0.0" stroke="#636363" stroke-opacity="0.47" stroke-width="0.3"><path d="
M 443.00 697.00 
C 448.72 696.76 457.22 698.55 462.00 696.00
C 456.97 697.76 447.94 696.20 443.00 697.00 Z"/>
</g>
<g fill="None" fill-opacity="0.0" stroke="#808080" stroke-opacity="0.50" stroke-width="0.3"><path d="
M 439.00 708.00 
C 443.98 708.34 449.02 707.75 454.00 708.00
C 451.93 704.66 441.61 707.92 439.00 708.00 Z"/>
</g>
<g fill="None" fill-opacity="0.0" stroke="#848484" stroke-opacity="0.46" stroke-width="0.3"><path d="
M 545.00 709.00 
C 536.87 709.79 527.13 709.79 519.00 709.00
C 526.57 710.62 537.36 710.64 545.00 709.00 Z"/>
</g>
<g fill="None" fill-opacity="0.0" stroke="#999999" stroke-opacity="0.41" stroke-width="0.3"><path d="
M 834.00 715.00 
C 830.37 715.11 826.63 715.16 823.00 715.00
C 826.66 715.59 830.29 715.55 834.00 715.00 Z"/>
</g>
<g fill="None" fill-opacity="0.0" stroke="#000000" stroke-opacity="0.98" stroke-width="0.3"><path d="
M 665.00 863.00 
C 670.55 863.54 676.42 863.00 682.00 863.00
C 694.44 863.00 708.01 863.45 720.00 864.00 C 731.99 864.55 744.81 863.60 756.00 866.00
C 767.57 867.12 781.43 867.12 793.00 866.00
C 803.73 865.98 814.86 863.29 825.00 866.00
C 811.54 889.95 801.85 912.60 793.26 943.25 C 784.68 973.90 789.89 1012.52 822.00 1022.00
C 826.03 1022.65 830.91 1022.12 835.00 1022.00
C 844.64 1020.44 856.22 1017.04 865.31 1012.31 C 874.39 1007.57 884.97 1003.00 890.70 998.70 C 896.43 994.39 911.43 984.01 905.00 976.00
C 893.77 987.57 879.53 996.77 867.07 1002.07 C 854.62 1007.37 830.15 1013.38 824.26 994.75 C 818.37 976.11 827.04 962.80 830.94 947.08 C 834.83 931.37 842.14 917.08 848.79 903.23 C 855.44 889.38 863.43 870.80 871.00 858.00
C 891.59 855.42 910.71 849.55 930.00 835.00
C 929.35 831.21 930.10 827.56 925.00 827.00
C 912.52 838.64 894.81 842.09 879.00 843.00
C 895.44 817.22 909.21 792.08 926.00 765.00
C 912.87 771.14 896.81 778.16 882.00 771.00
C 864.48 797.92 850.01 821.79 835.00 848.00
C 817.96 849.15 795.74 849.81 778.01 847.99 C 760.28 846.17 745.05 846.98 729.03 844.98 C 713.00 842.97 698.21 841.07 682.67 839.67 C 667.13 838.27 649.53 837.40 634.00 835.00
C 639.27 827.32 645.24 818.68 649.25 811.25 C 653.26 803.83 660.91 796.56 664.81 789.25 C 668.70 781.93 675.09 772.71 679.81 766.25 C 684.52 759.78 671.97 750.66 674.00 742.00
C 662.74 750.50 656.17 762.14 644.00 766.00
C 633.48 789.68 614.81 811.61 602.00 835.00
C 593.75 834.23 582.05 835.68 573.22 834.78 C 564.40 833.88 557.11 836.20 548.67 836.67 C 540.24 837.13 534.75 838.25 526.23 840.21 C 517.71 842.18 518.04 841.53 509.25 845.81 C 500.46 850.09 485.59 859.93 477.75 868.75 C 469.92 877.57 469.06 875.75 463.75 883.75 C 458.44 891.76 456.28 889.71 452.11 898.11 C 447.94 906.51 461.74 903.91 464.61 896.75 C 467.47 889.60 470.41 889.07 475.23 884.23 C 480.05 879.39 485.73 874.22 492.77 871.77 C 499.81 869.32 503.50 866.56 509.78 865.22 C 516.05 863.87 523.76 863.55 531.33 862.67 C 538.90 861.79 549.10 861.29 558.00 862.00 C 566.90 862.71 575.60 856.97 585.00 861.00
C 576.74 872.63 571.28 884.20 563.30 897.30 C 555.32 910.40 547.59 924.21 540.77 936.77 C 533.95 949.33 524.92 964.09 520.13 974.08 C 515.34 984.07 506.54 998.56 506.00 1015.00
C 514.08 1022.01 524.90 1019.53 532.75 1010.75 C 540.60 1001.97 543.23 992.76 548.70 982.70 C 554.16 972.63 557.60 964.34 562.70 955.70 C 567.79 947.05 571.16 938.59 576.75 929.75 C 582.33 920.90 584.97 913.89 590.70 905.70 C 596.43 897.50 598.79 889.17 604.25 882.25 C 609.70 875.32 613.48 858.91 625.00 861.00 C 636.52 863.09 653.71 860.58 665.00 863.00 Z"/>
</g>
<g fill="None" fill-opacity="0.0" stroke="#000000" stroke-opacity="0.97" stroke-width="0.3"><path d="
M 526.00 760.00 
C 505.30 797.49 474.74 836.98 429.00 839.00
C 423.93 844.23 424.24 848.15 421.00 856.00
C 445.25 854.84 468.80 845.39 488.25 828.25 C 507.69 811.11 520.89 794.01 531.00 773.00
C 527.11 770.59 526.61 765.36 526.00 760.00 Z"/>
</g>
<g fill="None" fill-opacity="0.0" stroke="#000000" stroke-opacity="0.93" stroke-width="0.3"><path d="
M 422.00 835.00 
C 420.30 833.48 418.68 835.87 417.00 834.00
C 404.83 849.91 383.62 869.36 369.00 886.00
C 362.42 879.32 355.08 869.61 346.23 874.23 C 337.38 878.85 338.39 893.42 342.00 900.00
C 344.51 893.93 343.20 882.77 351.10 880.12 C 359.00 877.47 363.11 882.40 368.00 889.00
C 358.35 898.03 353.40 905.26 346.77 915.77 C 340.14 926.28 331.40 938.73 333.00 951.00
C 340.18 947.79 340.68 939.35 345.30 934.30 C 349.92 929.25 351.34 918.75 356.23 913.23 C 361.12 907.72 361.42 898.40 368.11 894.11 C 374.79 889.82 376.40 905.76 377.88 910.10 C 379.37 914.44 378.97 928.06 377.71 934.71 C 376.44 941.35 375.76 951.24 381.00 958.00
C 383.36 956.82 385.88 961.06 389.00 958.00
C 382.62 943.02 389.69 925.00 392.79 912.23 C 395.88 899.46 398.87 889.75 403.41 876.75 C 407.95 863.75 415.22 848.94 422.00 835.00
M 382.00 911.00 
C 376.20 904.75 378.73 895.16 372.00 891.00
C 377.08 878.46 388.84 869.84 399.00 858.00
C 404.42 862.94 396.36 870.35 395.08 876.08 C 393.79 881.81 388.86 887.63 387.29 893.30 C 385.71 898.98 383.91 906.28 382.00 911.00 Z"/>
</g>
<g fill="None" fill-opacity="0.0" stroke="#000000" stroke-opacity="0.04" stroke-width="0.3"><path d="
M 382.00 911.00 
C 383.91 906.28 385.71 898.98 387.29 893.30 C 388.86 887.63 393.79 881.81 395.08 876.08 C 396.36 870.35 404.42 862.94 399.00 858.00
C 388.84 869.84 377.08 878.46 372.00 891.00
C 378.73 895.16 376.20 904.75 382.00 911.00 Z"/>
</g>
<g fill="None" fill-opacity="0.0" stroke="#585858" stroke-opacity="0.47" stroke-width="0.3"><path d="
M 682.00 863.00 
C 676.42 863.00 670.55 863.54 665.00 863.00
C 670.42 864.16 676.60 863.52 682.00 863.00 Z"/>
</g>
<g fill="None" fill-opacity="0.0" stroke="#707070" stroke-opacity="0.47" stroke-width="0.3"><path d="
M 793.00 866.00 
C 781.43 867.12 767.57 867.12 756.00 866.00
C 766.35 868.22 782.58 868.23 793.00 866.00 Z"/>
</g>
<g fill="None" fill-opacity="0.0" stroke="#555555" stroke-opacity="0.42" stroke-width="0.3"><path d="
M 835.00 1022.00 
C 830.91 1022.12 826.03 1022.65 822.00 1022.00
C 826.28 1023.26 830.74 1022.63 835.00 1022.00 Z"/>
</g>
<g fill="#000000" fill-opacity="0.00" stroke="None">
<path d="
M 0.00 1500.00 
L 1500.00 1500.00
L 1500.00 0.00
L 0.00 0.00
L 0.00 1500.00
M 980.00 649.00 
C 976.88 650.31 972.78 650.09 969.00 650.00
C 969.11 649.00 968.53 647.27 970.00 647.00
C 972.67 640.25 980.11 636.59 983.19 630.75 C 986.28 624.91 993.24 620.96 997.25 615.25 C 1001.26 609.53 1006.46 604.58 1011.23 599.23 C 1016.00 593.88 1020.93 588.30 1026.25 583.25 C 1031.57 578.20 1037.88 571.42 1043.25 566.25 C 1048.62 561.08 1055.02 554.21 1060.25 549.25 C 1065.48 544.29 1070.27 539.77 1075.75 535.74 C 1081.24 531.70 1086.68 524.54 1092.30 520.30 C 1097.92 516.06 1103.69 512.54 1109.08 509.08 C 1114.47 505.62 1120.89 498.87 1126.92 495.92 C 1132.94 492.96 1138.72 488.03 1146.70 485.70 C 1154.67 483.36 1160.55 475.30 1169.03 476.03 C 1177.50 476.75 1170.09 488.94 1163.75 489.80 C 1157.42 490.66 1152.52 499.50 1147.23 502.57 C 1141.94 505.64 1136.39 510.30 1131.25 515.25 C 1126.10 520.20 1120.48 525.01 1115.25 530.25 C 1110.02 535.48 1102.89 541.75 1098.25 547.25 C 1093.60 552.75 1088.26 558.50 1082.75 563.75 C 1077.24 569.01 1074.51 574.39 1069.61 579.75 C 1064.70 585.11 1058.94 590.09 1054.41 595.75 C 1049.88 601.42 1044.77 606.54 1040.25 612.25 C 1035.74 617.97 1029.45 624.21 1026.00 630.00
C 1018.86 622.05 1006.14 623.45 998.25 629.25 C 990.36 635.06 986.93 642.75 980.00 649.00
M 687.00 494.00 
C 708.85 497.88 731.08 501.62 750.23 514.77 C 769.38 527.92 778.44 542.04 782.00 564.00
C 782.98 570.03 782.97 577.04 782.00 583.00
C 778.26 606.11 767.62 632.69 754.00 653.00
C 741.08 652.29 726.66 660.93 717.00 669.00
C 713.39 667.90 710.85 663.84 707.00 666.00
C 716.75 646.66 730.57 627.52 737.30 605.30 C 744.03 583.08 753.64 553.47 739.08 531.92 C 724.52 510.37 698.25 507.07 671.00 507.00 C 643.75 506.94 615.01 512.30 592.30 518.64 C 569.59 524.98 546.46 532.33 525.00 547.00
C 510.29 542.14 497.51 540.93 482.00 541.00
C 496.09 532.57 512.69 526.23 530.69 518.69 C 548.70 511.16 561.88 507.49 582.75 502.41 C 603.63 497.33 622.73 496.27 645.00 494.00
C 656.98 491.43 675.06 491.88 687.00 494.00
M 545.00 709.00 
C 537.36 710.64 526.57 710.62 519.00 709.00
C 511.72 707.44 504.86 709.07 497.00 709.00 C 489.14 708.93 484.17 706.01 475.78 707.78 C 467.39 709.54 466.50 708.24 462.25 716.25 C 457.99 724.26 452.29 734.28 447.87 741.92 C 443.45 749.56 437.49 763.64 432.24 770.59 C 427.00 777.54 420.46 768.93 423.71 764.71 C 426.95 760.48 429.96 752.89 431.77 748.77 C 433.58 744.65 436.78 739.91 438.77 735.77 C 440.76 731.63 444.57 726.64 445.59 723.25 C 446.62 719.87 456.32 711.74 454.00 708.00
C 449.02 707.75 443.98 708.34 439.00 708.00
C 430.20 707.40 423.34 708.89 416.75 711.19 C 410.15 713.49 406.01 722.48 399.00 725.00
C 406.78 710.47 426.00 696.45 443.00 697.00
C 447.94 696.20 456.97 697.76 462.00 696.00
C 471.20 691.09 471.64 678.15 477.59 672.25 C 483.53 666.35 487.59 655.11 492.92 647.92 C 498.24 640.72 501.35 632.14 506.71 624.70 C 512.08 617.25 517.12 605.61 519.12 598.10 C 521.11 590.59 524.82 576.00 517.25 568.75 C 509.67 561.51 499.24 560.57 488.11 561.11 C 476.98 561.65 464.88 563.23 456.08 566.13 C 447.28 569.03 436.72 572.56 428.25 577.39 C 419.77 582.23 413.02 588.10 405.23 594.57 C 397.44 601.04 389.93 608.58 384.87 615.92 C 379.81 623.26 371.88 632.80 368.23 642.23 C 364.58 651.66 360.90 663.45 361.00 674.00 C 361.10 684.55 366.11 694.52 377.08 697.06 C 388.05 699.61 399.28 699.09 408.08 693.07 C 416.89 687.05 420.94 680.21 426.71 672.70 C 432.49 665.18 433.83 652.16 434.00 641.00
C 430.36 638.83 430.90 635.47 429.00 632.00
C 436.68 631.10 439.11 646.62 438.00 655.00 C 436.89 663.38 433.26 669.33 428.75 676.75 C 424.23 684.17 420.04 688.89 413.25 694.39 C 406.45 699.89 403.78 701.82 394.10 704.12 C 384.42 706.42 372.97 704.02 366.70 700.29 C 360.43 696.56 353.04 688.00 350.79 680.77 C 348.54 673.54 347.24 662.45 348.78 653.78 C 350.33 645.10 353.51 638.17 356.77 630.77 C 360.03 623.36 362.71 620.21 368.25 613.25 C 373.79 606.29 378.36 600.09 385.25 594.81 C 392.15 589.54 396.93 584.66 403.75 580.74 C 410.57 576.81 415.16 573.44 422.75 570.60 C 430.33 567.76 437.98 562.92 446.67 561.67 C 455.37 560.42 466.89 555.94 476.00 556.00
C 482.99 554.50 492.08 554.76 499.00 556.00
C 510.04 557.97 523.04 561.14 531.75 572.25 C 540.46 583.36 535.98 596.22 531.41 607.75 C 526.83 619.28 518.51 628.48 513.09 638.10 C 507.68 647.72 498.48 658.73 492.75 668.75 C 487.01 678.76 479.39 686.85 476.00 698.00
C 490.02 696.27 505.11 701.10 517.89 701.11 C 530.68 701.12 553.71 708.69 561.71 696.71 C 569.70 684.72 572.03 678.77 578.92 668.92 C 585.81 659.06 593.45 647.44 599.24 639.23 C 605.02 631.02 611.70 623.12 618.75 614.75 C 625.80 606.39 631.61 598.57 640.75 589.75 C 649.89 580.93 658.04 572.06 666.75 565.75 C 675.46 559.45 685.01 553.05 697.00 548.00
C 694.26 556.52 684.88 559.47 677.75 566.75 C 670.62 574.03 662.77 581.95 657.20 589.25 C 651.63 596.55 642.77 602.93 637.25 610.25 C 631.73 617.57 628.35 622.95 622.81 630.25 C 617.26 637.55 612.60 642.48 606.76 650.77 C 600.93 659.06 596.10 667.82 591.81 675.25 C 587.51 682.67 580.20 692.80 576.00 700.00
C 582.11 699.30 590.88 699.61 595.00 693.00
C 600.89 695.56 593.14 700.16 588.77 701.77 C 584.40 703.38 578.28 706.46 574.00 705.00
C 564.38 724.07 552.67 740.61 553.00 764.00
C 564.87 773.84 575.81 763.52 588.00 756.00
C 578.79 770.15 547.90 784.30 541.81 762.75 C 535.71 741.21 545.59 728.97 555.00 709.00
C 551.89 709.04 547.54 706.34 545.00 709.00
M 479.00 577.00 
C 463.87 588.04 447.69 602.69 435.00 618.00
C 421.70 612.42 409.45 628.83 416.00 642.00
C 408.21 647.51 404.34 657.22 398.25 664.25 C 392.16 671.27 391.81 685.37 379.00 684.00
C 372.92 666.81 381.82 643.92 391.39 630.25 C 400.97 616.57 414.51 604.35 428.25 595.20 C 441.98 586.05 461.37 576.99 479.00 577.00
M 834.00 715.00 
C 830.29 715.55 826.66 715.59 823.00 715.00
C 817.24 714.07 812.90 713.98 807.00 711.00
C 805.68 722.67 809.12 734.58 818.75 745.25 C 828.39 755.92 843.82 748.27 852.77 742.43 C 861.72 736.59 873.69 728.16 878.77 716.77 C 883.86 705.39 890.33 698.34 901.25 688.25 C 912.16 678.16 917.75 673.48 930.10 668.10 C 942.44 662.72 961.19 673.46 953.29 686.30 C 945.39 699.14 940.78 703.41 928.30 710.30 C 915.83 717.19 904.00 724.15 888.00 723.00
C 880.56 736.05 884.15 752.71 898.01 753.01 C 911.87 753.30 921.43 745.95 931.92 736.92 C 942.41 727.88 949.69 723.68 958.25 713.25 C 966.80 702.82 970.02 688.59 977.00 678.00
C 972.29 675.39 966.47 679.31 963.70 673.30 C 960.93 667.30 967.64 664.87 972.00 664.00
C 976.38 662.81 983.72 661.98 988.00 664.00
C 992.61 662.38 995.07 653.20 998.75 650.75 C 1002.43 648.30 1006.63 640.16 1010.00 638.00
C 1012.95 640.54 1020.09 640.81 1021.00 646.00
C 1018.88 652.44 1011.81 657.65 1009.00 664.00
C 1022.38 668.39 1041.68 665.51 1055.00 664.00
C 1059.89 662.99 1068.27 664.45 1073.00 662.00
C 1080.76 656.12 1084.69 644.08 1094.00 638.00
C 1096.68 638.67 1099.78 642.64 1103.00 641.00
C 1108.29 649.13 1097.74 655.05 1093.00 662.00
C 1092.88 662.63 1094.02 664.42 1095.00 665.00
C 1102.49 668.13 1118.37 666.64 1126.00 665.00
C 1130.49 664.04 1135.85 664.00 1141.00 664.00
C 1144.21 664.00 1151.57 662.24 1151.00 667.00
C 1139.51 668.49 1125.61 669.79 1113.90 672.90 C 1102.20 676.02 1085.58 671.32 1076.25 679.25 C 1066.91 687.18 1065.46 696.92 1058.61 707.75 C 1051.75 718.58 1047.65 724.87 1045.66 738.68 C 1043.67 752.48 1063.12 752.65 1073.30 748.29 C 1083.49 743.93 1098.13 739.71 1105.92 730.92 C 1113.71 722.13 1125.61 717.61 1133.00 706.00
C 1131.34 715.91 1119.59 725.78 1111.23 733.57 C 1102.87 741.36 1093.21 745.42 1085.25 749.39 C 1077.28 753.36 1061.68 758.62 1049.00 757.00 C 1036.32 755.38 1032.07 737.31 1038.00 727.00
C 1028.88 728.19 1024.39 736.80 1015.75 741.75 C 1007.12 746.71 998.17 752.11 988.26 754.60 C 978.35 757.08 963.55 759.76 954.00 751.00
C 952.23 742.73 950.78 734.57 953.00 727.00
C 939.71 736.38 932.01 743.82 917.30 752.30 C 902.60 760.79 881.54 762.81 872.00 745.00
C 875.07 740.90 869.56 738.69 872.00 735.00
C 857.81 744.57 843.58 761.03 824.00 759.00 C 804.42 756.97 796.71 734.49 790.00 723.00
C 782.50 733.47 778.55 744.74 771.00 757.00
C 755.72 751.65 766.42 734.99 770.00 724.00
C 757.35 737.42 748.36 742.58 734.75 751.20 C 721.14 759.81 697.45 764.04 688.00 745.00
C 688.19 733.19 689.12 725.74 694.77 716.77 C 700.42 707.80 701.35 704.66 708.09 697.08 C 714.83 689.51 722.22 684.64 729.25 678.25 C 736.27 671.85 741.51 671.74 749.70 667.69 C 757.88 663.64 774.97 672.36 772.00 682.00 C 769.03 691.65 769.13 696.79 757.99 698.99 C 746.85 701.19 751.49 681.75 758.00 679.00
C 747.88 677.90 742.64 683.08 733.25 689.39 C 723.85 695.71 714.47 708.28 709.41 715.75 C 704.36 723.23 693.40 741.47 702.30 749.70 C 711.21 757.92 726.74 752.13 735.70 746.69 C 744.66 741.26 752.70 734.64 761.25 727.25 C 769.79 719.86 780.86 707.86 786.30 699.30 C 791.74 690.74 800.44 678.70 806.75 668.75 C 813.06 658.81 818.74 651.14 825.24 642.23 C 831.74 633.32 840.00 624.36 848.00 615.00
C 853.30 617.13 858.18 613.94 862.00 618.00
C 855.43 628.45 848.19 635.95 841.29 645.30 C 834.39 654.66 824.54 662.31 821.00 673.00
C 834.91 667.84 850.02 656.09 867.08 660.07 C 884.13 664.05 883.95 689.57 871.75 697.75 C 859.56 705.93 848.22 714.00 834.00 715.00
M 687.00 686.00 
C 692.37 683.77 697.28 684.63 703.00 682.00
C 697.28 688.48 690.19 690.17 683.00 693.00
C 684.60 709.00 671.85 719.37 661.25 732.25 C 650.65 745.12 637.76 759.13 618.00 756.00
C 611.43 750.42 605.83 738.91 608.34 730.32 C 610.85 721.74 614.66 716.05 619.13 708.08 C 623.60 700.11 628.36 695.44 633.75 688.75 C 639.15 682.06 643.07 676.07 650.75 670.74 C 658.44 665.40 664.44 657.80 676.02 659.98 C 687.61 662.15 685.40 676.38 687.00 686.00
M 536.00 688.00 
C 528.75 689.49 524.72 686.29 521.00 683.00
C 522.29 669.33 536.48 680.20 536.00 688.00
M 371.00 718.00 
C 362.74 740.02 357.89 768.63 361.02 794.03 C 364.15 819.42 381.36 834.28 403.00 838.00
C 400.97 843.67 394.13 846.84 391.00 852.00
C 360.60 846.52 338.91 821.45 330.41 793.25 C 321.91 765.05 328.14 718.96 338.00 692.00
C 346.26 703.56 354.66 714.49 371.00 718.00
M 835.00 1022.00 
C 830.74 1022.63 826.28 1023.26 822.00 1022.00
C 789.89 1012.52 784.68 973.90 793.26 943.25 C 801.85 912.60 811.54 889.95 825.00 866.00
C 814.86 863.29 803.73 865.98 793.00 866.00
C 782.58 868.23 766.35 868.22 756.00 866.00
C 744.81 863.60 731.99 864.55 720.00 864.00 C 708.01 863.45 694.44 863.00 682.00 863.00
C 676.60 863.52 670.42 864.16 665.00 863.00
C 653.71 860.58 636.52 863.09 625.00 861.00 C 613.48 858.91 609.70 875.32 604.25 882.25 C 598.79 889.17 596.43 897.50 590.70 905.70 C 584.97 913.89 582.33 920.90 576.75 929.75 C 571.16 938.59 567.79 947.05 562.70 955.70 C 557.60 964.34 554.16 972.63 548.70 982.70 C 543.23 992.76 540.60 1001.97 532.75 1010.75 C 524.90 1019.53 514.08 1022.01 506.00 1015.00
C 506.54 998.56 515.34 984.07 520.13 974.08 C 524.92 964.09 533.95 949.33 540.77 936.77 C 547.59 924.21 555.32 910.40 563.30 897.30 C 571.28 884.20 576.74 872.63 585.00 861.00
C 575.60 856.97 566.90 862.71 558.00 862.00 C 549.10 861.29 538.90 861.79 531.33 862.67 C 523.76 863.55 516.05 863.87 509.78 865.22 C 503.50 866.56 499.81 869.32 492.77 871.77 C 485.73 874.22 480.05 879.39 475.23 884.23 C 470.41 889.07 467.47 889.60 464.61 896.75 C 461.74 903.91 447.94 906.51 452.11 898.11 C 456.28 889.71 458.44 891.76 463.75 883.75 C 469.06 875.75 469.92 877.57 477.75 868.75 C 485.59 859.93 500.46 850.09 509.25 845.81 C 518.04 841.53 517.71 842.18 526.23 840.21 C 534.75 838.25 540.24 837.13 548.67 836.67 C 557.11 836.20 564.40 833.88 573.22 834.78 C 582.05 835.68 593.75 834.23 602.00 835.00
C 614.81 811.61 633.48 789.68 644.00 766.00
C 656.17 762.14 662.74 750.50 674.00 742.00
C 671.97 750.66 684.52 759.78 679.81 766.25 C 675.09 772.71 668.70 781.93 664.81 789.25 C 660.91 796.56 653.26 803.83 649.25 811.25 C 645.24 818.68 639.27 827.32 634.00 835.00
C 649.53 837.40 667.13 838.27 682.67 839.67 C 698.21 841.07 713.00 842.97 729.03 844.98 C 745.05 846.98 760.28 846.17 778.01 847.99 C 795.74 849.81 817.96 849.15 835.00 848.00
C 850.01 821.79 864.48 797.92 882.00 771.00
C 896.81 778.16 912.87 771.14 926.00 765.00
C 909.21 792.08 895.44 817.22 879.00 843.00
C 894.81 842.09 912.52 838.64 925.00 827.00
C 930.10 827.56 929.35 831.21 930.00 835.00
C 910.71 849.55 891.59 855.42 871.00 858.00
C 863.43 870.80 855.44 889.38 848.79 903.23 C 842.14 917.08 834.83 931.37 830.94 947.08 C 827.04 962.80 818.37 976.11 824.26 994.75 C 830.15 1013.38 854.62 1007.37 867.07 1002.07 C 879.53 996.77 893.77 987.57 905.00 976.00
C 911.43 984.01 896.43 994.39 890.70 998.70 C 884.97 1003.00 874.39 1007.57 865.31 1012.31 C 856.22 1017.04 844.64 1020.44 835.00 1022.00
M 526.00 760.00 
C 526.61 765.36 527.11 770.59 531.00 773.00
C 520.89 794.01 507.69 811.11 488.25 828.25 C 468.80 845.39 445.25 854.84 421.00 856.00
C 424.24 848.15 423.93 844.23 429.00 839.00
C 474.74 836.98 505.30 797.49 526.00 760.00
M 422.00 835.00 
C 415.22 848.94 407.95 863.75 403.41 876.75 C 398.87 889.75 395.88 899.46 392.79 912.23 C 389.69 925.00 382.62 943.02 389.00 958.00
C 385.88 961.06 383.36 956.82 381.00 958.00
C 375.76 951.24 376.44 941.35 377.71 934.71 C 378.97 928.06 379.37 914.44 377.88 910.10 C 376.40 905.76 374.79 889.82 368.11 894.11 C 361.42 898.40 361.12 907.72 356.23 913.23 C 351.34 918.75 349.92 929.25 345.30 934.30 C 340.68 939.35 340.18 947.79 333.00 951.00
C 331.40 938.73 340.14 926.28 346.77 915.77 C 353.40 905.26 358.35 898.03 368.00 889.00
C 363.11 882.40 359.00 877.47 351.10 880.12 C 343.20 882.77 344.51 893.93 342.00 900.00
C 338.39 893.42 337.38 878.85 346.23 874.23 C 355.08 869.61 362.42 879.32 369.00 886.00
C 383.62 869.36 404.83 849.91 417.00 834.00
C 418.68 835.87 420.30 833.48 422.00 835.00 Z"/>
</g>
<g fill="#000000" fill-opacity="0.99" stroke="None">
<path d="
M 970.00 647.00 
C 970.40 649.85 977.36 649.68 980.00 649.00
C 986.93 642.75 990.36 635.06 998.25 629.25 C 1006.14 623.45 1018.86 622.05 1026.00 630.00
C 1029.45 624.21 1035.74 617.97 1040.25 612.25 C 1044.77 606.54 1049.88 601.42 1054.41 595.75 C 1058.94 590.09 1064.70 585.11 1069.61 579.75 C 1074.51 574.39 1077.24 569.01 1082.75 563.75 C 1088.26 558.50 1093.60 552.75 1098.25 547.25 C 1102.89 541.75 1110.02 535.48 1115.25 530.25 C 1120.48 525.01 1126.10 520.20 1131.25 515.25 C 1136.39 510.30 1141.94 505.64 1147.23 502.57 C 1152.52 499.50 1157.42 490.66 1163.75 489.80 C 1170.09 488.94 1177.50 476.75 1169.03 476.03 C 1160.55 475.30 1154.67 483.36 1146.70 485.70 C 1138.72 488.03 1132.94 492.96 1126.92 495.92 C 1120.89 498.87 1114.47 505.62 1109.08 509.08 C 1103.69 512.54 1097.92 516.06 1092.30 520.30 C 1086.68 524.54 1081.24 531.70 1075.75 535.74 C 1070.27 539.77 1065.48 544.29 1060.25 549.25 C 1055.02 554.21 1048.62 561.08 1043.25 566.25 C 1037.88 571.42 1031.57 578.20 1026.25 583.25 C 1020.93 588.30 1016.00 593.88 1011.23 599.23 C 1006.46 604.58 1001.26 609.53 997.25 615.25 C 993.24 620.96 986.28 624.91 983.19 630.75 C 980.11 636.59 972.67 640.25 970.00 647.00 Z"/>
</g>
<g fill="#3A3A3A" fill-opacity="0.48" stroke="None">
<path d="
M 645.00 494.00 
C 658.40 492.70 673.55 493.21 687.00 494.00
C 675.06 491.88 656.98 491.43 645.00 494.00 Z"/>
</g>
<g fill="#000000" fill-opacity="0.98" stroke="None">
<path d="
M 782.00 583.00 
C 782.27 576.75 782.27 570.25 782.00 564.00
C 778.44 542.04 769.38 527.92 750.23 514.77 C 731.08 501.62 708.85 497.88 687.00 494.00
C 673.55 493.21 658.40 492.70 645.00 494.00
C 622.73 496.27 603.63 497.33 582.75 502.41 C 561.88 507.49 548.70 511.16 530.69 518.69 C 512.69 526.23 496.09 532.57 482.00 541.00
C 497.51 540.93 510.29 542.14 525.00 547.00
C 546.46 532.33 569.59 524.98 592.30 518.64 C 615.01 512.30 643.75 506.94 671.00 507.00 C 698.25 507.07 724.52 510.37 739.08 531.92 C 753.64 553.47 744.03 583.08 737.30 605.30 C 730.57 627.52 716.75 646.66 707.00 666.00
C 710.85 663.84 713.39 667.90 717.00 669.00
C 726.66 660.93 741.08 652.29 754.00 653.00
C 767.62 632.69 778.26 606.11 782.00 583.00 Z"/>
</g>
<g fill="#000000" fill-opacity="0.96" stroke="None">
<path d="
M 499.00 556.00 
C 491.61 555.61 483.36 555.29 476.00 556.00
C 466.89 555.94 455.37 560.42 446.67 561.67 C 437.98 562.92 430.33 567.76 422.75 570.60 C 415.16 573.44 410.57 576.81 403.75 580.74 C 396.93 584.66 392.15 589.54 385.25 594.81 C 378.36 600.09 373.79 606.29 368.25 613.25 C 362.71 620.21 360.03 623.36 356.77 630.77 C 353.51 638.17 350.33 645.10 348.78 653.78 C 347.24 662.45 348.54 673.54 350.79 680.77 C 353.04 688.00 360.43 696.56 366.70 700.29 C 372.97 704.02 384.42 706.42 394.10 704.12 C 403.78 701.82 406.45 699.89 413.25 694.39 C 420.04 688.89 424.23 684.17 428.75 676.75 C 433.26 669.33 436.89 663.38 438.00 655.00 C 439.11 646.62 436.68 631.10 429.00 632.00
C 430.90 635.47 430.36 638.83 434.00 641.00
C 433.83 652.16 432.49 665.18 426.71 672.70 C 420.94 680.21 416.89 687.05 408.08 693.07 C 399.28 699.09 388.05 699.61 377.08 697.06 C 366.11 694.52 361.10 684.55 361.00 674.00 C 360.90 663.45 364.58 651.66 368.23 642.23 C 371.88 632.80 379.81 623.26 384.87 615.92 C 389.93 608.58 397.44 601.04 405.23 594.57 C 413.02 588.10 419.77 582.23 428.25 577.39 C 436.72 572.56 447.28 569.03 456.08 566.13 C 464.88 563.23 476.98 561.65 488.11 561.11 C 499.24 560.57 509.67 561.51 517.25 568.75 C 524.82 576.00 521.11 590.59 519.12 598.10 C 517.12 605.61 512.08 617.25 506.71 624.70 C 501.35 632.14 498.24 640.72 492.92 647.92 C 487.59 655.11 483.53 666.35 477.59 672.25 C 471.64 678.15 471.20 691.09 462.00 696.00
C 457.22 698.55 448.72 696.76 443.00 697.00
C 426.00 696.45 406.78 710.47 399.00 725.00
C 406.01 722.48 410.15 713.49 416.75 711.19 C 423.34 708.89 430.20 707.40 439.00 708.00
C 441.61 707.92 451.93 704.66 454.00 708.00
C 456.32 711.74 446.62 719.87 445.59 723.25 C 444.57 726.64 440.76 731.63 438.77 735.77 C 436.78 739.91 433.58 744.65 431.77 748.77 C 429.96 752.89 426.95 760.48 423.71 764.71 C 420.46 768.93 427.00 777.54 432.24 770.59 C 437.49 763.64 443.45 749.56 447.87 741.92 C 452.29 734.28 457.99 724.26 462.25 716.25 C 466.50 708.24 467.39 709.54 475.78 707.78 C 484.17 706.01 489.14 708.93 497.00 709.00 C 504.86 709.07 511.72 707.44 519.00 709.00
C 527.13 709.79 536.87 709.79 545.00 709.00
C 547.54 706.34 551.89 709.04 555.00 709.00
C 545.59 728.97 535.71 741.21 541.81 762.75 C 547.90 784.30 578.79 770.15 588.00 756.00
C 575.81 763.52 564.87 773.84 553.00 764.00
C 552.67 740.61 564.38 724.07 574.00 705.00
C 578.28 706.46 584.40 703.38 588.77 701.77 C 593.14 700.16 600.89 695.56 595.00 693.00
C 590.88 699.61 582.11 699.30 576.00 700.00
C 580.20 692.80 587.51 682.67 591.81 675.25 C 596.10 667.82 600.93 659.06 606.76 650.77 C 612.60 642.48 617.26 637.55 622.81 630.25 C 628.35 622.95 631.73 617.57 637.25 610.25 C 642.77 602.93 651.63 596.55 657.20 589.25 C 662.77 581.95 670.62 574.03 677.75 566.75 C 684.88 559.47 694.26 556.52 697.00 548.00
C 685.01 553.05 675.46 559.45 666.75 565.75 C 658.04 572.06 649.89 580.93 640.75 589.75 C 631.61 598.57 625.80 606.39 618.75 614.75 C 611.70 623.12 605.02 631.02 599.24 639.23 C 593.45 647.44 585.81 659.06 578.92 668.92 C 572.03 678.77 569.70 684.72 561.71 696.71 C 553.71 708.69 530.68 701.12 517.89 701.11 C 505.11 701.10 490.02 696.27 476.00 698.00
C 479.39 686.85 487.01 678.76 492.75 668.75 C 498.48 658.73 507.68 647.72 513.09 638.10 C 518.51 628.48 526.83 619.28 531.41 607.75 C 535.98 596.22 540.46 583.36 531.75 572.25 C 523.04 561.14 510.04 557.97 499.00 556.00 Z"/>
</g>
<g fill="#626262" fill-opacity="0.46" stroke="None">
<path d="
M 476.00 556.00 
C 483.36 555.29 491.61 555.61 499.00 556.00
C 492.08 554.76 482.99 554.50 476.00 556.00 Z"/>
</g>
<g fill="#444444" fill-opacity="0.45" stroke="None">
<path d="
M 782.00 583.00 
C 782.97 577.04 782.98 570.03 782.00 564.00
C 782.27 570.25 782.27 576.75 782.00 583.00 Z"/>
</g>
<g fill="#000000" fill-opacity="0.98" stroke="None">
<path d="
M 479.00 577.00 
C 461.37 576.99 441.98 586.05 428.25 595.20 C 414.51 604.35 400.97 616.57 391.39 630.25 C 381.82 643.92 372.92 666.81 379.00 684.00
C 391.81 685.37 392.16 671.27 398.25 664.25 C 404.34 657.22 408.21 647.51 416.00 642.00
C 409.45 628.83 421.70 612.42 435.00 618.00
C 447.69 602.69 463.87 588.04 479.00 577.00 Z"/>
</g>
<g fill="#000000" fill-opacity="0.96" stroke="None">
<path d="
M 1141.00 664.00 
C 1136.74 664.41 1130.85 664.53 1126.00 665.00
C 1118.37 666.64 1102.49 668.13 1095.00 665.00
C 1092.35 663.89 1091.95 665.26 1093.00 662.00
C 1097.74 655.05 1108.29 649.13 1103.00 641.00
C 1099.78 642.64 1096.68 638.67 1094.00 638.00
C 1084.69 644.08 1080.76 656.12 1073.00 662.00
C 1068.29 665.57 1061.12 663.54 1055.00 664.00
C 1041.68 665.51 1022.38 668.39 1009.00 664.00
C 1011.81 657.65 1018.88 652.44 1021.00 646.00
C 1020.09 640.81 1012.95 640.54 1010.00 638.00
C 1006.63 640.16 1002.43 648.30 998.75 650.75 C 995.07 653.20 992.61 662.38 988.00 664.00
C 983.41 665.61 976.85 663.31 972.00 664.00
C 967.64 664.87 960.93 667.30 963.70 673.30 C 966.47 679.31 972.29 675.39 977.00 678.00
C 970.02 688.59 966.80 702.82 958.25 713.25 C 949.69 723.68 942.41 727.88 931.92 736.92 C 921.43 745.95 911.87 753.30 898.01 753.01 C 884.15 752.71 880.56 736.05 888.00 723.00
C 904.00 724.15 915.83 717.19 928.30 710.30 C 940.78 703.41 945.39 699.14 953.29 686.30 C 961.19 673.46 942.44 662.72 930.10 668.10 C 917.75 673.48 912.16 678.16 901.25 688.25 C 890.33 698.34 883.86 705.39 878.77 716.77 C 873.69 728.16 861.72 736.59 852.77 742.43 C 843.82 748.27 828.39 755.92 818.75 745.25 C 809.12 734.58 805.68 722.67 807.00 711.00
C 812.90 713.98 817.24 714.07 823.00 715.00
C 826.63 715.16 830.37 715.11 834.00 715.00
C 848.22 714.00 859.56 705.93 871.75 697.75 C 883.95 689.57 884.13 664.05 867.08 660.07 C 850.02 656.09 834.91 667.84 821.00 673.00
C 824.54 662.31 834.39 654.66 841.29 645.30 C 848.19 635.95 855.43 628.45 862.00 618.00
C 858.18 613.94 853.30 617.13 848.00 615.00
C 840.00 624.36 831.74 633.32 825.24 642.23 C 818.74 651.14 813.06 658.81 806.75 668.75 C 800.44 678.70 791.74 690.74 786.30 699.30 C 780.86 707.86 769.79 719.86 761.25 727.25 C 752.70 734.64 744.66 741.26 735.70 746.69 C 726.74 752.13 711.21 757.92 702.30 749.70 C 693.40 741.47 704.36 723.23 709.41 715.75 C 714.47 708.28 723.85 695.71 733.25 689.39 C 742.64 683.08 747.88 677.90 758.00 679.00
C 751.49 681.75 746.85 701.19 757.99 698.99 C 769.13 696.79 769.03 691.65 772.00 682.00 C 774.97 672.36 757.88 663.64 749.70 667.69 C 741.51 671.74 736.27 671.85 729.25 678.25 C 722.22 684.64 714.83 689.51 708.09 697.08 C 701.35 704.66 700.42 707.80 694.77 716.77 C 689.12 725.74 688.19 733.19 688.00 745.00
C 697.45 764.04 721.14 759.81 734.75 751.20 C 748.36 742.58 757.35 737.42 770.00 724.00
C 766.42 734.99 755.72 751.65 771.00 757.00
C 778.55 744.74 782.50 733.47 790.00 723.00
C 796.71 734.49 804.42 756.97 824.00 759.00 C 843.58 761.03 857.81 744.57 872.00 735.00
C 869.56 738.69 875.07 740.90 872.00 745.00
C 881.54 762.81 902.60 760.79 917.30 752.30 C 932.01 743.82 939.71 736.38 953.00 727.00
C 950.78 734.57 952.23 742.73 954.00 751.00
C 963.55 759.76 978.35 757.08 988.26 754.60 C 998.17 752.11 1007.12 746.71 1015.75 741.75 C 1024.39 736.80 1028.88 728.19 1038.00 727.00
C 1032.07 737.31 1036.32 755.38 1049.00 757.00 C 1061.68 758.62 1077.28 753.36 1085.25 749.39 C 1093.21 745.42 1102.87 741.36 1111.23 733.57 C 1119.59 725.78 1131.34 715.91 1133.00 706.00
C 1125.61 717.61 1113.71 722.13 1105.92 730.92 C 1098.13 739.71 1083.49 743.93 1073.30 748.29 C 1063.12 752.65 1043.67 752.48 1045.66 738.68 C 1047.65 724.87 1051.75 718.58 1058.61 707.75 C 1065.46 696.92 1066.91 687.18 1076.25 679.25 C 1085.58 671.32 1102.20 676.02 1113.90 672.90 C 1125.61 669.79 1139.51 668.49 1151.00 667.00
C 1151.57 662.24 1144.21 664.00 1141.00 664.00
M 798.00 707.00 
C 799.09 698.03 808.01 689.95 813.75 684.75 C 819.50 679.56 832.17 673.45 839.23 670.79 C 846.29 668.12 860.43 660.88 867.75 669.25 C 875.07 677.62 860.92 687.22 855.23 692.24 C 849.54 697.25 839.56 699.97 831.25 703.40 C 822.95 706.83 809.00 711.39 798.00 707.00
M 1047.00 671.00 
C 1045.03 677.92 1056.70 676.28 1061.00 678.00
C 1056.81 688.66 1049.26 695.81 1046.87 703.92 C 1044.49 712.03 1036.31 719.44 1027.75 725.80 C 1019.20 732.16 1012.55 741.24 1001.77 744.77 C 990.99 748.30 986.10 751.35 972.33 751.33 C 958.56 751.31 960.60 735.51 964.64 727.30 C 968.68 719.09 972.01 710.54 977.19 701.75 C 982.37 692.95 988.43 684.53 996.00 676.00
C 1013.80 676.48 1028.70 670.44 1047.00 671.00
M 949.00 676.00 
C 948.33 689.51 937.12 698.28 927.23 705.24 C 917.34 712.19 907.18 717.31 893.00 717.00
C 898.66 706.47 906.32 697.22 916.30 689.30 C 926.29 681.38 935.93 670.97 949.00 676.00 Z"/>
</g>
<g fill="#3D3D3D" fill-opacity="0.46" stroke="None">
<path d="
M 980.00 649.00 
C 977.36 649.68 970.40 649.85 970.00 647.00
C 968.53 647.27 969.11 649.00 969.00 650.00
C 972.78 650.09 976.88 650.31 980.00 649.00 Z"/>
</g>
<g fill="#000000" fill-opacity="0.96" stroke="None">
<path d="
M 687.00 686.00 
C 685.40 676.38 687.61 662.15 676.02 659.98 C 664.44 657.80 658.44 665.40 650.75 670.74 C 643.07 676.07 639.15 682.06 633.75 688.75 C 628.36 695.44 623.60 700.11 619.13 708.08 C 614.66 716.05 610.85 721.74 608.34 730.32 C 605.83 738.91 611.43 750.42 618.00 756.00
C 637.76 759.13 650.65 745.12 661.25 732.25 C 671.85 719.37 684.60 709.00 683.00 693.00
C 690.19 690.17 697.28 688.48 703.00 682.00
C 697.28 684.63 692.37 683.77 687.00 686.00
M 666.00 680.00 
C 670.88 686.71 681.41 696.97 674.08 706.08 C 666.74 715.18 664.04 721.25 655.25 730.25 C 646.45 739.25 640.02 745.92 629.32 747.34 C 618.62 748.75 618.82 732.93 624.32 724.32 C 629.82 715.72 635.27 705.62 642.75 697.75 C 650.23 689.89 656.37 683.22 666.00 680.00 Z"/>
</g>
<g fill="#B1B1B1" fill-opacity="0.45" stroke="None">
<path d="
M 1055.00 664.00 
C 1061.12 663.54 1068.29 665.57 1073.00 662.00
C 1068.27 664.45 1059.89 662.99 1055.00 664.00 Z"/>
</g>
<g fill="#B2B2B2" fill-opacity="0.40" stroke="None">
<path d="
M 1095.00 665.00 
C 1094.02 664.42 1092.88 662.63 1093.00 662.00
C 1091.95 665.26 1092.35 663.89 1095.00 665.00 Z"/>
</g>
<g fill="#AEAEAE" fill-opacity="0.47" stroke="None">
<path d="
M 972.00 664.00 
C 976.85 663.31 983.41 665.61 988.00 664.00
C 983.72 661.98 976.38 662.81 972.00 664.00 Z"/>
</g>
<g fill="#999999" fill-opacity="0.47" stroke="None">
<path d="
M 1126.00 665.00 
C 1130.85 664.53 1136.74 664.41 1141.00 664.00
C 1135.85 664.00 1130.49 664.04 1126.00 665.00 Z"/>
</g>
<g fill="#000000" fill-opacity="0.02" stroke="None">
<path d="
M 798.00 707.00 
C 809.00 711.39 822.95 706.83 831.25 703.40 C 839.56 699.97 849.54 697.25 855.23 692.24 C 860.92 687.22 875.07 677.62 867.75 669.25 C 860.43 660.88 846.29 668.12 839.23 670.79 C 832.17 673.45 819.50 679.56 813.75 684.75 C 808.01 689.95 799.09 698.03 798.00 707.00 Z"/>
</g>
<g fill="#000000" fill-opacity="0.01" stroke="None">
<path d="
M 1047.00 671.00 
C 1028.70 670.44 1013.80 676.48 996.00 676.00
C 988.43 684.53 982.37 692.95 977.19 701.75 C 972.01 710.54 968.68 719.09 964.64 727.30 C 960.60 735.51 958.56 751.31 972.33 751.33 C 986.10 751.35 990.99 748.30 1001.77 744.77 C 1012.55 741.24 1019.20 732.16 1027.75 725.80 C 1036.31 719.44 1044.49 712.03 1046.87 703.92 C 1049.26 695.81 1056.81 688.66 1061.00 678.00
C 1056.70 676.28 1045.03 677.92 1047.00 671.00 Z"/>
</g>
<g fill="#000000" fill-opacity="0.02" stroke="None">
<path d="
M 949.00 676.00 
C 935.93 670.97 926.29 681.38 916.30 689.30 C 906.32 697.22 898.66 706.47 893.00 717.00
C 907.18 717.31 917.34 712.19 927.23 705.24 C 937.12 698.28 948.33 689.51 949.00 676.00 Z"/>
</g>
<g fill="#020202" fill-opacity="0.88" stroke="None">
<path d="
M 536.00 688.00 
C 536.48 680.20 522.29 669.33 521.00 683.00
C 524.72 686.29 528.75 689.49 536.00 688.00 Z"/>
</g>
<g fill="#000000" fill-opacity="0.01" stroke="None">
<path d="
M 666.00 680.00 
C 656.37 683.22 650.23 689.89 642.75 697.75 C 635.27 705.62 629.82 715.72 624.32 724.32 C 618.82 732.93 618.62 748.75 629.32 747.34 C 640.02 745.92 646.45 739.25 655.25 730.25 C 664.04 721.25 666.74 715.18 674.08 706.08 C 681.41 696.97 670.88 686.71 666.00 680.00 Z"/>
</g>
<g fill="#000000" fill-opacity="0.98" stroke="None">
<path d="
M 371.00 718.00 
C 354.66 714.49 346.26 703.56 338.00 692.00
C 328.14 718.96 321.91 765.05 330.41 793.25 C 338.91 821.45 360.60 846.52 391.00 852.00
C 394.13 846.84 400.97 843.67 403.00 838.00
C 381.36 834.28 364.15 819.42 361.02 794.03 C 357.89 768.63 362.74 740.02 371.00 718.00 Z"/>
</g>
<g fill="#636363" fill-opacity="0.47" stroke="None">
<path d="
M 443.00 697.00 
C 448.72 696.76 457.22 698.55 462.00 696.00
C 456.97 697.76 447.94 696.20 443.00 697.00 Z"/>
</g>
<g fill="#808080" fill-opacity="0.50" stroke="None">
<path d="
M 439.00 708.00 
C 443.98 708.34 449.02 707.75 454.00 708.00
C 451.93 704.66 441.61 707.92 439.00 708.00 Z"/>
</g>
<g fill="#848484" fill-opacity="0.46" stroke="None">
<path d="
M 545.00 709.00 
C 536.87 709.79 527.13 709.79 519.00 709.00
C 526.57 710.62 537.36 710.64 545.00 709.00 Z"/>
</g>
<g fill="#999999" fill-opacity="0.41" stroke="None">
<path d="
M 834.00 715.00 
C 830.37 715.11 826.63 715.16 823.00 715.00
C 826.66 715.59 830.29 715.55 834.00 715.00 Z"/>
</g>
<g fill="#000000" fill-opacity="0.98" stroke="None">
<path d="
M 665.00 863.00 
C 670.55 863.54 676.42 863.00 682.00 863.00
C 694.44 863.00 708.01 863.45 720.00 864.00 C 731.99 864.55 744.81 863.60 756.00 866.00
C 767.57 867.12 781.43 867.12 793.00 866.00
C 803.73 865.98 814.86 863.29 825.00 866.00
C 811.54 889.95 801.85 912.60 793.26 943.25 C 784.68 973.90 789.89 1012.52 822.00 1022.00
C 826.03 1022.65 830.91 1022.12 835.00 1022.00
C 844.64 1020.44 856.22 1017.04 865.31 1012.31 C 874.39 1007.57 884.97 1003.00 890.70 998.70 C 896.43 994.39 911.43 984.01 905.00 976.00
C 893.77 987.57 879.53 996.77 867.07 1002.07 C 854.62 1007.37 830.15 1013.38 824.26 994.75 C 818.37 976.11 827.04 962.80 830.94 947.08 C 834.83 931.37 842.14 917.08 848.79 903.23 C 855.44 889.38 863.43 870.80 871.00 858.00
C 891.59 855.42 910.71 849.55 930.00 835.00
C 929.35 831.21 930.10 827.56 925.00 827.00
C 912.52 838.64 894.81 842.09 879.00 843.00
C 895.44 817.22 909.21 792.08 926.00 765.00
C 912.87 771.14 896.81 778.16 882.00 771.00
C 864.48 797.92 850.01 821.79 835.00 848.00
C 817.96 849.15 795.74 849.81 778.01 847.99 C 760.28 846.17 745.05 846.98 729.03 844.98 C 713.00 842.97 698.21 841.07 682.67 839.67 C 667.13 838.27 649.53 837.40 634.00 835.00
C 639.27 827.32 645.24 818.68 649.25 811.25 C 653.26 803.83 660.91 796.56 664.81 789.25 C 668.70 781.93 675.09 772.71 679.81 766.25 C 684.52 759.78 671.97 750.66 674.00 742.00
C 662.74 750.50 656.17 762.14 644.00 766.00
C 633.48 789.68 614.81 811.61 602.00 835.00
C 593.75 834.23 582.05 835.68 573.22 834.78 C 564.40 833.88 557.11 836.20 548.67 836.67 C 540.24 837.13 534.75 838.25 526.23 840.21 C 517.71 842.18 518.04 841.53 509.25 845.81 C 500.46 850.09 485.59 859.93 477.75 868.75 C 469.92 877.57 469.06 875.75 463.75 883.75 C 458.44 891.76 456.28 889.71 452.11 898.11 C 447.94 906.51 461.74 903.91 464.61 896.75 C 467.47 889.60 470.41 889.07 475.23 884.23 C 480.05 879.39 485.73 874.22 492.77 871.77 C 499.81 869.32 503.50 866.56 509.78 865.22 C 516.05 863.87 523.76 863.55 531.33 862.67 C 538.90 861.79 549.10 861.29 558.00 862.00 C 566.90 862.71 575.60 856.97 585.00 861.00
C 576.74 872.63 571.28 884.20 563.30 897.30 C 555.32 910.40 547.59 924.21 540.77 936.77 C 533.95 949.33 524.92 964.09 520.13 974.08 C 515.34 984.07 506.54 998.56 506.00 1015.00
C 514.08 1022.01 524.90 1019.53 532.75 1010.75 C 540.60 1001.97 543.23 992.76 548.70 982.70 C 554.16 972.63 557.60 964.34 562.70 955.70 C 567.79 947.05 571.16 938.59 576.75 929.75 C 582.33 920.90 584.97 913.89 590.70 905.70 C 596.43 897.50 598.79 889.17 604.25 882.25 C 609.70 875.32 613.48 858.91 625.00 861.00 C 636.52 863.09 653.71 860.58 665.00 863.00 Z"/>
</g>
<g fill="#000000" fill-opacity="0.97" stroke="None">
<path d="
M 526.00 760.00 
C 505.30 797.49 474.74 836.98 429.00 839.00
C 423.93 844.23 424.24 848.15 421.00 856.00
C 445.25 854.84 468.80 845.39 488.25 828.25 C 507.69 811.11 520.89 794.01 531.00 773.00
C 527.11 770.59 526.61 765.36 526.00 760.00 Z"/>
</g>
<g fill="#000000" fill-opacity="0.93" stroke="None">
<path d="
M 422.00 835.00 
C 420.30 833.48 418.68 835.87 417.00 834.00
C 404.83 849.91 383.62 869.36 369.00 886.00
C 362.42 879.32 355.08 869.61 346.23 874.23 C 337.38 878.85 338.39 893.42 342.00 900.00
C 344.51 893.93 343.20 882.77 351.10 880.12 C 359.00 877.47 363.11 882.40 368.00 889.00
C 358.35 898.03 353.40 905.26 346.77 915.77 C 340.14 926.28 331.40 938.73 333.00 951.00
C 340.18 947.79 340.68 939.35 345.30 934.30 C 349.92 929.25 351.34 918.75 356.23 913.23 C 361.12 907.72 361.42 898.40 368.11 894.11 C 374.79 889.82 376.40 905.76 377.88 910.10 C 379.37 914.44 378.97 928.06 377.71 934.71 C 376.44 941.35 375.76 951.24 381.00 958.00
C 383.36 956.82 385.88 961.06 389.00 958.00
C 382.62 943.02 389.69 925.00 392.79 912.23 C 395.88 899.46 398.87 889.75 403.41 876.75 C 407.95 863.75 415.22 848.94 422.00 835.00
M 382.00 911.00 
C 376.20 904.75 378.73 895.16 372.00 891.00
C 377.08 878.46 388.84 869.84 399.00 858.00
C 404.42 862.94 396.36 870.35 395.08 876.08 C 393.79 881.81 388.86 887.63 387.29 893.30 C 385.71 898.98 383.91 906.28 382.00 911.00 Z"/>
</g>
<g fill="#000000" fill-opacity="0.04" stroke="None">
<path d="
M 382.00 911.00 
C 383.91 906.28 385.71 898.98 387.29 893.30 C 388.86 887.63 393.79 881.81 395.08 876.08 C 396.36 870.35 404.42 862.94 399.00 858.00
C 388.84 869.84 377.08 878.46 372.00 891.00
C 378.73 895.16 376.20 904.75 382.00 911.00 Z"/>
</g>
<g fill="#585858" fill-opacity="0.47" stroke="None">
<path d="
M 682.00 863.00 
C 676.42 863.00 670.55 863.54 665.00 863.00
C 670.42 864.16 676.60 863.52 682.00 863.00 Z"/>
</g>
<g fill="#707070" fill-opacity="0.47" stroke="None">
<path d="
M 793.00 866.00 
C 781.43 867.12 767.57 867.12 756.00 866.00
C 766.35 868.22 782.58 868.23 793.00 866.00 Z"/>
</g>
<g fill="#555555" fill-opacity="0.42" stroke="None">
<path d="
M 835.00 1022.00 
C 830.91 1022.12 826.03 1022.65 822.00 1022.00
C 826.28 1023.26 830.74 1022.63 835.00 1022.00 Z"/>
</g>
</svg>