<svg xmlns="http://www.w3.org/2000/svg" xmlns:v="https://svgstorm.com"
viewBox = "0 0 1500 1500"
width="1500"
height="1500">
<g fill="None" fill-opacity="0.0" stroke="#000000" stroke-opacity="0.00" stroke-width="0.3"><path d="
M 0.00 1500.00 
L 1500.00 1500.00
L 1500.00 0.00
L 0.00 0.00
L 0.00 1500.00
M 1026.00 630.00 
C 1015.81 622.87 1003.51 624.33 995.25 633.25 C 986.99 642.17 981.48 652.34 968.00 651.00
C 971.48 643.97 977.56 637.89 982.75 631.75 C 987.94 625.61 992.86 619.24 998.25 613.25 C 1003.65 607.27 1008.81 601.16 1014.25 595.25 C 1019.69 589.34 1025.65 583.83 1030.75 577.75 C 1035.86 571.68 1042.23 566.52 1047.75 560.75 C 1053.27 554.98 1059.26 549.54 1065.25 544.25 C 1071.23 538.96 1077.03 533.42 1083.25 528.25 C 1089.47 523.08 1095.60 518.06 1102.25 513.25 C 1108.89 508.43 1114.91 503.42 1122.23 499.23 C 1129.55 495.04 1135.47 489.82 1144.08 487.08 C 1152.69 484.33 1157.04 476.26 1168.01 477.01 C 1178.97 477.76 1169.03 489.76 1161.30 492.30 C 1153.57 494.84 1148.76 502.86 1141.92 506.92 C 1135.08 510.98 1130.42 518.36 1123.92 522.92 C 1117.42 527.47 1112.94 534.58 1106.75 539.75 C 1100.56 544.92 1095.85 551.55 1090.25 557.25 C 1084.65 562.94 1079.09 568.79 1073.75 574.75 C 1068.42 580.71 1063.00 586.64 1057.75 592.75 C 1052.50 598.86 1047.19 604.82 1042.08 611.08 C 1036.97 617.35 1031.00 623.65 1026.00 630.00
M 673.00 494.00 
C 687.82 494.00 705.65 495.64 719.02 499.98 C 732.40 504.31 742.59 509.27 753.70 517.30 C 764.80 525.34 771.18 533.79 776.92 546.08 C 782.67 558.36 783.30 578.09 780.67 591.67 C 778.04 605.25 773.31 618.08 767.08 630.08 C 760.84 642.07 755.03 654.75 740.93 655.93 C 726.83 657.10 719.83 675.95 706.00 666.00
C 724.69 635.00 736.22 610.34 744.00 574.00 C 751.78 537.65 719.20 502.14 680.00 509.00
C 675.67 509.00 671.33 509.00 667.00 509.00
C 655.45 509.00 641.98 509.36 631.00 511.00 C 620.02 512.64 608.73 514.95 598.33 517.33 C 587.93 519.71 578.88 523.36 568.98 525.98 C 559.07 528.59 551.23 534.81 541.77 537.77 C 532.31 540.73 525.83 550.32 515.98 546.02 C 506.12 541.73 492.29 542.72 482.00 541.00
C 536.51 510.36 597.13 493.83 661.00 494.00
C 664.77 493.63 669.29 493.64 673.00 494.00
M 698.00 549.00 
C 691.09 558.21 678.92 565.49 670.25 575.25 C 661.58 585.01 652.10 592.98 644.25 603.25 C 636.40 613.51 627.24 623.15 619.75 633.75 C 612.27 644.35 604.25 654.19 597.25 665.25 C 590.25 676.30 583.32 688.60 577.00 700.00
C 581.38 700.89 600.58 691.63 595.74 698.74 C 590.90 705.86 578.65 704.07 572.00 707.00
C 568.85 716.02 561.71 726.91 558.69 735.69 C 555.68 744.48 546.77 762.65 558.08 767.92 C 569.39 773.20 579.48 757.17 588.00 757.00
C 580.15 769.01 550.80 785.19 541.25 766.75 C 531.70 748.32 546.49 726.35 553.00 710.00
C 540.68 708.81 528.32 711.58 516.00 710.00 C 503.68 708.42 492.71 710.83 480.00 709.00 C 467.29 707.17 463.48 714.63 458.08 724.08 C 452.68 733.53 450.87 738.93 444.70 747.70 C 438.52 756.46 441.22 763.65 431.25 771.25 C 421.28 778.85 420.30 763.22 426.77 755.77 C 433.24 748.32 434.18 739.39 439.77 731.77 C 445.37 724.15 448.50 716.01 453.00 708.00
C 442.18 707.16 429.80 708.71 419.98 710.98 C 410.15 713.25 406.99 722.10 399.00 726.00
C 403.27 713.56 413.60 706.99 425.03 701.03 C 436.45 695.06 458.74 701.69 465.77 689.77 C 472.80 677.85 478.75 669.35 485.77 657.77 C 492.79 646.19 498.26 637.25 505.30 625.31 C 512.35 613.36 517.54 602.41 520.00 588.00 C 522.46 573.58 511.11 561.73 496.00 562.00 C 480.88 562.28 463.41 563.43 450.32 568.32 C 437.23 573.22 426.44 577.91 415.92 585.92 C 405.40 593.92 397.33 600.69 388.75 610.75 C 380.17 620.81 374.03 630.02 368.23 642.23 C 362.43 654.44 358.98 671.13 362.93 685.07 C 366.87 699.01 386.72 702.19 399.02 697.02 C 411.33 691.86 419.17 683.41 425.92 671.92 C 432.68 660.44 435.66 644.01 428.00 632.00
C 442.42 637.95 437.62 660.47 431.23 672.23 C 424.84 683.99 417.46 694.37 404.92 700.92 C 392.39 707.48 373.87 708.06 361.75 699.25 C 349.64 690.43 345.34 673.55 347.00 659.00 C 348.66 644.45 354.37 631.07 362.30 619.30 C 370.23 607.54 378.28 600.07 389.08 591.08 C 399.88 582.10 409.92 575.75 423.02 570.03 C 436.13 564.30 450.11 559.10 465.02 557.02 C 479.94 554.95 500.72 555.38 514.68 560.32 C 528.64 565.27 538.36 579.47 536.00 594.00 C 533.64 608.53 525.29 619.29 518.08 631.08 C 510.86 642.86 503.12 652.58 496.23 664.23 C 489.34 675.88 480.81 685.96 475.00 698.00
C 488.67 696.67 505.74 701.53 518.67 701.33 C 531.60 701.13 552.14 707.94 559.92 697.92 C 567.71 687.91 571.42 678.11 578.31 668.31 C 585.19 658.50 591.13 649.32 597.92 639.92 C 604.71 630.52 611.33 622.52 618.75 613.75 C 626.17 604.98 632.87 596.41 641.25 588.25 C 649.63 580.08 657.40 572.49 666.70 565.70 C 676.00 558.90 686.19 550.46 698.00 549.00
M 478.00 578.00 
C 470.16 582.43 463.72 591.58 456.25 596.25 C 448.78 600.92 444.04 612.97 436.25 616.25 C 428.45 619.53 411.15 620.89 414.00 634.00 C 416.85 647.12 406.50 649.86 401.75 659.75 C 396.99 669.64 390.19 674.70 387.00 685.00
C 367.18 685.54 376.03 658.89 381.32 647.32 C 386.62 635.76 395.37 624.34 404.75 614.75 C 414.13 605.16 423.65 595.95 436.08 590.08 C 448.50 584.20 464.19 575.67 478.00 578.00
M 1009.00 665.00 
C 1013.42 667.50 1021.68 664.18 1027.00 665.00 C 1032.32 665.82 1040.44 665.11 1046.00 665.00
C 1052.77 664.86 1063.44 664.48 1070.00 664.00 C 1076.56 663.52 1076.72 653.96 1081.75 650.75 C 1086.78 647.54 1087.54 639.43 1095.03 639.03 C 1102.51 638.62 1105.26 647.92 1102.25 651.25 C 1099.23 654.57 1092.05 664.05 1093.00 665.00
C 1097.35 667.46 1105.86 664.08 1111.00 665.00 C 1116.14 665.92 1123.64 665.00 1129.00 665.00
C 1136.50 665.00 1145.33 664.17 1152.00 666.00
C 1140.97 671.92 1124.51 669.89 1113.00 673.00 C 1101.49 676.11 1083.43 673.66 1075.25 682.25 C 1067.07 690.83 1061.06 700.43 1056.70 710.70 C 1052.33 720.96 1041.14 732.67 1045.00 745.00 C 1048.86 757.33 1070.98 750.96 1080.03 747.03 C 1089.07 743.09 1100.81 735.76 1108.75 728.75 C 1116.70 721.75 1124.93 712.05 1134.00 707.00
C 1127.51 721.34 1117.68 728.51 1104.77 738.77 C 1091.86 749.03 1079.46 753.11 1062.33 757.33 C 1045.20 761.55 1025.76 745.90 1037.00 726.00
C 1026.42 734.09 1019.88 740.38 1007.92 746.92 C 995.97 753.47 984.03 757.93 969.00 758.00 C 953.97 758.07 946.12 740.51 953.00 727.00
C 939.88 738.58 928.00 747.27 912.77 755.77 C 897.54 764.27 868.46 758.94 871.00 736.00
C 857.59 746.35 843.19 761.04 825.00 760.00 C 806.81 758.96 796.21 739.44 790.00 725.00
C 784.98 731.39 780.00 737.29 777.69 745.70 C 775.39 754.10 767.29 760.88 762.23 750.77 C 757.17 740.66 767.99 735.14 769.00 726.00
C 762.05 732.57 756.64 737.36 748.92 742.92 C 741.20 748.48 734.15 753.24 724.92 756.92 C 715.70 760.61 704.90 761.53 695.77 755.23 C 686.64 748.93 685.67 737.33 688.93 727.93 C 692.18 718.53 696.77 711.20 702.75 703.75 C 708.74 696.30 713.72 690.74 720.75 684.75 C 727.77 678.75 735.72 673.38 743.70 669.70 C 751.67 666.01 767.11 665.67 769.92 675.08 C 772.74 684.48 770.26 696.72 758.78 699.78 C 747.29 702.83 749.04 685.21 756.00 679.00
C 745.65 680.21 738.25 686.88 729.92 692.92 C 721.59 698.96 716.24 705.94 710.70 714.70 C 705.15 723.45 697.86 730.77 699.00 743.00 C 700.14 755.23 717.40 756.08 726.08 751.08 C 734.75 746.07 743.64 741.78 751.23 735.23 C 758.82 728.68 765.33 723.13 771.75 715.75 C 778.17 708.38 785.15 701.21 789.75 692.75 C 794.35 684.30 800.87 676.97 805.75 668.75 C 810.64 660.54 817.67 652.68 822.75 644.75 C 827.83 636.83 835.69 629.46 841.25 622.25 C 846.81 615.04 868.50 610.97 857.08 626.08 C 845.67 641.19 831.51 656.43 821.00 672.00
C 828.24 669.28 835.75 665.48 843.07 663.07 C 850.40 660.66 862.06 657.82 869.07 661.93 C 876.09 666.03 881.54 672.94 881.00 681.00 C 880.46 689.06 875.61 695.51 869.30 700.30 C 863.00 705.10 857.42 708.78 849.77 711.77 C 842.12 714.76 832.01 717.27 823.00 716.00 C 813.99 714.73 803.50 710.84 806.78 721.22 C 810.06 731.61 810.99 734.98 816.25 742.75 C 821.50 750.53 830.14 752.63 838.02 750.02 C 845.91 747.41 851.91 743.77 858.08 739.08 C 864.26 734.39 870.31 730.26 873.97 723.97 C 877.63 717.69 880.76 710.28 885.75 704.75 C 890.74 699.23 894.38 693.22 900.25 688.25 C 906.12 683.28 911.04 678.98 917.75 674.75 C 924.45 670.51 932.60 667.31 941.00 667.00 C 949.41 666.70 957.43 675.48 954.67 683.67 C 951.91 691.86 948.19 696.68 941.75 701.75 C 935.31 706.83 930.65 710.97 922.92 713.92 C 915.20 716.88 910.46 723.13 900.98 722.98 C 891.49 722.82 884.47 726.56 884.02 737.02 C 883.58 747.49 888.66 753.67 898.00 754.00 C 907.34 754.33 913.67 749.78 920.70 745.70 C 927.73 741.62 932.20 737.14 938.25 732.25 C 944.29 727.36 948.68 722.69 954.25 717.25 C 959.82 711.80 962.61 704.77 965.92 697.92 C 969.24 691.08 973.52 684.19 976.00 677.00
C 962.15 686.15 957.59 661.72 971.02 664.02 C 984.45 666.32 991.24 661.24 996.77 651.77 C 1002.30 642.30 1009.86 636.13 1018.25 642.75 C 1026.63 649.37 1009.17 659.05 1009.00 665.00
M 685.00 685.00 
C 692.31 686.05 698.61 683.37 705.00 681.00
C 701.02 688.32 690.90 689.76 684.00 694.00
C 681.83 709.07 673.97 718.99 663.75 730.75 C 653.53 742.51 647.90 749.71 631.98 755.98 C 616.05 762.24 601.57 741.82 608.98 726.98 C 616.38 712.14 620.29 703.87 630.75 691.75 C 641.21 679.63 645.60 673.03 659.23 663.23 C 672.86 653.43 694.45 665.53 685.00 685.00
M 536.00 689.00 
C 530.04 691.82 516.02 685.09 522.26 678.26 C 528.49 671.42 535.06 684.92 536.00 689.00
M 371.00 718.00 
C 355.65 757.04 348.00 827.90 402.00 839.00
C 401.14 845.47 393.07 848.50 390.00 854.00
C 320.21 837.28 312.14 747.19 338.00 692.00
C 344.60 704.37 356.53 716.20 371.00 718.00
M 910.00 735.00 
C 909.40 737.73 904.75 738.59 902.00 739.00
C 903.41 735.69 907.43 736.59 910.00 735.00
M 780.00 848.00 
C 795.66 848.00 811.35 848.31 827.00 848.00
C 839.18 847.76 842.00 832.44 848.77 823.77 C 855.54 815.10 859.47 802.87 866.31 794.31 C 873.14 785.74 875.96 769.22 889.00 773.00 C 902.05 776.77 914.39 769.36 926.00 765.00
C 911.30 791.48 893.90 817.05 880.00 844.00
C 897.21 842.57 912.85 834.80 928.00 828.00
C 934.04 837.61 922.57 840.71 915.92 844.92 C 909.28 849.14 899.93 851.67 892.78 854.78 C 885.63 857.89 872.51 856.20 868.23 863.23 C 863.95 870.26 861.11 877.80 857.08 885.08 C 853.04 892.36 849.99 900.57 846.08 908.08 C 842.16 915.58 839.55 923.22 836.08 931.08 C 832.60 938.93 830.49 947.36 827.68 955.68 C 824.87 964.00 822.89 974.92 823.00 984.00 C 823.11 993.08 824.09 1003.04 833.70 1006.31 C 843.30 1009.58 854.65 1005.45 863.22 1003.22 C 871.80 1001.00 877.31 994.92 885.08 992.08 C 892.85 989.25 895.88 979.82 903.25 977.25 C 910.62 974.67 903.80 991.35 896.92 993.92 C 890.04 996.49 884.26 1005.06 876.77 1007.77 C 869.28 1010.48 861.87 1015.67 853.93 1017.93 C 845.98 1020.18 835.60 1024.38 826.99 1023.99 C 818.39 1023.60 809.44 1020.89 803.30 1014.70 C 797.16 1008.51 793.96 1002.28 791.07 993.93 C 788.19 985.57 787.35 972.56 788.33 963.33 C 789.31 954.10 791.95 944.73 793.98 935.98 C 796.01 927.23 799.88 919.95 802.77 911.77 C 805.67 903.59 809.14 896.54 812.77 888.77 C 816.40 881.00 819.48 873.36 824.00 866.00
C 811.97 866.17 800.24 867.63 788.00 867.00
C 779.51 867.82 769.42 867.81 761.00 867.00
C 745.97 867.00 730.71 867.05 716.00 866.00 C 701.29 864.95 685.51 865.05 670.98 864.02 C 656.44 863.00 640.04 864.42 626.00 863.00 C 611.96 861.58 609.12 877.00 602.25 886.25 C 595.37 895.49 591.18 906.49 585.08 916.08 C 578.97 925.66 573.79 935.42 568.23 945.23 C 562.67 955.04 557.29 966.27 552.08 976.08 C 546.86 985.88 541.00 997.88 536.23 1007.23 C 531.46 1016.58 513.73 1026.92 506.70 1016.30 C 499.66 1005.68 511.77 991.78 515.77 981.77 C 519.77 971.76 526.66 960.62 531.77 950.77 C 536.88 940.92 542.70 931.06 548.25 921.25 C 553.81 911.45 559.62 901.14 565.31 891.31 C 570.99 881.47 577.57 872.02 583.00 862.00
C 571.44 861.58 558.02 862.12 546.99 862.99 C 535.97 863.86 521.93 863.40 512.00 866.00 C 502.06 868.60 493.12 870.75 485.30 876.30 C 477.49 881.86 469.61 885.44 465.70 894.70 C 461.78 903.95 447.09 908.21 451.77 897.77 C 456.45 887.33 462.50 884.82 468.75 876.75 C 475.00 868.68 480.65 865.16 488.08 859.08 C 495.51 853.01 502.48 848.19 511.68 844.68 C 520.88 841.16 530.75 838.45 541.22 837.22 C 551.69 835.99 565.90 834.25 577.00 835.00 C 588.10 835.75 601.28 836.71 605.77 826.77 C 610.26 816.84 616.37 812.68 620.77 803.77 C 625.17 794.86 630.76 789.66 635.25 781.25 C 639.74 772.85 644.26 765.13 652.75 760.75 C 661.23 756.36 664.85 747.14 673.00 743.00
C 674.86 749.28 675.86 757.08 682.00 761.00
C 667.21 786.51 649.66 810.82 634.00 836.00
C 682.99 838.69 730.65 846.68 780.00 848.00
M 420.00 856.00 
C 420.75 850.17 424.84 845.41 427.00 840.00
C 471.70 837.19 506.56 798.55 524.00 760.00
C 530.50 769.22 529.61 780.19 522.70 788.70 C 515.78 797.20 512.43 805.09 504.75 812.75 C 497.08 820.42 491.43 827.35 482.75 833.75 C 474.08 840.16 466.73 845.26 456.31 849.31 C 445.88 853.35 431.88 856.31 420.00 856.00
M 421.00 835.00 
C 405.56 874.72 382.52 915.82 388.00 960.00
C 372.42 958.91 374.00 940.51 376.98 928.98 C 379.95 917.45 376.03 902.24 369.00 893.00
C 362.08 902.14 357.14 912.80 351.70 922.70 C 346.25 932.59 341.78 945.75 332.00 951.00
C 332.29 925.67 353.35 907.86 366.00 888.00
C 361.30 884.10 355.55 878.01 348.78 881.78 C 342.01 885.55 344.04 895.42 342.00 901.00
C 336.54 894.98 335.67 879.79 344.08 875.08 C 352.50 870.38 363.98 878.90 368.00 886.00
C 377.49 878.29 383.81 867.15 393.25 859.25 C 402.69 851.35 409.35 838.02 421.00 835.00 Z"/>
</g>
<g fill="None" fill-opacity="0.0" stroke="#FEFEFE" stroke-opacity="0.95" stroke-width="0.3"><path d="
M 1026.00 630.00 
C 1031.00 623.65 1036.97 617.35 1042.08 611.08 C 1047.19 604.82 1052.50 598.86 1057.75 592.75 C 1063.00 586.64 1068.42 580.71 1073.75 574.75 C 1079.09 568.79 1084.65 562.94 1090.25 557.25 C 1095.85 551.55 1100.56 544.92 1106.75 539.75 C 1112.94 534.58 1117.42 527.47 1123.92 522.92 C 1130.42 518.36 1135.08 510.98 1141.92 506.92 C 1148.76 502.86 1153.57 494.84 1161.30 492.30 C 1169.03 489.76 1178.97 477.76 1168.01 477.01 C 1157.04 476.26 1152.69 484.33 1144.08 487.08 C 1135.47 489.82 1129.55 495.04 1122.23 499.23 C 1114.91 503.42 1108.89 508.43 1102.25 513.25 C 1095.60 518.06 1089.47 523.08 1083.25 528.25 C 1077.03 533.42 1071.23 538.96 1065.25 544.25 C 1059.26 549.54 1053.27 554.98 1047.75 560.75 C 1042.23 566.52 1035.86 571.68 1030.75 577.75 C 1025.65 583.83 1019.69 589.34 1014.25 595.25 C 1008.81 601.16 1003.65 607.27 998.25 613.25 C 992.86 619.24 987.94 625.61 982.75 631.75 C 977.56 637.89 971.48 643.97 968.00 651.00
C 981.48 652.34 986.99 642.17 995.25 633.25 C 1003.51 624.33 1015.81 622.87 1026.00 630.00 Z"/>
</g>
<g fill="None" fill-opacity="0.0" stroke="#676767" stroke-opacity="0.50" stroke-width="0.3"><path d="
M 661.00 494.00 
C 665.00 494.00 669.00 494.00 673.00 494.00
C 669.29 493.64 664.77 493.63 661.00 494.00 Z"/>
</g>
<g fill="None" fill-opacity="0.0" stroke="#FDFDFD" stroke-opacity="0.96" stroke-width="0.3"><path d="
M 667.00 509.00 
C 671.09 508.60 675.98 508.61 680.00 509.00
C 719.20 502.14 751.78 537.65 744.00 574.00 C 736.22 610.34 724.69 635.00 706.00 666.00
C 719.83 675.95 726.83 657.10 740.93 655.93 C 755.03 654.75 760.84 642.07 767.08 630.08 C 773.31 618.08 778.04 605.25 780.67 591.67 C 783.30 578.09 782.67 558.36 776.92 546.08 C 771.18 533.79 764.80 525.34 753.70 517.30 C 742.59 509.27 732.40 504.31 719.02 499.98 C 705.65 495.64 687.82 494.00 673.00 494.00
C 669.00 494.00 665.00 494.00 661.00 494.00
C 597.13 493.83 536.51 510.36 482.00 541.00
C 492.29 542.72 506.12 541.73 515.98 546.02 C 525.83 550.32 532.31 540.73 541.77 537.77 C 551.23 534.81 559.07 528.59 568.98 525.98 C 578.88 523.36 587.93 519.71 598.33 517.33 C 608.73 514.95 620.02 512.64 631.00 511.00 C 641.98 509.36 655.45 509.00 667.00 509.00 Z"/>
</g>
<g fill="None" fill-opacity="0.0" stroke="#8D8D8D" stroke-opacity="0.50" stroke-width="0.3"><path d="
M 667.00 509.00 
C 671.33 509.00 675.67 509.00 680.00 509.00
C 675.98 508.61 671.09 508.60 667.00 509.00 Z"/>
</g>
<g fill="None" fill-opacity="0.0" stroke="#FCFCFC" stroke-opacity="0.91" stroke-width="0.3"><path d="
M 698.00 549.00 
C 686.19 550.46 676.00 558.90 666.70 565.70 C 657.40 572.49 649.63 580.08 641.25 588.25 C 632.87 596.41 626.17 604.98 618.75 613.75 C 611.33 622.52 604.71 630.52 597.92 639.92 C 591.13 649.32 585.19 658.50 578.31 668.31 C 571.42 678.11 567.71 687.91 559.92 697.92 C 552.14 707.94 531.60 701.13 518.67 701.33 C 505.74 701.53 488.67 696.67 475.00 698.00
C 480.81 685.96 489.34 675.88 496.23 664.23 C 503.12 652.58 510.86 642.86 518.08 631.08 C 525.29 619.29 533.64 608.53 536.00 594.00 C 538.36 579.47 528.64 565.27 514.68 560.32 C 500.72 555.38 479.94 554.95 465.02 557.02 C 450.11 559.10 436.13 564.30 423.02 570.03 C 409.92 575.75 399.88 582.10 389.08 591.08 C 378.28 600.07 370.23 607.54 362.30 619.30 C 354.37 631.07 348.66 644.45 347.00 659.00 C 345.34 673.55 349.64 690.43 361.75 699.25 C 373.87 708.06 392.39 707.48 404.92 700.92 C 417.46 694.37 424.84 683.99 431.23 672.23 C 437.62 660.47 442.42 637.95 428.00 632.00
C 435.66 644.01 432.68 660.44 425.92 671.92 C 419.17 683.41 411.33 691.86 399.02 697.02 C 386.72 702.19 366.87 699.01 362.93 685.07 C 358.98 671.13 362.43 654.44 368.23 642.23 C 374.03 630.02 380.17 620.81 388.75 610.75 C 397.33 600.69 405.40 593.92 415.92 585.92 C 426.44 577.91 437.23 573.22 450.32 568.32 C 463.41 563.43 480.88 562.28 496.00 562.00 C 511.11 561.73 522.46 573.58 520.00 588.00 C 517.54 602.41 512.35 613.36 505.30 625.31 C 498.26 637.25 492.79 646.19 485.77 657.77 C 478.75 669.35 472.80 677.85 465.77 689.77 C 458.74 701.69 436.45 695.06 425.03 701.03 C 413.60 706.99 403.27 713.56 399.00 726.00
C 406.99 722.10 410.15 713.25 419.98 710.98 C 429.80 708.71 442.18 707.16 453.00 708.00
C 448.50 716.01 445.37 724.15 439.77 731.77 C 434.18 739.39 433.24 748.32 426.77 755.77 C 420.30 763.22 421.28 778.85 431.25 771.25 C 441.22 763.65 438.52 756.46 444.70 747.70 C 450.87 738.93 452.68 733.53 458.08 724.08 C 463.48 714.63 467.29 707.17 480.00 709.00 C 492.71 710.83 503.68 708.42 516.00 710.00 C 528.32 711.58 540.68 708.81 553.00 710.00
C 546.49 726.35 531.70 748.32 541.25 766.75 C 550.80 785.19 580.15 769.01 588.00 757.00
C 579.48 757.17 569.39 773.20 558.08 767.92 C 546.77 762.65 555.68 744.48 558.69 735.69 C 561.71 726.91 568.85 716.02 572.00 707.00
C 578.65 704.07 590.90 705.86 595.74 698.74 C 600.58 691.63 581.38 700.89 577.00 700.00
C 583.32 688.60 590.25 676.30 597.25 665.25 C 604.25 654.19 612.27 644.35 619.75 633.75 C 627.24 623.15 636.40 613.51 644.25 603.25 C 652.10 592.98 661.58 585.01 670.25 575.25 C 678.92 565.49 691.09 558.21 698.00 549.00 Z"/>
</g>
<g fill="None" fill-opacity="0.0" stroke="#FEFEFE" stroke-opacity="0.94" stroke-width="0.3"><path d="
M 478.00 578.00 
C 464.19 575.67 448.50 584.20 436.08 590.08 C 423.65 595.95 414.13 605.16 404.75 614.75 C 395.37 624.34 386.62 635.76 381.32 647.32 C 376.03 658.89 367.18 685.54 387.00 685.00
C 390.19 674.70 396.99 669.64 401.75 659.75 C 406.50 649.86 416.85 647.12 414.00 634.00 C 411.15 620.89 428.45 619.53 436.25 616.25 C 444.04 612.97 448.78 600.92 456.25 596.25 C 463.72 591.58 470.16 582.43 478.00 578.00 Z"/>
</g>
<g fill="None" fill-opacity="0.0" stroke="#FCFCFC" stroke-opacity="0.91" stroke-width="0.3"><path d="
M 1129.00 665.00 
C 1124.40 665.45 1116.12 667.18 1111.00 666.00 C 1105.88 664.82 1096.60 668.59 1093.00 665.00
C 1092.05 664.05 1099.23 654.57 1102.25 651.25 C 1105.26 647.92 1102.51 638.62 1095.03 639.03 C 1087.54 639.43 1086.78 647.54 1081.75 650.75 C 1076.72 653.96 1076.56 663.52 1070.00 664.00 C 1063.44 664.48 1052.77 664.86 1046.00 665.00
C 1041.36 665.56 1033.19 667.20 1028.00 666.00 C 1022.81 664.80 1012.67 668.67 1009.00 665.00
C 1009.17 659.05 1026.63 649.37 1018.25 642.75 C 1009.86 636.13 1002.30 642.30 996.77 651.77 C 991.24 661.24 984.45 666.32 971.02 664.02 C 957.59 661.72 962.15 686.15 976.00 677.00
C 973.52 684.19 969.24 691.08 965.92 697.92 C 962.61 704.77 959.82 711.80 954.25 717.25 C 948.68 722.69 944.29 727.36 938.25 732.25 C 932.20 737.14 927.73 741.62 920.70 745.70 C 913.67 749.78 907.34 754.33 898.00 754.00 C 888.66 753.67 883.58 747.49 884.02 737.02 C 884.47 726.56 891.49 722.82 900.98 722.98 C 910.46 723.13 915.20 716.88 922.92 713.92 C 930.65 710.97 935.31 706.83 941.75 701.75 C 948.19 696.68 951.91 691.86 954.67 683.67 C 957.43 675.48 949.41 666.70 941.00 667.00 C 932.60 667.31 924.45 670.51 917.75 674.75 C 911.04 678.98 906.12 683.28 900.25 688.25 C 894.38 693.22 890.74 699.23 885.75 704.75 C 880.76 710.28 877.63 717.69 873.97 723.97 C 870.31 730.26 864.26 734.39 858.08 739.08 C 851.91 743.77 845.91 747.41 838.02 750.02 C 830.14 752.63 821.50 750.53 816.25 742.75 C 810.99 734.98 810.06 731.61 806.78 721.22 C 803.50 710.84 813.99 714.73 823.00 716.00 C 832.01 717.27 842.12 714.76 849.77 711.77 C 857.42 708.78 863.00 705.10 869.30 700.30 C 875.61 695.51 880.46 689.06 881.00 681.00 C 881.54 672.94 876.09 666.03 869.07 661.93 C 862.06 657.82 850.40 660.66 843.07 663.07 C 835.75 665.48 828.24 669.28 821.00 672.00
C 831.51 656.43 845.67 641.19 857.08 626.08 C 868.50 610.97 846.81 615.04 841.25 622.25 C 835.69 629.46 827.83 636.83 822.75 644.75 C 817.67 652.68 810.64 660.54 805.75 668.75 C 800.87 676.97 794.35 684.30 789.75 692.75 C 785.15 701.21 778.17 708.38 771.75 715.75 C 765.33 723.13 758.82 728.68 751.23 735.23 C 743.64 741.78 734.75 746.07 726.08 751.08 C 717.40 756.08 700.14 755.23 699.00 743.00 C 697.86 730.77 705.15 723.45 710.70 714.70 C 716.24 705.94 721.59 698.96 729.92 692.92 C 738.25 686.88 745.65 680.21 756.00 679.00
C 749.04 685.21 747.29 702.83 758.78 699.78 C 770.26 696.72 772.74 684.48 769.92 675.08 C 767.11 665.67 751.67 666.01 743.70 669.70 C 735.72 673.38 727.77 678.75 720.75 684.75 C 713.72 690.74 708.74 696.30 702.75 703.75 C 696.77 711.20 692.18 718.53 688.93 727.93 C 685.67 737.33 686.64 748.93 695.77 755.23 C 704.90 761.53 715.70 760.61 724.92 756.92 C 734.15 753.24 741.20 748.48 748.92 742.92 C 756.64 737.36 762.05 732.57 769.00 726.00
C 767.99 735.14 757.17 740.66 762.23 750.77 C 767.29 760.88 775.39 754.10 777.69 745.70 C 780.00 737.29 784.98 731.39 790.00 725.00
C 796.21 739.44 806.81 758.96 825.00 760.00 C 843.19 761.04 857.59 746.35 871.00 736.00
C 868.46 758.94 897.54 764.27 912.77 755.77 C 928.00 747.27 939.88 738.58 953.00 727.00
C 946.12 740.51 953.97 758.07 969.00 758.00 C 984.03 757.93 995.97 753.47 1007.92 746.92 C 1019.88 740.38 1026.42 734.09 1037.00 726.00
C 1025.76 745.90 1045.20 761.55 1062.33 757.33 C 1079.46 753.11 1091.86 749.03 1104.77 738.77 C 1117.68 728.51 1127.51 721.34 1134.00 707.00
C 1124.93 712.05 1116.70 721.75 1108.75 728.75 C 1100.81 735.76 1089.07 743.09 1080.03 747.03 C 1070.98 750.96 1048.86 757.33 1045.00 745.00 C 1041.14 732.67 1052.33 720.96 1056.70 710.70 C 1061.06 700.43 1067.07 690.83 1075.25 682.25 C 1083.43 673.66 1101.49 676.11 1113.00 673.00 C 1124.51 669.89 1140.97 671.92 1152.00 666.00
C 1145.33 664.17 1136.50 665.00 1129.00 665.00
M 797.00 708.00 
C 799.39 699.70 806.14 691.94 812.75 686.75 C 819.37 681.56 828.13 675.28 835.69 672.70 C 843.26 670.11 858.89 661.47 865.75 669.25 C 872.60 677.03 861.10 687.94 854.30 692.30 C 847.50 696.67 838.57 701.70 829.78 704.78 C 820.99 707.85 807.05 710.06 797.00 708.00
M 1046.00 672.00 
C 1045.90 679.00 1055.33 678.86 1060.00 677.00
C 1054.85 688.12 1049.90 698.18 1044.23 709.23 C 1038.56 720.28 1029.00 724.02 1019.92 732.92 C 1010.83 741.82 999.57 743.40 987.93 749.93 C 976.28 756.45 955.74 748.27 961.99 733.99 C 968.25 719.72 970.60 712.49 978.25 701.25 C 985.91 690.02 988.08 679.36 1002.02 677.02 C 1015.97 674.69 1031.51 672.76 1046.00 672.00
M 893.00 717.00 
C 896.89 711.18 901.74 703.61 906.75 698.75 C 911.76 693.90 919.24 686.97 924.25 683.25 C 929.26 679.53 942.25 670.82 947.22 676.78 C 952.20 682.74 941.17 692.12 936.75 696.75 C 932.33 701.38 924.19 707.64 917.77 710.77 C 911.35 713.90 900.59 719.47 893.00 717.00 Z"/>
</g>
<g fill="None" fill-opacity="0.0" stroke="#FCFCFC" stroke-opacity="0.92" stroke-width="0.3"><path d="
M 685.00 685.00 
C 694.45 665.53 672.86 653.43 659.23 663.23 C 645.60 673.03 641.21 679.63 630.75 691.75 C 620.29 703.87 616.38 712.14 608.98 726.98 C 601.57 741.82 616.05 762.24 631.98 755.98 C 647.90 749.71 653.53 742.51 663.75 730.75 C 673.97 718.99 681.83 709.07 684.00 694.00
C 690.90 689.76 701.02 688.32 705.00 681.00
C 698.61 683.37 692.31 686.05 685.00 685.00
M 666.00 682.00 
C 672.71 689.35 679.06 699.12 671.70 707.70 C 664.33 716.27 662.56 723.88 654.08 731.08 C 645.60 738.28 642.38 746.48 629.99 747.99 C 617.60 749.51 619.50 731.01 625.31 723.31 C 631.11 715.60 635.29 706.30 642.25 699.25 C 649.21 692.20 655.22 682.31 666.00 682.00 Z"/>
</g>
<g fill="None" fill-opacity="0.0" stroke="#818181" stroke-opacity="0.50" stroke-width="0.3"><path d="
M 1046.00 665.00 
C 1040.44 665.11 1032.32 665.82 1027.00 665.00 C 1021.68 664.18 1013.42 667.50 1009.00 665.00
C 1012.67 668.67 1022.81 664.80 1028.00 666.00 C 1033.19 667.20 1041.36 665.56 1046.00 665.00 Z"/>
</g>
<g fill="None" fill-opacity="0.0" stroke="#818181" stroke-opacity="0.50" stroke-width="0.3"><path d="
M 1129.00 665.00 
C 1123.64 665.00 1116.14 665.92 1111.00 665.00 C 1105.86 664.08 1097.35 667.46 1093.00 665.00
C 1096.60 668.59 1105.88 664.82 1111.00 666.00 C 1116.12 667.18 1124.40 665.45 1129.00 665.00 Z"/>
</g>
<g fill="None" fill-opacity="0.0" stroke="#000000" stroke-opacity="0.00" stroke-width="0.3"><path d="
M 797.00 708.00 
C 807.05 710.06 820.99 707.85 829.78 704.78 C 838.57 701.70 847.50 696.67 854.30 692.30 C 861.10 687.94 872.60 677.03 865.75 669.25 C 858.89 661.47 843.26 670.11 835.69 672.70 C 828.13 675.28 819.37 681.56 812.75 686.75 C 806.14 691.94 799.39 699.70 797.00 708.00 Z"/>
</g>
<g fill="None" fill-opacity="0.0" stroke="#000000" stroke-opacity="0.00" stroke-width="0.3"><path d="
M 1046.00 672.00 
C 1031.51 672.76 1015.97 674.69 1002.02 677.02 C 988.08 679.36 985.91 690.02 978.25 701.25 C 970.60 712.49 968.25 719.72 961.99 733.99 C 955.74 748.27 976.28 756.45 987.93 749.93 C 999.57 743.40 1010.83 741.82 1019.92 732.92 C 1029.00 724.02 1038.56 720.28 1044.23 709.23 C 1049.90 698.18 1054.85 688.12 1060.00 677.00
C 1055.33 678.86 1045.90 679.00 1046.00 672.00 Z"/>
</g>
<g fill="None" fill-opacity="0.0" stroke="#000000" stroke-opacity="0.00" stroke-width="0.3"><path d="
M 893.00 717.00 
C 900.59 719.47 911.35 713.90 917.77 710.77 C 924.19 707.64 932.33 701.38 936.75 696.75 C 941.17 692.12 952.20 682.74 947.22 676.78 C 942.25 670.82 929.26 679.53 924.25 683.25 C 919.24 686.97 911.76 693.90 906.75 698.75 C 901.74 703.61 896.89 711.18 893.00 717.00 Z"/>
</g>
<g fill="None" fill-opacity="0.0" stroke="#F8F8F8" stroke-opacity="0.82" stroke-width="0.3"><path d="
M 536.00 689.00 
C 535.06 684.92 528.49 671.42 522.26 678.26 C 516.02 685.09 530.04 691.82 536.00 689.00 Z"/>
</g>
<g fill="None" fill-opacity="0.0" stroke="#000000" stroke-opacity="0.00" stroke-width="0.3"><path d="
M 666.00 682.00 
C 655.22 682.31 649.21 692.20 642.25 699.25 C 635.29 706.30 631.11 715.60 625.31 723.31 C 619.50 731.01 617.60 749.51 629.99 747.99 C 642.38 746.48 645.60 738.28 654.08 731.08 C 662.56 723.88 664.33 716.27 671.70 707.70 C 679.06 699.12 672.71 689.35 666.00 682.00 Z"/>
</g>
<g fill="None" fill-opacity="0.0" stroke="#FEFEFE" stroke-opacity="0.96" stroke-width="0.3"><path d="
M 371.00 718.00 
C 356.53 716.20 344.60 704.37 338.00 692.00
C 312.14 747.19 320.21 837.28 390.00 854.00
C 393.07 848.50 401.14 845.47 402.00 839.00
C 348.00 827.90 355.65 757.04 371.00 718.00 Z"/>
</g>
<g fill="None" fill-opacity="0.0" stroke="#D8D8D8" stroke-opacity="0.39" stroke-width="0.3"><path d="
M 910.00 735.00 
C 907.43 736.59 903.41 735.69 902.00 739.00
C 904.75 738.59 909.40 737.73 910.00 735.00 Z"/>
</g>
<g fill="None" fill-opacity="0.0" stroke="#FEFEFE" stroke-opacity="0.96" stroke-width="0.3"><path d="
M 761.00 867.00 
C 770.00 867.00 779.00 867.00 788.00 867.00
C 800.24 867.63 811.97 866.17 824.00 866.00
C 819.48 873.36 816.40 881.00 812.77 888.77 C 809.14 896.54 805.67 903.59 802.77 911.77 C 799.88 919.95 796.01 927.23 793.98 935.98 C 791.95 944.73 789.31 954.10 788.33 963.33 C 787.35 972.56 788.19 985.57 791.07 993.93 C 793.96 1002.28 797.16 1008.51 803.30 1014.70 C 809.44 1020.89 818.39 1023.60 826.99 1023.99 C 835.60 1024.38 845.98 1020.18 853.93 1017.93 C 861.87 1015.67 869.28 1010.48 876.77 1007.77 C 884.26 1005.06 890.04 996.49 896.92 993.92 C 903.80 991.35 910.62 974.67 903.25 977.25 C 895.88 979.82 892.85 989.25 885.08 992.08 C 877.31 994.92 871.80 1001.00 863.22 1003.22 C 854.65 1005.45 843.30 1009.58 833.70 1006.31 C 824.09 1003.04 823.11 993.08 823.00 984.00 C 822.89 974.92 824.87 964.00 827.68 955.68 C 830.49 947.36 832.60 938.93 836.08 931.08 C 839.55 923.22 842.16 915.58 846.08 908.08 C 849.99 900.57 853.04 892.36 857.08 885.08 C 861.11 877.80 863.95 870.26 868.23 863.23 C 872.51 856.20 885.63 857.89 892.78 854.78 C 899.93 851.67 909.28 849.14 915.92 844.92 C 922.57 840.71 934.04 837.61 928.00 828.00
C 912.85 834.80 897.21 842.57 880.00 844.00
C 893.90 817.05 911.30 791.48 926.00 765.00
C 914.39 769.36 902.05 776.77 889.00 773.00 C 875.96 769.22 873.14 785.74 866.31 794.31 C 859.47 802.87 855.54 815.10 848.77 823.77 C 842.00 832.44 839.18 847.76 827.00 848.00
C 812.35 849.77 794.58 849.41 780.00 848.00
C 730.65 846.68 682.99 838.69 634.00 836.00
C 649.66 810.82 667.21 786.51 682.00 761.00
C 675.86 757.08 674.86 749.28 673.00 743.00
C 664.85 747.14 661.23 756.36 652.75 760.75 C 644.26 765.13 639.74 772.85 635.25 781.25 C 630.76 789.66 625.17 794.86 620.77 803.77 C 616.37 812.68 610.26 816.84 605.77 826.77 C 601.28 836.71 588.10 835.75 577.00 835.00 C 565.90 834.25 551.69 835.99 541.22 837.22 C 530.75 838.45 520.88 841.16 511.68 844.68 C 502.48 848.19 495.51 853.01 488.08 859.08 C 480.65 865.16 475.00 868.68 468.75 876.75 C 462.50 884.82 456.45 887.33 451.77 897.77 C 447.09 908.21 461.78 903.95 465.70 894.70 C 469.61 885.44 477.49 881.86 485.30 876.30 C 493.12 870.75 502.06 868.60 512.00 866.00 C 521.93 863.40 535.97 863.86 546.99 862.99 C 558.02 862.12 571.44 861.58 583.00 862.00
C 577.57 872.02 570.99 881.47 565.31 891.31 C 559.62 901.14 553.81 911.45 548.25 921.25 C 542.70 931.06 536.88 940.92 531.77 950.77 C 526.66 960.62 519.77 971.76 515.77 981.77 C 511.77 991.78 499.66 1005.68 506.70 1016.30 C 513.73 1026.92 531.46 1016.58 536.23 1007.23 C 541.00 997.88 546.86 985.88 552.08 976.08 C 557.29 966.27 562.67 955.04 568.23 945.23 C 573.79 935.42 578.97 925.66 585.08 916.08 C 591.18 906.49 595.37 895.49 602.25 886.25 C 609.12 877.00 611.96 861.58 626.00 863.00 C 640.04 864.42 656.44 863.00 670.98 864.02 C 685.51 865.05 701.29 864.95 716.00 866.00 C 730.71 867.05 745.97 867.00 761.00 867.00 Z"/>
</g>
<g fill="None" fill-opacity="0.0" stroke="#FEFEFE" stroke-opacity="0.92" stroke-width="0.3"><path d="
M 420.00 856.00 
C 431.88 856.31 445.88 853.35 456.31 849.31 C 466.73 845.26 474.08 840.16 482.75 833.75 C 491.43 827.35 497.08 820.42 504.75 812.75 C 512.43 805.09 515.78 797.20 522.70 788.70 C 529.61 780.19 530.50 769.22 524.00 760.00
C 506.56 798.55 471.70 837.19 427.00 840.00
C 424.84 845.41 420.75 850.17 420.00 856.00 Z"/>
</g>
<g fill="None" fill-opacity="0.0" stroke="#FBFBFB" stroke-opacity="0.87" stroke-width="0.3"><path d="
M 421.00 835.00 
C 409.35 838.02 402.69 851.35 393.25 859.25 C 383.81 867.15 377.49 878.29 368.00 886.00
C 363.98 878.90 352.50 870.38 344.08 875.08 C 335.67 879.79 336.54 894.98 342.00 901.00
C 344.04 895.42 342.01 885.55 348.78 881.78 C 355.55 878.01 361.30 884.10 366.00 888.00
C 353.35 907.86 332.29 925.67 332.00 951.00
C 341.78 945.75 346.25 932.59 351.70 922.70 C 357.14 912.80 362.08 902.14 369.00 893.00
C 376.03 902.24 379.95 917.45 376.98 928.98 C 374.00 940.51 372.42 958.91 388.00 960.00
C 382.52 915.82 405.56 874.72 421.00 835.00
M 401.00 859.00 
C 393.50 875.59 387.31 893.26 381.00 910.00
C 376.45 900.69 368.96 889.21 378.25 881.25 C 387.54 873.29 390.57 864.65 401.00 859.00 Z"/>
</g>
<g fill="None" fill-opacity="0.0" stroke="#707070" stroke-opacity="0.50" stroke-width="0.3"><path d="
M 827.00 848.00 
C 811.35 848.31 795.66 848.00 780.00 848.00
C 794.58 849.41 812.35 849.77 827.00 848.00 Z"/>
</g>
<g fill="None" fill-opacity="0.0" stroke="#000000" stroke-opacity="0.00" stroke-width="0.3"><path d="
M 401.00 859.00 
C 390.57 864.65 387.54 873.29 378.25 881.25 C 368.96 889.21 376.45 900.69 381.00 910.00
C 387.31 893.26 393.50 875.59 401.00 859.00 Z"/>
</g>
<g fill="None" fill-opacity="0.0" stroke="#6E6E6E" stroke-opacity="0.50" stroke-width="0.3"><path d="
M 788.00 867.00 
C 779.00 867.00 770.00 867.00 761.00 867.00
C 769.42 867.81 779.51 867.82 788.00 867.00 Z"/>
</g>
<g fill="#000000" fill-opacity="0.00" stroke="None">
<path d="
M 0.00 1500.00 
L 1500.00 1500.00
L 1500.00 0.00
L 0.00 0.00
L 0.00 1500.00
M 1026.00 630.00 
C 1015.81 622.87 1003.51 624.33 995.25 633.25 C 986.99 642.17 981.48 652.34 968.00 651.00
C 971.48 643.97 977.56 637.89 982.75 631.75 C 987.94 625.61 992.86 619.24 998.25 613.25 C 1003.65 607.27 1008.81 601.16 1014.25 595.25 C 1019.69 589.34 1025.65 583.83 1030.75 577.75 C 1035.86 571.68 1042.23 566.52 1047.75 560.75 C 1053.27 554.98 1059.26 549.54 1065.25 544.25 C 1071.23 538.96 1077.03 533.42 1083.25 528.25 C 1089.47 523.08 1095.60 518.06 1102.25 513.25 C 1108.89 508.43 1114.91 503.42 1122.23 499.23 C 1129.55 495.04 1135.47 489.82 1144.08 487.08 C 1152.69 484.33 1157.04 476.26 1168.01 477.01 C 1178.97 477.76 1169.03 489.76 1161.30 492.30 C 1153.57 494.84 1148.76 502.86 1141.92 506.92 C 1135.08 510.98 1130.42 518.36 1123.92 522.92 C 1117.42 527.47 1112.94 534.58 1106.75 539.75 C 1100.56 544.92 1095.85 551.55 1090.25 557.25 C 1084.65 562.94 1079.09 568.79 1073.75 574.75 C 1068.42 580.71 1063.00 586.64 1057.75 592.75 C 1052.50 598.86 1047.19 604.82 1042.08 611.08 C 1036.97 617.35 1031.00 623.65 1026.00 630.00
M 673.00 494.00 
C 687.82 494.00 705.65 495.64 719.02 499.98 C 732.40 504.31 742.59 509.27 753.70 517.30 C 764.80 525.34 771.18 533.79 776.92 546.08 C 782.67 558.36 783.30 578.09 780.67 591.67 C 778.04 605.25 773.31 618.08 767.08 630.08 C 760.84 642.07 755.03 654.75 740.93 655.93 C 726.83 657.10 719.83 675.95 706.00 666.00
C 724.69 635.00 736.22 610.34 744.00 574.00 C 751.78 537.65 719.20 502.14 680.00 509.00
C 675.67 509.00 671.33 509.00 667.00 509.00
C 655.45 509.00 641.98 509.36 631.00 511.00 C 620.02 512.64 608.73 514.95 598.33 517.33 C 587.93 519.71 578.88 523.36 568.98 525.98 C 559.07 528.59 551.23 534.81 541.77 537.77 C 532.31 540.73 525.83 550.32 515.98 546.02 C 506.12 541.73 492.29 542.72 482.00 541.00
C 536.51 510.36 597.13 493.83 661.00 494.00
C 664.77 493.63 669.29 493.64 673.00 494.00
M 698.00 549.00 
C 691.09 558.21 678.92 565.49 670.25 575.25 C 661.58 585.01 652.10 592.98 644.25 603.25 C 636.40 613.51 627.24 623.15 619.75 633.75 C 612.27 644.35 604.25 654.19 597.25 665.25 C 590.25 676.30 583.32 688.60 577.00 700.00
C 581.38 700.89 600.58 691.63 595.74 698.74 C 590.90 705.86 578.65 704.07 572.00 707.00
C 568.85 716.02 561.71 726.91 558.69 735.69 C 555.68 744.48 546.77 762.65 558.08 767.92 C 569.39 773.20 579.48 757.17 588.00 757.00
C 580.15 769.01 550.80 785.19 541.25 766.75 C 531.70 748.32 546.49 726.35 553.00 710.00
C 540.68 708.81 528.32 711.58 516.00 710.00 C 503.68 708.42 492.71 710.83 480.00 709.00 C 467.29 707.17 463.48 714.63 458.08 724.08 C 452.68 733.53 450.87 738.93 444.70 747.70 C 438.52 756.46 441.22 763.65 431.25 771.25 C 421.28 778.85 420.30 763.22 426.77 755.77 C 433.24 748.32 434.18 739.39 439.77 731.77 C 445.37 724.15 448.50 716.01 453.00 708.00
C 442.18 707.16 429.80 708.71 419.98 710.98 C 410.15 713.25 406.99 722.10 399.00 726.00
C 403.27 713.56 413.60 706.99 425.03 701.03 C 436.45 695.06 458.74 701.69 465.77 689.77 C 472.80 677.85 478.75 669.35 485.77 657.77 C 492.79 646.19 498.26 637.25 505.30 625.31 C 512.35 613.36 517.54 602.41 520.00 588.00 C 522.46 573.58 511.11 561.73 496.00 562.00 C 480.88 562.28 463.41 563.43 450.32 568.32 C 437.23 573.22 426.44 577.91 415.92 585.92 C 405.40 593.92 397.33 600.69 388.75 610.75 C 380.17 620.81 374.03 630.02 368.23 642.23 C 362.43 654.44 358.98 671.13 362.93 685.07 C 366.87 699.01 386.72 702.19 399.02 697.02 C 411.33 691.86 419.17 683.41 425.92 671.92 C 432.68 660.44 435.66 644.01 428.00 632.00
C 442.42 637.95 437.62 660.47 431.23 672.23 C 424.84 683.99 417.46 694.37 404.92 700.92 C 392.39 707.48 373.87 708.06 361.75 699.25 C 349.64 690.43 345.34 673.55 347.00 659.00 C 348.66 644.45 354.37 631.07 362.30 619.30 C 370.23 607.54 378.28 600.07 389.08 591.08 C 399.88 582.10 409.92 575.75 423.02 570.03 C 436.13 564.30 450.11 559.10 465.02 557.02 C 479.94 554.95 500.72 555.38 514.68 560.32 C 528.64 565.27 538.36 579.47 536.00 594.00 C 533.64 608.53 525.29 619.29 518.08 631.08 C 510.86 642.86 503.12 652.58 496.23 664.23 C 489.34 675.88 480.81 685.96 475.00 698.00
C 488.67 696.67 505.74 701.53 518.67 701.33 C 531.60 701.13 552.14 707.94 559.92 697.92 C 567.71 687.91 571.42 678.11 578.31 668.31 C 585.19 658.50 591.13 649.32 597.92 639.92 C 604.71 630.52 611.33 622.52 618.75 613.75 C 626.17 604.98 632.87 596.41 641.25 588.25 C 649.63 580.08 657.40 572.49 666.70 565.70 C 676.00 558.90 686.19 550.46 698.00 549.00
M 478.00 578.00 
C 470.16 582.43 463.72 591.58 456.25 596.25 C 448.78 600.92 444.04 612.97 436.25 616.25 C 428.45 619.53 411.15 620.89 414.00 634.00 C 416.85 647.12 406.50 649.86 401.75 659.75 C 396.99 669.64 390.19 674.70 387.00 685.00
C 367.18 685.54 376.03 658.89 381.32 647.32 C 386.62 635.76 395.37 624.34 404.75 614.75 C 414.13 605.16 423.65 595.95 436.08 590.08 C 448.50 584.20 464.19 575.67 478.00 578.00
M 1009.00 665.00 
C 1013.42 667.50 1021.68 664.18 1027.00 665.00 C 1032.32 665.82 1040.44 665.11 1046.00 665.00
C 1052.77 664.86 1063.44 664.48 1070.00 664.00 C 1076.56 663.52 1076.72 653.96 1081.75 650.75 C 1086.78 647.54 1087.54 639.43 1095.03 639.03 C 1102.51 638.62 1105.26 647.92 1102.25 651.25 C 1099.23 654.57 1092.05 664.05 1093.00 665.00
C 1097.35 667.46 1105.86 664.08 1111.00 665.00 C 1116.14 665.92 1123.64 665.00 1129.00 665.00
C 1136.50 665.00 1145.33 664.17 1152.00 666.00
C 1140.97 671.92 1124.51 669.89 1113.00 673.00 C 1101.49 676.11 1083.43 673.66 1075.25 682.25 C 1067.07 690.83 1061.06 700.43 1056.70 710.70 C 1052.33 720.96 1041.14 732.67 1045.00 745.00 C 1048.86 757.33 1070.98 750.96 1080.03 747.03 C 1089.07 743.09 1100.81 735.76 1108.75 728.75 C 1116.70 721.75 1124.93 712.05 1134.00 707.00
C 1127.51 721.34 1117.68 728.51 1104.77 738.77 C 1091.86 749.03 1079.46 753.11 1062.33 757.33 C 1045.20 761.55 1025.76 745.90 1037.00 726.00
C 1026.42 734.09 1019.88 740.38 1007.92 746.92 C 995.97 753.47 984.03 757.93 969.00 758.00 C 953.97 758.07 946.12 740.51 953.00 727.00
C 939.88 738.58 928.00 747.27 912.77 755.77 C 897.54 764.27 868.46 758.94 871.00 736.00
C 857.59 746.35 843.19 761.04 825.00 760.00 C 806.81 758.96 796.21 739.44 790.00 725.00
C 784.98 731.39 780.00 737.29 777.69 745.70 C 775.39 754.10 767.29 760.88 762.23 750.77 C 757.17 740.66 767.99 735.14 769.00 726.00
C 762.05 732.57 756.64 737.36 748.92 742.92 C 741.20 748.48 734.15 753.24 724.92 756.92 C 715.70 760.61 704.90 761.53 695.77 755.23 C 686.64 748.93 685.67 737.33 688.93 727.93 C 692.18 718.53 696.77 711.20 702.75 703.75 C 708.74 696.30 713.72 690.74 720.75 684.75 C 727.77 678.75 735.72 673.38 743.70 669.70 C 751.67 666.01 767.11 665.67 769.92 675.08 C 772.74 684.48 770.26 696.72 758.78 699.78 C 747.29 702.83 749.04 685.21 756.00 679.00
C 745.65 680.21 738.25 686.88 729.92 692.92 C 721.59 698.96 716.24 705.94 710.70 714.70 C 705.15 723.45 697.86 730.77 699.00 743.00 C 700.14 755.23 717.40 756.08 726.08 751.08 C 734.75 746.07 743.64 741.78 751.23 735.23 C 758.82 728.68 765.33 723.13 771.75 715.75 C 778.17 708.38 785.15 701.21 789.75 692.75 C 794.35 684.30 800.87 676.97 805.75 668.75 C 810.64 660.54 817.67 652.68 822.75 644.75 C 827.83 636.83 835.69 629.46 841.25 622.25 C 846.81 615.04 868.50 610.97 857.08 626.08 C 845.67 641.19 831.51 656.43 821.00 672.00
C 828.24 669.28 835.75 665.48 843.07 663.07 C 850.40 660.66 862.06 657.82 869.07 661.93 C 876.09 666.03 881.54 672.94 881.00 681.00 C 880.46 689.06 875.61 695.51 869.30 700.30 C 863.00 705.10 857.42 708.78 849.77 711.77 C 842.12 714.76 832.01 717.27 823.00 716.00 C 813.99 714.73 803.50 710.84 806.78 721.22 C 810.06 731.61 810.99 734.98 816.25 742.75 C 821.50 750.53 830.14 752.63 838.02 750.02 C 845.91 747.41 851.91 743.77 858.08 739.08 C 864.26 734.39 870.31 730.26 873.97 723.97 C 877.63 717.69 880.76 710.28 885.75 704.75 C 890.74 699.23 894.38 693.22 900.25 688.25 C 906.12 683.28 911.04 678.98 917.75 674.75 C 924.45 670.51 932.60 667.31 941.00 667.00 C 949.41 666.70 957.43 675.48 954.67 683.67 C 951.91 691.86 948.19 696.68 941.75 701.75 C 935.31 706.83 930.65 710.97 922.92 713.92 C 915.20 716.88 910.46 723.13 900.98 722.98 C 891.49 722.82 884.47 726.56 884.02 737.02 C 883.58 747.49 888.66 753.67 898.00 754.00 C 907.34 754.33 913.67 749.78 920.70 745.70 C 927.73 741.62 932.20 737.14 938.25 732.25 C 944.29 727.36 948.68 722.69 954.25 717.25 C 959.82 711.80 962.61 704.77 965.92 697.92 C 969.24 691.08 973.52 684.19 976.00 677.00
C 962.15 686.15 957.59 661.72 971.02 664.02 C 984.45 666.32 991.24 661.24 996.77 651.77 C 1002.30 642.30 1009.86 636.13 1018.25 642.75 C 1026.63 649.37 1009.17 659.05 1009.00 665.00
M 685.00 685.00 
C 692.31 686.05 698.61 683.37 705.00 681.00
C 701.02 688.32 690.90 689.76 684.00 694.00
C 681.83 709.07 673.97 718.99 663.75 730.75 C 653.53 742.51 647.90 749.71 631.98 755.98 C 616.05 762.24 601.57 741.82 608.98 726.98 C 616.38 712.14 620.29 703.87 630.75 691.75 C 641.21 679.63 645.60 673.03 659.23 663.23 C 672.86 653.43 694.45 665.53 685.00 685.00
M 536.00 689.00 
C 530.04 691.82 516.02 685.09 522.26 678.26 C 528.49 671.42 535.06 684.92 536.00 689.00
M 371.00 718.00 
C 355.65 757.04 348.00 827.90 402.00 839.00
C 401.14 845.47 393.07 848.50 390.00 854.00
C 320.21 837.28 312.14 747.19 338.00 692.00
C 344.60 704.37 356.53 716.20 371.00 718.00
M 910.00 735.00 
C 909.40 737.73 904.75 738.59 902.00 739.00
C 903.41 735.69 907.43 736.59 910.00 735.00
M 780.00 848.00 
C 795.66 848.00 811.35 848.31 827.00 848.00
C 839.18 847.76 842.00 832.44 848.77 823.77 C 855.54 815.10 859.47 802.87 866.31 794.31 C 873.14 785.74 875.96 769.22 889.00 773.00 C 902.05 776.77 914.39 769.36 926.00 765.00
C 911.30 791.48 893.90 817.05 880.00 844.00
C 897.21 842.57 912.85 834.80 928.00 828.00
C 934.04 837.61 922.57 840.71 915.92 844.92 C 909.28 849.14 899.93 851.67 892.78 854.78 C 885.63 857.89 872.51 856.20 868.23 863.23 C 863.95 870.26 861.11 877.80 857.08 885.08 C 853.04 892.36 849.99 900.57 846.08 908.08 C 842.16 915.58 839.55 923.22 836.08 931.08 C 832.60 938.93 830.49 947.36 827.68 955.68 C 824.87 964.00 822.89 974.92 823.00 984.00 C 823.11 993.08 824.09 1003.04 833.70 1006.31 C 843.30 1009.58 854.65 1005.45 863.22 1003.22 C 871.80 1001.00 877.31 994.92 885.08 992.08 C 892.85 989.25 895.88 979.82 903.25 977.25 C 910.62 974.67 903.80 991.35 896.92 993.92 C 890.04 996.49 884.26 1005.06 876.77 1007.77 C 869.28 1010.48 861.87 1015.67 853.93 1017.93 C 845.98 1020.18 835.60 1024.38 826.99 1023.99 C 818.39 1023.60 809.44 1020.89 803.30 1014.70 C 797.16 1008.51 793.96 1002.28 791.07 993.93 C 788.19 985.57 787.35 972.56 788.33 963.33 C 789.31 954.10 791.95 944.73 793.98 935.98 C 796.01 927.23 799.88 919.95 802.77 911.77 C 805.67 903.59 809.14 896.54 812.77 888.77 C 816.40 881.00 819.48 873.36 824.00 866.00
C 811.97 866.17 800.24 867.63 788.00 867.00
C 779.51 867.82 769.42 867.81 761.00 867.00
C 745.97 867.00 730.71 867.05 716.00 866.00 C 701.29 864.95 685.51 865.05 670.98 864.02 C 656.44 863.00 640.04 864.42 626.00 863.00 C 611.96 861.58 609.12 877.00 602.25 886.25 C 595.37 895.49 591.18 906.49 585.08 916.08 C 578.97 925.66 573.79 935.42 568.23 945.23 C 562.67 955.04 557.29 966.27 552.08 976.08 C 546.86 985.88 541.00 997.88 536.23 1007.23 C 531.46 1016.58 513.73 1026.92 506.70 1016.30 C 499.66 1005.68 511.77 991.78 515.77 981.77 C 519.77 971.76 526.66 960.62 531.77 950.77 C 536.88 940.92 542.70 931.06 548.25 921.25 C 553.81 911.45 559.62 901.14 565.31 891.31 C 570.99 881.47 577.57 872.02 583.00 862.00
C 571.44 861.58 558.02 862.12 546.99 862.99 C 535.97 863.86 521.93 863.40 512.00 866.00 C 502.06 868.60 493.12 870.75 485.30 876.30 C 477.49 881.86 469.61 885.44 465.70 894.70 C 461.78 903.95 447.09 908.21 451.77 897.77 C 456.45 887.33 462.50 884.82 468.75 876.75 C 475.00 868.68 480.65 865.16 488.08 859.08 C 495.51 853.01 502.48 848.19 511.68 844.68 C 520.88 841.16 530.75 838.45 541.22 837.22 C 551.69 835.99 565.90 834.25 577.00 835.00 C 588.10 835.75 601.28 836.71 605.77 826.77 C 610.26 816.84 616.37 812.68 620.77 803.77 C 625.17 794.86 630.76 789.66 635.25 781.25 C 639.74 772.85 644.26 765.13 652.75 760.75 C 661.23 756.36 664.85 747.14 673.00 743.00
C 674.86 749.28 675.86 757.08 682.00 761.00
C 667.21 786.51 649.66 810.82 634.00 836.00
C 682.99 838.69 730.65 846.68 780.00 848.00
M 420.00 856.00 
C 420.75 850.17 424.84 845.41 427.00 840.00
C 471.70 837.19 506.56 798.55 524.00 760.00
C 530.50 769.22 529.61 780.19 522.70 788.70 C 515.78 797.20 512.43 805.09 504.75 812.75 C 497.08 820.42 491.43 827.35 482.75 833.75 C 474.08 840.16 466.73 845.26 456.31 849.31 C 445.88 853.35 431.88 856.31 420.00 856.00
M 421.00 835.00 
C 405.56 874.72 382.52 915.82 388.00 960.00
C 372.42 958.91 374.00 940.51 376.98 928.98 C 379.95 917.45 376.03 902.24 369.00 893.00
C 362.08 902.14 357.14 912.80 351.70 922.70 C 346.25 932.59 341.78 945.75 332.00 951.00
C 332.29 925.67 353.35 907.86 366.00 888.00
C 361.30 884.10 355.55 878.01 348.78 881.78 C 342.01 885.55 344.04 895.42 342.00 901.00
C 336.54 894.98 335.67 879.79 344.08 875.08 C 352.50 870.38 363.98 878.90 368.00 886.00
C 377.49 878.29 383.81 867.15 393.25 859.25 C 402.69 851.35 409.35 838.02 421.00 835.00 Z"/>
</g>
<g fill="#FEFEFE" fill-opacity="0.95" stroke="None">
<path d="
M 1026.00 630.00 
C 1031.00 623.65 1036.97 617.35 1042.08 611.08 C 1047.19 604.82 1052.50 598.86 1057.75 592.75 C 1063.00 586.64 1068.42 580.71 1073.75 574.75 C 1079.09 568.79 1084.65 562.94 1090.25 557.25 C 1095.85 551.55 1100.56 544.92 1106.75 539.75 C 1112.94 534.58 1117.42 527.47 1123.92 522.92 C 1130.42 518.36 1135.08 510.98 1141.92 506.92 C 1148.76 502.86 1153.57 494.84 1161.30 492.30 C 1169.03 489.76 1178.97 477.76 1168.01 477.01 C 1157.04 476.26 1152.69 484.33 1144.08 487.08 C 1135.47 489.82 1129.55 495.04 1122.23 499.23 C 1114.91 503.42 1108.89 508.43 1102.25 513.25 C 1095.60 518.06 1089.47 523.08 1083.25 528.25 C 1077.03 533.42 1071.23 538.96 1065.25 544.25 C 1059.26 549.54 1053.27 554.98 1047.75 560.75 C 1042.23 566.52 1035.86 571.68 1030.75 577.75 C 1025.65 583.83 1019.69 589.34 1014.25 595.25 C 1008.81 601.16 1003.65 607.27 998.25 613.25 C 992.86 619.24 987.94 625.61 982.75 631.75 C 977.56 637.89 971.48 643.97 968.00 651.00
C 981.48 652.34 986.99 642.17 995.25 633.25 C 1003.51 624.33 1015.81 622.87 1026.00 630.00 Z"/>
</g>
<g fill="#676767" fill-opacity="0.50" stroke="None">
<path d="
M 661.00 494.00 
C 665.00 494.00 669.00 494.00 673.00 494.00
C 669.29 493.64 664.77 493.63 661.00 494.00 Z"/>
</g>
<g fill="#FDFDFD" fill-opacity="0.96" stroke="None">
<path d="
M 667.00 509.00 
C 671.09 508.60 675.98 508.61 680.00 509.00
C 719.20 502.14 751.78 537.65 744.00 574.00 C 736.22 610.34 724.69 635.00 706.00 666.00
C 719.83 675.95 726.83 657.10 740.93 655.93 C 755.03 654.75 760.84 642.07 767.08 630.08 C 773.31 618.08 778.04 605.25 780.67 591.67 C 783.30 578.09 782.67 558.36 776.92 546.08 C 771.18 533.79 764.80 525.34 753.70 517.30 C 742.59 509.27 732.40 504.31 719.02 499.98 C 705.65 495.64 687.82 494.00 673.00 494.00
C 669.00 494.00 665.00 494.00 661.00 494.00
C 597.13 493.83 536.51 510.36 482.00 541.00
C 492.29 542.72 506.12 541.73 515.98 546.02 C 525.83 550.32 532.31 540.73 541.77 537.77 C 551.23 534.81 559.07 528.59 568.98 525.98 C 578.88 523.36 587.93 519.71 598.33 517.33 C 608.73 514.95 620.02 512.64 631.00 511.00 C 641.98 509.36 655.45 509.00 667.00 509.00 Z"/>
</g>
<g fill="#8D8D8D" fill-opacity="0.50" stroke="None">
<path d="
M 667.00 509.00 
C 671.33 509.00 675.67 509.00 680.00 509.00
C 675.98 508.61 671.09 508.60 667.00 509.00 Z"/>
</g>
<g fill="#FCFCFC" fill-opacity="0.91" stroke="None">
<path d="
M 698.00 549.00 
C 686.19 550.46 676.00 558.90 666.70 565.70 C 657.40 572.49 649.63 580.08 641.25 588.25 C 632.87 596.41 626.17 604.98 618.75 613.75 C 611.33 622.52 604.71 630.52 597.92 639.92 C 591.13 649.32 585.19 658.50 578.31 668.31 C 571.42 678.11 567.71 687.91 559.92 697.92 C 552.14 707.94 531.60 701.13 518.67 701.33 C 505.74 701.53 488.67 696.67 475.00 698.00
C 480.81 685.96 489.34 675.88 496.23 664.23 C 503.12 652.58 510.86 642.86 518.08 631.08 C 525.29 619.29 533.64 608.53 536.00 594.00 C 538.36 579.47 528.64 565.27 514.68 560.32 C 500.72 555.38 479.94 554.95 465.02 557.02 C 450.11 559.10 436.13 564.30 423.02 570.03 C 409.92 575.75 399.88 582.10 389.08 591.08 C 378.28 600.07 370.23 607.54 362.30 619.30 C 354.37 631.07 348.66 644.45 347.00 659.00 C 345.34 673.55 349.64 690.43 361.75 699.25 C 373.87 708.06 392.39 707.48 404.92 700.92 C 417.46 694.37 424.84 683.99 431.23 672.23 C 437.62 660.47 442.42 637.95 428.00 632.00
C 435.66 644.01 432.68 660.44 425.92 671.92 C 419.17 683.41 411.33 691.86 399.02 697.02 C 386.72 702.19 366.87 699.01 362.93 685.07 C 358.98 671.13 362.43 654.44 368.23 642.23 C 374.03 630.02 380.17 620.81 388.75 610.75 C 397.33 600.69 405.40 593.92 415.92 585.92 C 426.44 577.91 437.23 573.22 450.32 568.32 C 463.41 563.43 480.88 562.28 496.00 562.00 C 511.11 561.73 522.46 573.58 520.00 588.00 C 517.54 602.41 512.35 613.36 505.30 625.31 C 498.26 637.25 492.79 646.19 485.77 657.77 C 478.75 669.35 472.80 677.85 465.77 689.77 C 458.74 701.69 436.45 695.06 425.03 701.03 C 413.60 706.99 403.27 713.56 399.00 726.00
C 406.99 722.10 410.15 713.25 419.98 710.98 C 429.80 708.71 442.18 707.16 453.00 708.00
C 448.50 716.01 445.37 724.15 439.77 731.77 C 434.18 739.39 433.24 748.32 426.77 755.77 C 420.30 763.22 421.28 778.85 431.25 771.25 C 441.22 763.65 438.52 756.46 444.70 747.70 C 450.87 738.93 452.68 733.53 458.08 724.08 C 463.48 714.63 467.29 707.17 480.00 709.00 C 492.71 710.83 503.68 708.42 516.00 710.00 C 528.32 711.58 540.68 708.81 553.00 710.00
C 546.49 726.35 531.70 748.32 541.25 766.75 C 550.80 785.19 580.15 769.01 588.00 757.00
C 579.48 757.17 569.39 773.20 558.08 767.92 C 546.77 762.65 555.68 744.48 558.69 735.69 C 561.71 726.91 568.85 716.02 572.00 707.00
C 578.65 704.07 590.90 705.86 595.74 698.74 C 600.58 691.63 581.38 700.89 577.00 700.00
C 583.32 688.60 590.25 676.30 597.25 665.25 C 604.25 654.19 612.27 644.35 619.75 633.75 C 627.24 623.15 636.40 613.51 644.25 603.25 C 652.10 592.98 661.58 585.01 670.25 575.25 C 678.92 565.49 691.09 558.21 698.00 549.00 Z"/>
</g>
<g fill="#FEFEFE" fill-opacity="0.94" stroke="None">
<path d="
M 478.00 578.00 
C 464.19 575.67 448.50 584.20 436.08 590.08 C 423.65 595.95 414.13 605.16 404.75 614.75 C 395.37 624.34 386.62 635.76 381.32 647.32 C 376.03 658.89 367.18 685.54 387.00 685.00
C 390.19 674.70 396.99 669.64 401.75 659.75 C 406.50 649.86 416.85 647.12 414.00 634.00 C 411.15 620.89 428.45 619.53 436.25 616.25 C 444.04 612.97 448.78 600.92 456.25 596.25 C 463.72 591.58 470.16 582.43 478.00 578.00 Z"/>
</g>
<g fill="#FCFCFC" fill-opacity="0.91" stroke="None">
<path d="
M 1129.00 665.00 
C 1124.40 665.45 1116.12 667.18 1111.00 666.00 C 1105.88 664.82 1096.60 668.59 1093.00 665.00
C 1092.05 664.05 1099.23 654.57 1102.25 651.25 C 1105.26 647.92 1102.51 638.62 1095.03 639.03 C 1087.54 639.43 1086.78 647.54 1081.75 650.75 C 1076.72 653.96 1076.56 663.52 1070.00 664.00 C 1063.44 664.48 1052.77 664.86 1046.00 665.00
C 1041.36 665.56 1033.19 667.20 1028.00 666.00 C 1022.81 664.80 1012.67 668.67 1009.00 665.00
C 1009.17 659.05 1026.63 649.37 1018.25 642.75 C 1009.86 636.13 1002.30 642.30 996.77 651.77 C 991.24 661.24 984.45 666.32 971.02 664.02 C 957.59 661.72 962.15 686.15 976.00 677.00
C 973.52 684.19 969.24 691.08 965.92 697.92 C 962.61 704.77 959.82 711.80 954.25 717.25 C 948.68 722.69 944.29 727.36 938.25 732.25 C 932.20 737.14 927.73 741.62 920.70 745.70 C 913.67 749.78 907.34 754.33 898.00 754.00 C 888.66 753.67 883.58 747.49 884.02 737.02 C 884.47 726.56 891.49 722.82 900.98 722.98 C 910.46 723.13 915.20 716.88 922.92 713.92 C 930.65 710.97 935.31 706.83 941.75 701.75 C 948.19 696.68 951.91 691.86 954.67 683.67 C 957.43 675.48 949.41 666.70 941.00 667.00 C 932.60 667.31 924.45 670.51 917.75 674.75 C 911.04 678.98 906.12 683.28 900.25 688.25 C 894.38 693.22 890.74 699.23 885.75 704.75 C 880.76 710.28 877.63 717.69 873.97 723.97 C 870.31 730.26 864.26 734.39 858.08 739.08 C 851.91 743.77 845.91 747.41 838.02 750.02 C 830.14 752.63 821.50 750.53 816.25 742.75 C 810.99 734.98 810.06 731.61 806.78 721.22 C 803.50 710.84 813.99 714.73 823.00 716.00 C 832.01 717.27 842.12 714.76 849.77 711.77 C 857.42 708.78 863.00 705.10 869.30 700.30 C 875.61 695.51 880.46 689.06 881.00 681.00 C 881.54 672.94 876.09 666.03 869.07 661.93 C 862.06 657.82 850.40 660.66 843.07 663.07 C 835.75 665.48 828.24 669.28 821.00 672.00
C 831.51 656.43 845.67 641.19 857.08 626.08 C 868.50 610.97 846.81 615.04 841.25 622.25 C 835.69 629.46 827.83 636.83 822.75 644.75 C 817.67 652.68 810.64 660.54 805.75 668.75 C 800.87 676.97 794.35 684.30 789.75 692.75 C 785.15 701.21 778.17 708.38 771.75 715.75 C 765.33 723.13 758.82 728.68 751.23 735.23 C 743.64 741.78 734.75 746.07 726.08 751.08 C 717.40 756.08 700.14 755.23 699.00 743.00 C 697.86 730.77 705.15 723.45 710.70 714.70 C 716.24 705.94 721.59 698.96 729.92 692.92 C 738.25 686.88 745.65 680.21 756.00 679.00
C 749.04 685.21 747.29 702.83 758.78 699.78 C 770.26 696.72 772.74 684.48 769.92 675.08 C 767.11 665.67 751.67 666.01 743.70 669.70 C 735.72 673.38 727.77 678.75 720.75 684.75 C 713.72 690.74 708.74 696.30 702.75 703.75 C 696.77 711.20 692.18 718.53 688.93 727.93 C 685.67 737.33 686.64 748.93 695.77 755.23 C 704.90 761.53 715.70 760.61 724.92 756.92 C 734.15 753.24 741.20 748.48 748.92 742.92 C 756.64 737.36 762.05 732.57 769.00 726.00
C 767.99 735.14 757.17 740.66 762.23 750.77 C 767.29 760.88 775.39 754.10 777.69 745.70 C 780.00 737.29 784.98 731.39 790.00 725.00
C 796.21 739.44 806.81 758.96 825.00 760.00 C 843.19 761.04 857.59 746.35 871.00 736.00
C 868.46 758.94 897.54 764.27 912.77 755.77 C 928.00 747.27 939.88 738.58 953.00 727.00
C 946.12 740.51 953.97 758.07 969.00 758.00 C 984.03 757.93 995.97 753.47 1007.92 746.92 C 1019.88 740.38 1026.42 734.09 1037.00 726.00
C 1025.76 745.90 1045.20 761.55 1062.33 757.33 C 1079.46 753.11 1091.86 749.03 1104.77 738.77 C 1117.68 728.51 1127.51 721.34 1134.00 707.00
C 1124.93 712.05 1116.70 721.75 1108.75 728.75 C 1100.81 735.76 1089.07 743.09 1080.03 747.03 C 1070.98 750.96 1048.86 757.33 1045.00 745.00 C 1041.14 732.67 1052.33 720.96 1056.70 710.70 C 1061.06 700.43 1067.07 690.83 1075.25 682.25 C 1083.43 673.66 1101.49 676.11 1113.00 673.00 C 1124.51 669.89 1140.97 671.92 1152.00 666.00
C 1145.33 664.17 1136.50 665.00 1129.00 665.00
M 797.00 708.00 
C 799.39 699.70 806.14 691.94 812.75 686.75 C 819.37 681.56 828.13 675.28 835.69 672.70 C 843.26 670.11 858.89 661.47 865.75 669.25 C 872.60 677.03 861.10 687.94 854.30 692.30 C 847.50 696.67 838.57 701.70 829.78 704.78 C 820.99 707.85 807.05 710.06 797.00 708.00
M 1046.00 672.00 
C 1045.90 679.00 1055.33 678.86 1060.00 677.00
C 1054.85 688.12 1049.90 698.18 1044.23 709.23 C 1038.56 720.28 1029.00 724.02 1019.92 732.92 C 1010.83 741.82 999.57 743.40 987.93 749.93 C 976.28 756.45 955.74 748.27 961.99 733.99 C 968.25 719.72 970.60 712.49 978.25 701.25 C 985.91 690.02 988.08 679.36 1002.02 677.02 C 1015.97 674.69 1031.51 672.76 1046.00 672.00
M 893.00 717.00 
C 896.89 711.18 901.74 703.61 906.75 698.75 C 911.76 693.90 919.24 686.97 924.25 683.25 C 929.26 679.53 942.25 670.82 947.22 676.78 C 952.20 682.74 941.17 692.12 936.75 696.75 C 932.33 701.38 924.19 707.64 917.77 710.77 C 911.35 713.90 900.59 719.47 893.00 717.00 Z"/>
</g>
<g fill="#FCFCFC" fill-opacity="0.92" stroke="None">
<path d="
M 685.00 685.00 
C 694.45 665.53 672.86 653.43 659.23 663.23 C 645.60 673.03 641.21 679.63 630.75 691.75 C 620.29 703.87 616.38 712.14 608.98 726.98 C 601.57 741.82 616.05 762.24 631.98 755.98 C 647.90 749.71 653.53 742.51 663.75 730.75 C 673.97 718.99 681.83 709.07 684.00 694.00
C 690.90 689.76 701.02 688.32 705.00 681.00
C 698.61 683.37 692.31 686.05 685.00 685.00
M 666.00 682.00 
C 672.71 689.35 679.06 699.12 671.70 707.70 C 664.33 716.27 662.56 723.88 654.08 731.08 C 645.60 738.28 642.38 746.48 629.99 747.99 C 617.60 749.51 619.50 731.01 625.31 723.31 C 631.11 715.60 635.29 706.30 642.25 699.25 C 649.21 692.20 655.22 682.31 666.00 682.00 Z"/>
</g>
<g fill="#818181" fill-opacity="0.50" stroke="None">
<path d="
M 1046.00 665.00 
C 1040.44 665.11 1032.32 665.82 1027.00 665.00 C 1021.68 664.18 1013.42 667.50 1009.00 665.00
C 1012.67 668.67 1022.81 664.80 1028.00 666.00 C 1033.19 667.20 1041.36 665.56 1046.00 665.00 Z"/>
</g>
<g fill="#818181" fill-opacity="0.50" stroke="None">
<path d="
M 1129.00 665.00 
C 1123.64 665.00 1116.14 665.92 1111.00 665.00 C 1105.86 664.08 1097.35 667.46 1093.00 665.00
C 1096.60 668.59 1105.88 664.82 1111.00 666.00 C 1116.12 667.18 1124.40 665.45 1129.00 665.00 Z"/>
</g>
<g fill="#000000" fill-opacity="0.00" stroke="None">
<path d="
M 797.00 708.00 
C 807.05 710.06 820.99 707.85 829.78 704.78 C 838.57 701.70 847.50 696.67 854.30 692.30 C 861.10 687.94 872.60 677.03 865.75 669.25 C 858.89 661.47 843.26 670.11 835.69 672.70 C 828.13 675.28 819.37 681.56 812.75 686.75 C 806.14 691.94 799.39 699.70 797.00 708.00 Z"/>
</g>
<g fill="#000000" fill-opacity="0.00" stroke="None">
<path d="
M 1046.00 672.00 
C 1031.51 672.76 1015.97 674.69 1002.02 677.02 C 988.08 679.36 985.91 690.02 978.25 701.25 C 970.60 712.49 968.25 719.72 961.99 733.99 C 955.74 748.27 976.28 756.45 987.93 749.93 C 999.57 743.40 1010.83 741.82 1019.92 732.92 C 1029.00 724.02 1038.56 720.28 1044.23 709.23 C 1049.90 698.18 1054.85 688.12 1060.00 677.00
C 1055.33 678.86 1045.90 679.00 1046.00 672.00 Z"/>
</g>
<g fill="#000000" fill-opacity="0.00" stroke="None">
<path d="
M 893.00 717.00 
C 900.59 719.47 911.35 713.90 917.77 710.77 C 924.19 707.64 932.33 701.38 936.75 696.75 C 941.17 692.12 952.20 682.74 947.22 676.78 C 942.25 670.82 929.26 679.53 924.25 683.25 C 919.24 686.97 911.76 693.90 906.75 698.75 C 901.74 703.61 896.89 711.18 893.00 717.00 Z"/>
</g>
<g fill="#F8F8F8" fill-opacity="0.82" stroke="None">
<path d="
M 536.00 689.00 
C 535.06 684.92 528.49 671.42 522.26 678.26 C 516.02 685.09 530.04 691.82 536.00 689.00 Z"/>
</g>
<g fill="#000000" fill-opacity="0.00" stroke="None">
<path d="
M 666.00 682.00 
C 655.22 682.31 649.21 692.20 642.25 699.25 C 635.29 706.30 631.11 715.60 625.31 723.31 C 619.50 731.01 617.60 749.51 629.99 747.99 C 642.38 746.48 645.60 738.28 654.08 731.08 C 662.56 723.88 664.33 716.27 671.70 707.70 C 679.06 699.12 672.71 689.35 666.00 682.00 Z"/>
</g>
<g fill="#FEFEFE" fill-opacity="0.96" stroke="None">
<path d="
M 371.00 718.00 
C 356.53 716.20 344.60 704.37 338.00 692.00
C 312.14 747.19 320.21 837.28 390.00 854.00
C 393.07 848.50 401.14 845.47 402.00 839.00
C 348.00 827.90 355.65 757.04 371.00 718.00 Z"/>
</g>
<g fill="#D8D8D8" fill-opacity="0.39" stroke="None">
<path d="
M 910.00 735.00 
C 907.43 736.59 903.41 735.69 902.00 739.00
C 904.75 738.59 909.40 737.73 910.00 735.00 Z"/>
</g>
<g fill="#FEFEFE" fill-opacity="0.96" stroke="None">
<path d="
M 761.00 867.00 
C 770.00 867.00 779.00 867.00 788.00 867.00
C 800.24 867.63 811.97 866.17 824.00 866.00
C 819.48 873.36 816.40 881.00 812.77 888.77 C 809.14 896.54 805.67 903.59 802.77 911.77 C 799.88 919.95 796.01 927.23 793.98 935.98 C 791.95 944.73 789.31 954.10 788.33 963.33 C 787.35 972.56 788.19 985.57 791.07 993.93 C 793.96 1002.28 797.16 1008.51 803.30 1014.70 C 809.44 1020.89 818.39 1023.60 826.99 1023.99 C 835.60 1024.38 845.98 1020.18 853.93 1017.93 C 861.87 1015.67 869.28 1010.48 876.77 1007.77 C 884.26 1005.06 890.04 996.49 896.92 993.92 C 903.80 991.35 910.62 974.67 903.25 977.25 C 895.88 979.82 892.85 989.25 885.08 992.08 C 877.31 994.92 871.80 1001.00 863.22 1003.22 C 854.65 1005.45 843.30 1009.58 833.70 1006.31 C 824.09 1003.04 823.11 993.08 823.00 984.00 C 822.89 974.92 824.87 964.00 827.68 955.68 C 830.49 947.36 832.60 938.93 836.08 931.08 C 839.55 923.22 842.16 915.58 846.08 908.08 C 849.99 900.57 853.04 892.36 857.08 885.08 C 861.11 877.80 863.95 870.26 868.23 863.23 C 872.51 856.20 885.63 857.89 892.78 854.78 C 899.93 851.67 909.28 849.14 915.92 844.92 C 922.57 840.71 934.04 837.61 928.00 828.00
C 912.85 834.80 897.21 842.57 880.00 844.00
C 893.90 817.05 911.30 791.48 926.00 765.00
C 914.39 769.36 902.05 776.77 889.00 773.00 C 875.96 769.22 873.14 785.74 866.31 794.31 C 859.47 802.87 855.54 815.10 848.77 823.77 C 842.00 832.44 839.18 847.76 827.00 848.00
C 812.35 849.77 794.58 849.41 780.00 848.00
C 730.65 846.68 682.99 838.69 634.00 836.00
C 649.66 810.82 667.21 786.51 682.00 761.00
C 675.86 757.08 674.86 749.28 673.00 743.00
C 664.85 747.14 661.23 756.36 652.75 760.75 C 644.26 765.13 639.74 772.85 635.25 781.25 C 630.76 789.66 625.17 794.86 620.77 803.77 C 616.37 812.68 610.26 816.84 605.77 826.77 C 601.28 836.71 588.10 835.75 577.00 835.00 C 565.90 834.25 551.69 835.99 541.22 837.22 C 530.75 838.45 520.88 841.16 511.68 844.68 C 502.48 848.19 495.51 853.01 488.08 859.08 C 480.65 865.16 475.00 868.68 468.75 876.75 C 462.50 884.82 456.45 887.33 451.77 897.77 C 447.09 908.21 461.78 903.95 465.70 894.70 C 469.61 885.44 477.49 881.86 485.30 876.30 C 493.12 870.75 502.06 868.60 512.00 866.00 C 521.93 863.40 535.97 863.86 546.99 862.99 C 558.02 862.12 571.44 861.58 583.00 862.00
C 577.57 872.02 570.99 881.47 565.31 891.31 C 559.62 901.14 553.81 911.45 548.25 921.25 C 542.70 931.06 536.88 940.92 531.77 950.77 C 526.66 960.62 519.77 971.76 515.77 981.77 C 511.77 991.78 499.66 1005.68 506.70 1016.30 C 513.73 1026.92 531.46 1016.58 536.23 1007.23 C 541.00 997.88 546.86 985.88 552.08 976.08 C 557.29 966.27 562.67 955.04 568.23 945.23 C 573.79 935.42 578.97 925.66 585.08 916.08 C 591.18 906.49 595.37 895.49 602.25 886.25 C 609.12 877.00 611.96 861.58 626.00 863.00 C 640.04 864.42 656.44 863.00 670.98 864.02 C 685.51 865.05 701.29 864.95 716.00 866.00 C 730.71 867.05 745.97 867.00 761.00 867.00 Z"/>
</g>
<g fill="#FEFEFE" fill-opacity="0.92" stroke="None">
<path d="
M 420.00 856.00 
C 431.88 856.31 445.88 853.35 456.31 849.31 C 466.73 845.26 474.08 840.16 482.75 833.75 C 491.43 827.35 497.08 820.42 504.75 812.75 C 512.43 805.09 515.78 797.20 522.70 788.70 C 529.61 780.19 530.50 769.22 524.00 760.00
C 506.56 798.55 471.70 837.19 427.00 840.00
C 424.84 845.41 420.75 850.17 420.00 856.00 Z"/>
</g>
<g fill="#FBFBFB" fill-opacity="0.87" stroke="None">
<path d="
M 421.00 835.00 
C 409.35 838.02 402.69 851.35 393.25 859.25 C 383.81 867.15 377.49 878.29 368.00 886.00
C 363.98 878.90 352.50 870.38 344.08 875.08 C 335.67 879.79 336.54 894.98 342.00 901.00
C 344.04 895.42 342.01 885.55 348.78 881.78 C 355.55 878.01 361.30 884.10 366.00 888.00
C 353.35 907.86 332.29 925.67 332.00 951.00
C 341.78 945.75 346.25 932.59 351.70 922.70 C 357.14 912.80 362.08 902.14 369.00 893.00
C 376.03 902.24 379.95 917.45 376.98 928.98 C 374.00 940.51 372.42 958.91 388.00 960.00
C 382.52 915.82 405.56 874.72 421.00 835.00
M 401.00 859.00 
C 393.50 875.59 387.31 893.26 381.00 910.00
C 376.45 900.69 368.96 889.21 378.25 881.25 C 387.54 873.29 390.57 864.65 401.00 859.00 Z"/>
</g>
<g fill="#707070" fill-opacity="0.50" stroke="None">
<path d="
M 827.00 848.00 
C 811.35 848.31 795.66 848.00 780.00 848.00
C 794.58 849.41 812.35 849.77 827.00 848.00 Z"/>
</g>
<g fill="#000000" fill-opacity="0.00" stroke="None">
<path d="
M 401.00 859.00 
C 390.57 864.65 387.54 873.29 378.25 881.25 C 368.96 889.21 376.45 900.69 381.00 910.00
C 387.31 893.26 393.50 875.59 401.00 859.00 Z"/>
</g>
<g fill="#6E6E6E" fill-opacity="0.50" stroke="None">
<path d="
M 788.00 867.00 
C 779.00 867.00 770.00 867.00 761.00 867.00
C 769.42 867.81 779.51 867.82 788.00 867.00 Z"/>
</g>
</svg>